<svg xmlns="http://www.w3.org/2000/svg" xmlns:xlink="http://www.w3.org/1999/xlink" version="1.1" x="0px" y="0px" viewBox="0 0 98 122.5" style="enable-background:new 0 0 98 98;" xml:space="preserve"><path stroke="gray" stroke-width="2px" fill="gray" d="M82.415,15.585C73.49,6.659,61.623,1.743,49,1.743S24.51,6.659,15.585,15.585C6.659,24.51,1.743,36.377,1.743,49  c0,12.623,4.916,24.49,13.841,33.415C24.51,91.341,36.377,96.257,49,96.257s24.49-4.916,33.415-13.841  C91.341,73.49,96.257,61.623,96.257,49C96.257,36.377,91.341,24.51,82.415,15.585z M49,89.982C26.403,89.982,8.018,71.597,8.018,49  S26.403,8.018,49,8.018S89.982,26.403,89.982,49S71.597,89.982,49,89.982z M67.085,38.72c0,6.236-3.758,12.458-9.575,15.852  C54.543,56.303,54,58.737,54,62.905c0,1.733-1.405,3.137-3.137,3.137s-3.137-1.405-3.137-3.137c0-3.456,0-9.889,6.623-13.753  c3.217-1.877,6.462-5.831,6.462-10.433c0-6.512-5.298-11.811-11.811-11.811S37.189,32.207,37.189,38.72  c0,1.733-1.405,3.137-3.137,3.137s-3.137-1.405-3.137-3.137c0-9.972,8.113-18.085,18.085-18.085S67.085,28.747,67.085,38.72z   M54,72.615v1.613c0,1.733-1.405,3.137-3.137,3.137s-3.137-1.405-3.137-3.137v-1.613c0-1.733,1.405-3.137,3.137-3.137  S54,70.883,54,72.615z"/></svg>