<svg xmlns="http://www.w3.org/2000/svg" xmlns:xlink="http://www.w3.org/1999/xlink" version="1.1" x="0px" y="0px" viewBox="0 0 1024 1280" style="enable-background:new 0 0 1024 1024;" xml:space="preserve"><g><g><path fill="gray" stroke-width="2px" d="M175.9,170.4c-69.1,69.3-117.4,160-133.6,256.7c-8,47.7-9.9,95.7-3.5,143.7c3.3,25.1,7.8,49.8,14.8,74.1    c7.2,24.7,16.6,48.8,27.4,72.2c41.7,90,114,166.6,200.6,214.7c83.9,46.7,182.5,68.2,278.1,58.9c47.9-4.7,94.6-15.3,139.1-33.9    c24.1-10.1,47.4-21.3,69.6-35c22.5-13.9,43.8-29.8,63.8-47c74.3-63.9,128.3-152.1,151.7-247.2c22.8-92.9,18.2-193.5-15.6-283.2    c-9.1-24.2-19.8-48-32.5-70.5c-13-23-28.2-44.4-44.6-65c-31.1-39.2-69.1-73-110.8-100.6c-80.3-53.3-178-80.8-274.3-78.6    c-96.6,2.2-193.3,33.5-271.3,90.9C214.1,135.7,194.2,152.1,175.9,170.4c-14.8,14.8-15.9,42,0,56.6c16,14.7,40.7,15.8,56.6,0    c13.5-13.4,27.8-26,42.8-37.7c-2.7,2.1-5.4,4.2-8.1,6.3c30-23.1,62.9-42.3,97.8-57.1c-3.2,1.3-6.4,2.7-9.6,4    c35.8-15,73.5-25.3,112-30.6c-3.5,0.5-7.1,1-10.6,1.4c39.6-5.3,79.8-5.3,119.4,0c-3.5-0.5-7.1-1-10.6-1.4    c38.5,5.3,76.2,15.6,112,30.6c-3.2-1.3-6.4-2.7-9.6-4c34.9,14.8,67.8,34,97.8,57.1c-2.7-2.1-5.4-4.2-8.1-6.3    c30.1,23.3,57.2,50.4,80.5,80.5c-2.1-2.7-4.2-5.4-6.3-8.1c23.1,30,42.3,62.9,57.1,97.8c-1.3-3.2-2.7-6.4-4-9.6    c15,35.8,25.3,73.5,30.6,112c-0.5-3.5-1-7.1-1.4-10.6c5.3,39.6,5.3,79.8,0,119.4c0.5-3.5,1-7.1,1.4-10.6    c-5.3,38.5-15.6,76.2-30.6,112c1.3-3.2,2.7-6.4,4-9.6c-14.8,34.9-34,67.8-57.1,97.8c2.1-2.7,4.2-5.4,6.3-8.1    c-23.3,30.1-50.4,57.2-80.5,80.5c2.7-2.1,5.4-4.2,8.1-6.3c-30,23.1-62.9,42.3-97.8,57.1c3.2-1.3,6.4-2.7,9.6-4    c-35.8,15-73.5,25.3-112,30.6c3.5-0.5,7.1-1,10.6-1.4c-39.6,5.3-79.8,5.3-119.4,0c3.5,0.5,7.1,1,10.6,1.4    c-38.5-5.3-76.2-15.6-112-30.6c3.2,1.3,6.4,2.7,9.6,4c-34.9-14.8-67.8-34-97.8-57.1c2.7,2.1,5.4,4.2,8.1,6.3    c-30.1-23.3-57.2-50.4-80.5-80.5c2.1,2.7,4.2,5.4,6.3,8.1c-23.1-30-42.3-62.9-57.1-97.8c1.3,3.2,2.7,6.4,4,9.6    c-15-35.8-25.3-73.5-30.6-112c0.5,3.5,1,7.1,1.4,10.6c-5.3-39.6-5.3-79.8,0-119.4c-0.5,3.5-1,7.1-1.4,10.6    c5.3-38.5,15.6-76.2,30.6-112c-1.3,3.2-2.7,6.4-4,9.6c14.8-34.9,34-67.8,57.1-97.8c-2.1,2.7-4.2,5.4-6.3,8.1    c11.7-15.1,24.3-29.4,37.7-42.8c14.8-14.8,15.9-41.9,0-56.6C216.5,155.8,191.7,154.6,175.9,170.4z"/></g></g><g><g><path fill="gray" d="M480.6,475.1c-9.2,10-14.8,22.1-14.9,36c-0.1,13.4,5.5,26.5,14.9,36c4.8,4.9,10.3,8,16.5,10.7    c6.3,2.6,12.5,4.2,19.5,4.2c7,0,13.2-1.6,19.5-4.2c6.2-2.6,11.6-5.8,16.5-10.7c19.5-19.6,19.6-52.3,0-71.9    c-9.4-9.4-22.6-14.9-36-14.9C502.7,460.2,490.6,465.8,480.6,475.1c-7.4,6.8-11.7,18.4-11.7,28.3c0,9.8,4.4,21.5,11.7,28.3    c7.6,7,17.6,12.2,28.3,11.7c10.9-0.5,20.2-4.3,28.3-11.7c0.4-0.4,0.9-0.8,1.3-1.1c-2.7,2.1-5.4,4.2-8.1,6.3    c0.7-0.5,1.4-0.9,2.2-1.2c-3.2,1.3-6.4,2.7-9.6,4c0.8-0.3,1.6-0.5,2.4-0.7c-3.5,0.5-7.1,1-10.6,1.4c1.1-0.1,2.2-0.1,3.3,0    c-3.5-0.5-7.1-1-10.6-1.4c0.9,0.2,1.6,0.4,2.4,0.7c-3.2-1.3-6.4-2.7-9.6-4c0.8,0.4,1.5,0.8,2.2,1.2c-2.7-2.1-5.4-4.2-8.1-6.3    c1,0.7,1.7,1.5,2.5,2.5c-2.1-2.7-4.2-5.4-6.3-8.1c0.5,0.7,0.9,1.4,1.2,2.2c-1.3-3.2-2.7-6.4-4-9.6c0.3,0.8,0.5,1.6,0.7,2.4    c-0.5-3.5-1-7.1-1.4-10.6c0.1,1.1,0.1,2.2,0,3.3c0.5-3.5,1-7.1,1.4-10.6c-0.2,0.9-0.4,1.6-0.7,2.4c1.3-3.2,2.7-6.4,4-9.6    c-0.4,0.8-0.8,1.5-1.2,2.2c2.1-2.7,4.2-5.4,6.3-8.1c-0.7,1-1.5,1.7-2.5,2.5c2.7-2.1,5.4-4.2,8.1-6.3c-0.7,0.5-1.4,0.9-2.2,1.2    c3.2-1.3,6.4-2.7,9.6-4c-0.8,0.3-1.6,0.5-2.4,0.7c3.5-0.5,7.1-1,10.6-1.4c-1.1,0.1-2.2,0.1-3.3,0c3.5,0.5,7.1,1,10.6,1.4    c-0.9-0.2-1.6-0.4-2.4-0.7c3.2,1.3,6.4,2.7,9.6,4c-0.8-0.4-1.5-0.8-2.2-1.2c2.7,2.1,5.4,4.2,8.1,6.3c-1-0.7-1.7-1.5-2.5-2.5    c2.1,2.7,4.2,5.4,6.3,8.1c-0.5-0.7-0.9-1.4-1.2-2.2c1.3,3.2,2.7,6.4,4,9.6c-0.3-0.8-0.5-1.6-0.7-2.4c0.5,3.5,1,7.1,1.4,10.6    c-0.1-1.1-0.1-2.2,0-3.3c-0.5,3.5-1,7.1-1.4,10.6c0.2-0.9,0.4-1.6,0.7-2.4c-1.3,3.2-2.7,6.4-4,9.6c0.4-0.8,0.8-1.5,1.2-2.2    c-2.1,2.7-4.2,5.4-6.3,8.1c0.3-0.5,0.7-0.9,1.1-1.3c7.1-7.7,11.7-17.6,11.7-28.3c0-9.8-4.4-21.5-11.7-28.3    c-7.6-7-17.6-12.2-28.3-11.7C498.5,463.8,487.8,467.2,480.6,475.1z"/></g></g><g><g><path fill="gray" d="M303.1,773.7c11.1-3.9,22.2-7.8,33.3-11.8c26.6-9.4,53.1-18.8,79.7-28.2c31.9-11.3,63.9-22.6,95.8-33.9    c27.3-9.7,54.7-19.3,82-29c12.4-4.4,24.8-8.5,37.1-13.1c0,0,0.1,0,0.2-0.1c8.4-3.1,15.2-7.2,20.8-14.3c3.3-4.3,5.2-8.5,7.2-13.6    c0.1-0.3,0.2-0.5,0.3-0.8c0.6-1.6,1.2-3.2,1.8-4.9c2.6-7.1,5.1-14.1,7.7-21.2c9.1-25.1,18.2-50.3,27.3-75.4    c11.5-31.7,22.9-63.5,34.4-95.2c10.3-28.6,20.6-57.1,31-85.7c5.7-15.7,11.3-31.3,17-47c0.3-0.7,0.5-1.4,0.8-2.1    c10-27.7-21.5-59.2-49.2-49.2c-10.9,3.9-21.8,7.9-32.8,11.8c-26.3,9.5-52.5,19-78.8,28.5c-31.8,11.5-63.7,23-95.5,34.5    c-27.8,10-55.6,20.1-83.4,30.1c-13.7,4.9-27.4,9.7-41,14.8c-0.2,0.1-0.5,0.2-0.7,0.3c-5.1,1.9-9.3,3.8-13.6,7.2    c-7.2,5.5-11.2,12.4-14.3,20.8c0,0.1,0,0.1-0.1,0.2c-0.4,1.2-0.8,2.4-1.3,3.6c-2.3,6.4-4.5,12.8-6.8,19.2    c-8.7,24.5-17.3,49-26,73.6c-11.2,31.7-22.4,63.4-33.6,95.2c-10.2,28.8-20.4,57.7-30.6,86.5c-5.6,15.9-11.2,31.8-16.9,47.7    c-0.3,0.7-0.5,1.5-0.8,2.2c-3.3,9.4-0.9,22.5,4,30.8c4.9,8.3,14.4,16.2,23.9,18.4c10.2,2.3,21.7,1.8,30.8-4    c9.1-5.9,14.8-13.6,18.4-23.9c3.9-10.9,7.7-21.8,11.6-32.7c9.2-26,18.4-52,27.6-78c11.2-31.6,22.4-63.3,33.5-94.9    c9.7-27.4,19.3-54.7,29-82.1c4.7-13.3,9.7-26.5,14.1-39.9c0.1-0.2,0.1-0.4,0.2-0.6c-9.3,9.3-18.6,18.6-27.9,27.9    c11-4,22-8,33.1-12c26.5-9.6,52.9-19.1,79.4-28.7c32-11.6,64-23.1,96-34.7c27.5-10,55.1-19.9,82.6-29.9    c13.5-4.9,27.1-9.5,40.5-14.6c0.2-0.1,0.4-0.1,0.6-0.2c-16.4-16.4-32.8-32.8-49.2-49.2c-4,11-8,22-12,33.1    c-9.6,26.5-19.1,52.9-28.7,79.4c-11.6,32-23.1,64-34.7,96c-10,27.5-19.9,55.1-29.9,82.6c-4.9,13.5-10,26.9-14.6,40.5    c-0.1,0.2-0.1,0.4-0.2,0.6c9.3-9.3,18.6-18.6,27.9-27.9c-10.9,3.9-21.8,7.7-32.7,11.6c-26,9.2-52,18.4-78,27.6    c-31.6,11.2-63.3,22.4-94.9,33.5c-27.4,9.7-54.7,19.3-82.1,29c-13.3,4.7-26.6,9.3-39.9,14.1c-0.2,0.1-0.4,0.1-0.6,0.2    c-9.9,3.5-18.5,9.1-23.9,18.4c-5,8.6-7.1,21.2-4,30.8c3.1,9.7,9.1,19,18.4,23.9C281.4,774.5,293,777.3,303.1,773.7z"/></g></g></svg>