<svg version="1.1" viewBox="0.0 0.0 600.0 371.0" fill="none" stroke="none" stroke-linecap="square" stroke-miterlimit="10" width="600" height="371" xmlns:xlink="http://www.w3.org/1999/xlink" xmlns="http://www.w3.org/2000/svg"><path fill="#ffffff" d="M0 0L600.0 0L600.0 371.0L0 371.0L0 0Z" fill-rule="nonzero"/><path stroke="#000000" stroke-width="1.0" stroke-linecap="butt" stroke-opacity="0.0" d="M89.5 51.5L89.5 332.5" fill-rule="nonzero"/><path stroke="#000000" stroke-width="1.0" stroke-linecap="butt" stroke-opacity="0.0" d="M133.5 51.5L133.5 332.5" fill-rule="nonzero"/><path stroke="#000000" stroke-width="1.0" stroke-linecap="butt" stroke-opacity="0.0" d="M221.5 51.5L221.5 332.5" fill-rule="nonzero"/><path stroke="#000000" stroke-width="1.0" stroke-linecap="butt" stroke-opacity="0.0" d="M265.5 51.5L265.5 332.5" fill-rule="nonzero"/><path stroke="#000000" stroke-width="1.0" stroke-linecap="butt" stroke-opacity="0.0" d="M354.5 51.5L354.5 332.5" fill-rule="nonzero"/><path stroke="#000000" stroke-width="1.0" stroke-linecap="butt" stroke-opacity="0.0" d="M398.5 51.5L398.5 332.5" fill-rule="nonzero"/><path stroke="#000000" stroke-width="1.0" stroke-linecap="butt" stroke-opacity="0.0" d="M486.5 51.5L486.5 332.5" fill-rule="nonzero"/><path stroke="#000000" stroke-width="1.0" stroke-linecap="butt" stroke-opacity="0.0" d="M530.5 51.5L530.5 332.5" fill-rule="nonzero"/><path stroke="#cccccc" stroke-width="1.0" stroke-linecap="butt" d="M45.5 332.5L581.5 332.5" fill-rule="nonzero"/><path stroke="#cccccc" stroke-width="1.0" stroke-linecap="butt" d="M45.5 262.5L581.5 262.5" fill-rule="nonzero"/><path stroke="#cccccc" stroke-width="1.0" stroke-linecap="butt" d="M45.5 192.5L581.5 192.5" fill-rule="nonzero"/><path stroke="#cccccc" stroke-width="1.0" stroke-linecap="butt" d="M45.5 122.5L581.5 122.5" fill-rule="nonzero"/><path stroke="#cccccc" stroke-width="1.0" stroke-linecap="butt" d="M45.5 51.5L581.5 51.5" fill-rule="nonzero"/><clipPath id="id_0"><path d="M45.55 51.916668L581.45 51.916668L581.45 332.45L45.55 332.45L45.55 51.916668Z" clip-rule="nonzero"/></clipPath><path stroke="aquamarine" stroke-width="8.0" stroke-linecap="round" stroke-opacity="0.4" clip-path="url(#id_0)" d="M0 285.02658L581.45 182.19858" fill-rule="nonzero"/><path fill="lightgrey" clip-path="url(#id_0)" d="M579.0403 175.48492C579.0403 177.9702 577.0255 179.98492 574.5403 179.98492C572.055 179.98492 570.0403 177.9702 570.0403 175.48492C570.0403 172.99963 572.055 170.98492 574.5403 170.98492C577.0255 170.98492 579.0403 172.99963 579.0403 175.48492Z" fill-rule="nonzero"/><path fill="lightgrey" clip-path="url(#id_0)" d="M528.6602 205.54207C528.6602 208.02734 526.6455 210.04207 524.1602 210.04207C521.6749 210.04207 519.6602 208.02734 519.6602 205.54207C519.6602 203.05678 521.6749 201.04207 524.1602 201.04207C526.6455 201.04207 528.6602 203.05678 528.6602 205.54207Z" fill-rule="nonzero"/><path fill="lightgrey" clip-path="url(#id_0)" d="M553.8502 218.90079C553.8502 221.38608 551.8355 223.40079 549.3502 223.40079C546.865 223.40079 544.8502 221.38608 544.8502 218.90079C544.8502 216.41551 546.865 214.40079 549.3502 214.40079C551.8355 214.40079 553.8502 216.41551 553.8502 218.90079Z" fill-rule="nonzero"/><path fill="lightgrey" clip-path="url(#id_0)" d="M528.6602 195.52301C528.6602 198.0083 526.6455 200.02301 524.1602 200.02301C521.6749 200.02301 519.6602 198.0083 519.6602 195.52301C519.6602 193.03773 521.6749 191.02301 524.1602 191.02301C526.6455 191.02301 528.6602 193.03773 528.6602 195.52301Z" fill-rule="nonzero"/><path fill="lightgrey" clip-path="url(#id_0)" d="M579.0403 208.88174C579.0403 211.36703 577.0255 213.38174 574.5403 213.38174C572.055 213.38174 570.0403 211.36703 570.0403 208.88174C570.0403 206.39647 572.055 204.38174 574.5403 204.38174C577.0255 204.38174 579.0403 206.39647 579.0403 208.88174Z" fill-rule="nonzero"/><path fill="lightgrey" clip-path="url(#id_0)" d="M503.4702 212.22144C503.4702 214.70671 501.4555 216.72144 498.9702 216.72144C496.48492 216.72144 494.4702 214.70671 494.4702 212.22144C494.4702 209.73615 496.48492 207.72144 498.9702 207.72144C501.4555 207.72144 503.4702 209.73615 503.4702 212.22144Z" fill-rule="nonzero"/><path fill="lightgrey" clip-path="url(#id_0)" d="M579.0403 165.46587C579.0403 167.95116 577.0255 169.96587 574.5403 169.96587C572.055 169.96587 570.0403 167.95116 570.0403 165.46587C570.0403 162.98059 572.055 160.96587 574.5403 160.96587C577.0255 160.96587 579.0403 162.98059 579.0403 165.46587Z" fill-rule="nonzero"/><path fill="lightgrey" clip-path="url(#id_0)" d="M478.2802 178.8246C478.2802 181.30989 476.2655 183.3246 473.7802 183.3246C471.29492 183.3246 469.2802 181.30989 469.2802 178.8246C469.2802 176.33932 471.29492 174.3246 473.7802 174.3246C476.2655 174.3246 478.2802 176.33932 478.2802 178.8246Z" fill-rule="nonzero"/><path fill="lightgrey" clip-path="url(#id_0)" d="M579.0403 178.8246C579.0403 181.30989 577.0255 183.3246 574.5403 183.3246C572.055 183.3246 570.0403 181.30989 570.0403 178.8246C570.0403 176.33932 572.055 174.3246 574.5403 174.3246C577.0255 174.3246 579.0403 176.33932 579.0403 178.8246Z" fill-rule="nonzero"/><path fill="lightgrey" clip-path="url(#id_0)" d="M579.0403 168.80556C579.0403 171.29083 577.0255 173.30556 574.5403 173.30556C572.055 173.30556 570.0403 171.29083 570.0403 168.80556C570.0403 166.32027 572.055 164.30556 574.5403 164.30556C577.0255 164.30556 579.0403 166.32027 579.0403 168.80556Z" fill-rule="nonzero"/><path fill="lightgrey" clip-path="url(#id_0)" d="M553.8502 212.22144C553.8502 214.70671 551.8355 216.72144 549.3502 216.72144C546.865 216.72144 544.8502 214.70671 544.8502 212.22144C544.8502 209.73615 546.865 207.72144 549.3502 207.72144C551.8355 207.72144 553.8502 209.73615 553.8502 212.22144Z" fill-rule="nonzero"/><path fill="lightgrey" clip-path="url(#id_0)" d="M553.8502 152.10715C553.8502 154.59242 551.8355 156.60715 549.3502 156.60715C546.865 156.60715 544.8502 154.59242 544.8502 152.10715C544.8502 149.62186 546.865 147.60715 549.3502 147.60715C551.8355 147.60715 553.8502 149.62186 553.8502 152.10715Z" fill-rule="nonzero"/><path fill="lightgrey" clip-path="url(#id_0)" d="M478.2802 162.12619C478.2802 164.61147 476.2655 166.62619 473.7802 166.62619C471.29492 166.62619 469.2802 164.61147 469.2802 162.12619C469.2802 159.64091 471.29492 157.62619 473.7802 157.62619C476.2655 157.62619 478.2802 159.64091 478.2802 162.12619Z" fill-rule="nonzero"/><path fill="lightgrey" clip-path="url(#id_0)" d="M579.0403 172.14523C579.0403 174.63052 577.0255 176.64523 574.5403 176.64523C572.055 176.64523 570.0403 174.63052 570.0403 172.14523C570.0403 169.65996 572.055 167.64523 574.5403 167.64523C577.0255 167.64523 579.0403 169.65996 579.0403 172.14523Z" fill-rule="nonzero"/><path fill="lightgrey" clip-path="url(#id_0)" d="M251.5701 258.977C251.5701 261.46228 249.55537 263.477 247.0701 263.477C244.58482 263.477 242.5701 261.46228 242.5701 258.977C242.5701 256.4917 244.58482 254.47699 247.0701 254.47699C249.55537 254.47699 251.5701 256.4917 251.5701 258.977Z" fill-rule="nonzero"/><path fill="lightgrey" clip-path="url(#id_0)" d="M579.0403 178.8246C579.0403 181.30989 577.0255 183.3246 574.5403 183.3246C572.055 183.3246 570.0403 181.30989 570.0403 178.8246C570.0403 176.33932 572.055 174.3246 574.5403 174.3246C577.0255 174.3246 579.0403 176.33932 579.0403 178.8246Z" fill-rule="nonzero"/><path fill="lightgrey" clip-path="url(#id_0)" d="M579.0403 135.40874C579.0403 137.89401 577.0255 139.90874 574.5403 139.90874C572.055 139.90874 570.0403 137.89401 570.0403 135.40874C570.0403 132.92345 572.055 130.90874 574.5403 130.90874C577.0255 130.90874 579.0403 132.92345 579.0403 135.40874Z" fill-rule="nonzero"/><path fill="lightgrey" clip-path="url(#id_0)" d="M453.0902 202.20238C453.0902 204.68767 451.07547 206.70238 448.5902 206.70238C446.10492 206.70238 444.0902 204.68767 444.0902 202.20238C444.0902 199.7171 446.10492 197.70238 448.5902 197.70238C451.07547 197.70238 453.0902 199.7171 453.0902 202.20238Z" fill-rule="nonzero"/><path fill="lightgrey" clip-path="url(#id_0)" d="M377.52017 215.56111C377.52017 218.04639 375.50543 220.06111 373.02017 220.06111C370.53488 220.06111 368.52017 218.04639 368.52017 215.56111C368.52017 213.07584 370.53488 211.06111 373.02017 211.06111C375.50543 211.06111 377.52017 213.07584 377.52017 215.56111Z" fill-rule="nonzero"/><path fill="lightgrey" clip-path="url(#id_0)" d="M503.4702 195.52301C503.4702 198.0083 501.4555 200.02301 498.9702 200.02301C496.48492 200.02301 494.4702 198.0083 494.4702 195.52301C494.4702 193.03773 496.48492 191.02301 498.9702 191.02301C501.4555 191.02301 503.4702 193.03773 503.4702 195.52301Z" fill-rule="nonzero"/><path fill="lightgrey" clip-path="url(#id_0)" d="M402.71017 202.20238C402.71017 204.68767 400.69547 206.70238 398.21017 206.70238C395.72488 206.70238 393.71017 204.68767 393.71017 202.20238C393.71017 199.7171 395.72488 197.70238 398.21017 197.70238C400.69547 197.70238 402.71017 199.7171 402.71017 202.20238Z" fill-rule="nonzero"/><path fill="lightgrey" clip-path="url(#id_0)" d="M478.2802 192.18333C478.2802 194.66861 476.2655 196.68333 473.7802 196.68333C471.29492 196.68333 469.2802 194.66861 469.2802 192.18333C469.2802 189.69806 471.29492 187.68333 473.7802 187.68333C476.2655 187.68333 478.2802 189.69806 478.2802 192.18333Z" fill-rule="nonzero"/><path fill="lightgrey" clip-path="url(#id_0)" d="M427.90018 178.8246C427.90018 181.30989 425.88547 183.3246 423.40018 183.3246C420.9149 183.3246 418.90018 181.30989 418.90018 178.8246C418.90018 176.33932 420.9149 174.3246 423.40018 174.3246C425.88547 174.3246 427.90018 176.33932 427.90018 178.8246Z" fill-rule="nonzero"/><path fill="lightgrey" clip-path="url(#id_0)" d="M377.52017 215.56111C377.52017 218.04639 375.50543 220.06111 373.02017 220.06111C370.53488 220.06111 368.52017 218.04639 368.52017 215.56111C368.52017 213.07584 370.53488 211.06111 373.02017 211.06111C375.50543 211.06111 377.52017 213.07584 377.52017 215.56111Z" fill-rule="nonzero"/><path fill="lightgrey" clip-path="url(#id_0)" d="M478.2802 222.24048C478.2802 224.72575 476.2655 226.74048 473.7802 226.74048C471.29492 226.74048 469.2802 224.72575 469.2802 222.24048C469.2802 219.75519 471.29492 217.74048 473.7802 217.74048C476.2655 217.74048 478.2802 219.75519 478.2802 222.24048Z" fill-rule="nonzero"/><path fill="lightgrey" clip-path="url(#id_0)" d="M579.0403 192.18333C579.0403 194.66861 577.0255 196.68333 574.5403 196.68333C572.055 196.68333 570.0403 194.66861 570.0403 192.18333C570.0403 189.69806 572.055 187.68333 574.5403 187.68333C577.0255 187.68333 579.0403 189.69806 579.0403 192.18333Z" fill-rule="nonzero"/><path fill="lightgrey" clip-path="url(#id_0)" d="M553.8502 248.95793C553.8502 251.44322 551.8355 253.45793 549.3502 253.45793C546.865 253.45793 544.8502 251.44322 544.8502 248.95793C544.8502 246.47266 546.865 244.45793 549.3502 244.45793C551.8355 244.45793 553.8502 246.47266 553.8502 248.95793Z" fill-rule="nonzero"/><path fill="lightgrey" clip-path="url(#id_0)" d="M579.0403 158.78651C579.0403 161.27179 577.0255 163.28651 574.5403 163.28651C572.055 163.28651 570.0403 161.27179 570.0403 158.78651C570.0403 156.30122 572.055 154.28651 574.5403 154.28651C577.0255 154.28651 579.0403 156.30122 579.0403 158.78651Z" fill-rule="nonzero"/><path fill="lightgrey" clip-path="url(#id_0)" d="M427.90018 228.91985C427.90018 231.40512 425.88547 233.41985 423.40018 233.41985C420.9149 233.41985 418.90018 231.40512 418.90018 228.91985C418.90018 226.43456 420.9149 224.41985 423.40018 224.41985C425.88547 224.41985 427.90018 226.43456 427.90018 228.91985Z" fill-rule="nonzero"/><path fill="lightgrey" clip-path="url(#id_0)" d="M301.95013 225.58015C301.95013 228.06544 299.9354 230.08015 297.45013 230.08015C294.96484 230.08015 292.95013 228.06544 292.95013 225.58015C292.95013 223.09488 294.96484 221.08015 297.45013 221.08015C299.9354 221.08015 301.95013 223.09488 301.95013 225.58015Z" fill-rule="nonzero"/><path fill="lightgrey" clip-path="url(#id_0)" d="M579.0403 202.20238C579.0403 204.68767 577.0255 206.70238 574.5403 206.70238C572.055 206.70238 570.0403 204.68767 570.0403 202.20238C570.0403 199.7171 572.055 197.70238 574.5403 197.70238C577.0255 197.70238 579.0403 199.7171 579.0403 202.20238Z" fill-rule="nonzero"/><path fill="lightgrey" clip-path="url(#id_0)" d="M553.8502 178.8246C553.8502 181.30989 551.8355 183.3246 549.3502 183.3246C546.865 183.3246 544.8502 181.30989 544.8502 178.8246C544.8502 176.33932 546.865 174.3246 549.3502 174.3246C551.8355 174.3246 553.8502 176.33932 553.8502 178.8246Z" fill-rule="nonzero"/><path fill="lightgrey" clip-path="url(#id_0)" d="M478.2802 222.24048C478.2802 224.72575 476.2655 226.74048 473.7802 226.74048C471.29492 226.74048 469.2802 224.72575 469.2802 222.24048C469.2802 219.75519 471.29492 217.74048 473.7802 217.74048C476.2655 217.74048 478.2802 219.75519 478.2802 222.24048Z" fill-rule="nonzero"/><path fill="lightgrey" clip-path="url(#id_0)" d="M528.6602 218.90079C528.6602 221.38608 526.6455 223.40079 524.1602 223.40079C521.6749 223.40079 519.6602 221.38608 519.6602 218.90079C519.6602 216.41551 521.6749 214.40079 524.1602 214.40079C526.6455 214.40079 528.6602 216.41551 528.6602 218.90079Z" fill-rule="nonzero"/><path fill="lightgrey" clip-path="url(#id_0)" d="M478.2802 205.54207C478.2802 208.02734 476.2655 210.04207 473.7802 210.04207C471.29492 210.04207 469.2802 208.02734 469.2802 205.54207C469.2802 203.05678 471.29492 201.04207 473.7802 201.04207C476.2655 201.04207 478.2802 203.05678 478.2802 205.54207Z" fill-rule="nonzero"/><path fill="lightgrey" clip-path="url(#id_0)" d="M352.33014 202.20238C352.33014 204.68767 350.31543 206.70238 347.83014 206.70238C345.34488 206.70238 343.33014 204.68767 343.33014 202.20238C343.33014 199.7171 345.34488 197.70238 347.83014 197.70238C350.31543 197.70238 352.33014 199.7171 352.33014 202.20238Z" fill-rule="nonzero"/><path fill="lightgrey" clip-path="url(#id_0)" d="M402.71017 218.90079C402.71017 221.38608 400.69547 223.40079 398.21017 223.40079C395.72488 223.40079 393.71017 221.38608 393.71017 218.90079C393.71017 216.41551 395.72488 214.40079 398.21017 214.40079C400.69547 214.40079 402.71017 216.41551 402.71017 218.90079Z" fill-rule="nonzero"/><path fill="lightgrey" clip-path="url(#id_0)" d="M579.0403 148.76746C579.0403 151.25275 577.0255 153.26746 574.5403 153.26746C572.055 153.26746 570.0403 151.25275 570.0403 148.76746C570.0403 146.28218 572.055 144.26746 574.5403 144.26746C577.0255 144.26746 579.0403 146.28218 579.0403 148.76746Z" fill-rule="nonzero"/><path fill="lightgrey" clip-path="url(#id_0)" d="M528.6602 195.52301C528.6602 198.0083 526.6455 200.02301 524.1602 200.02301C521.6749 200.02301 519.6602 198.0083 519.6602 195.52301C519.6602 193.03773 521.6749 191.02301 524.1602 191.02301C526.6455 191.02301 528.6602 193.03773 528.6602 195.52301Z" fill-rule="nonzero"/><path fill="lightgrey" clip-path="url(#id_0)" d="M579.0403 175.48492C579.0403 177.9702 577.0255 179.98492 574.5403 179.98492C572.055 179.98492 570.0403 177.9702 570.0403 175.48492C570.0403 172.99963 572.055 170.98492 574.5403 170.98492C577.0255 170.98492 579.0403 172.99963 579.0403 175.48492Z" fill-rule="nonzero"/><path fill="lightgrey" clip-path="url(#id_0)" d="M579.0403 202.20238C579.0403 204.68767 577.0255 206.70238 574.5403 206.70238C572.055 206.70238 570.0403 204.68767 570.0403 202.20238C570.0403 199.7171 572.055 197.70238 574.5403 197.70238C577.0255 197.70238 579.0403 199.7171 579.0403 202.20238Z" fill-rule="nonzero"/><path fill="lightgrey" clip-path="url(#id_0)" d="M579.0403 175.48492C579.0403 177.9702 577.0255 179.98492 574.5403 179.98492C572.055 179.98492 570.0403 177.9702 570.0403 175.48492C570.0403 172.99963 572.055 170.98492 574.5403 170.98492C577.0255 170.98492 579.0403 172.99963 579.0403 175.48492Z" fill-rule="nonzero"/><path fill="lightgrey" clip-path="url(#id_0)" d="M528.6602 195.52301C528.6602 198.0083 526.6455 200.02301 524.1602 200.02301C521.6749 200.02301 519.6602 198.0083 519.6602 195.52301C519.6602 193.03773 521.6749 191.02301 524.1602 191.02301C526.6455 191.02301 528.6602 193.03773 528.6602 195.52301Z" fill-rule="nonzero"/><path fill="lightgrey" clip-path="url(#id_0)" d="M553.8502 188.84364C553.8502 191.32893 551.8355 193.34364 549.3502 193.34364C546.865 193.34364 544.8502 191.32893 544.8502 188.84364C544.8502 186.35837 546.865 184.34364 549.3502 184.34364C551.8355 184.34364 553.8502 186.35837 553.8502 188.84364Z" fill-rule="nonzero"/><path fill="lightgrey" clip-path="url(#id_0)" d="M503.4702 238.93889C503.4702 241.42416 501.4555 243.43889 498.9702 243.43889C496.48492 243.43889 494.4702 241.42416 494.4702 238.93889C494.4702 236.45361 496.48492 234.43889 498.9702 234.43889C501.4555 234.43889 503.4702 236.45361 503.4702 238.93889Z" fill-rule="nonzero"/><path fill="#000000" d="M27.01875 336.45L25.971874 336.45L25.971874 329.73126Q25.58125 330.09064 24.95625 330.46564Q24.346874 330.825 23.8625 330.9969L23.8625 329.98126Q24.7375 329.5594 25.39375 328.98126Q26.065624 328.3875 26.346874 327.825L27.01875 327.825L27.01875 336.45ZM30.64375 336.45L30.64375 335.2469L31.846874 335.2469L31.846874 336.45L30.64375 336.45ZM33.05 332.21564Q33.05 330.6844 33.3625 329.7625Q33.675 328.825 34.284374 328.325Q34.909374 327.825 35.846874 327.825Q36.534374 327.825 37.05 328.10626Q37.58125 328.3875 37.925 328.91876Q38.26875 329.4344 38.45625 330.1844Q38.64375 330.9344 38.64375 332.21564Q38.64375 333.73126 38.33125 334.65314Q38.034374 335.575 37.409374 336.09064Q36.8 336.59064 35.846874 336.59064Q34.6125 336.59064 33.89375 335.7Q33.05 334.6375 33.05 332.21564ZM34.128124 332.21564Q34.128124 334.325 34.628124 335.02814Q35.128124 335.73126 35.846874 335.73126Q36.58125 335.73126 37.065624 335.02814Q37.565624 334.325 37.565624 332.21564Q37.565624 330.09064 37.065624 329.40314Q36.58125 328.7 35.83125 328.7Q35.1125 328.7 34.675 329.3094Q34.128124 330.09064 34.128124 332.21564Z" fill-rule="nonzero"/><path fill="#000000" d="M28.596874 265.30106L28.596874 266.31668L22.909374 266.31668Q22.909374 265.94168 23.034374 265.5823Q23.253124 265.00418 23.721874 264.44168Q24.20625 263.87918 25.1125 263.1448Q26.51875 261.98856 27.003124 261.31668Q27.503124 260.6448 27.503124 260.05106Q27.503124 259.42606 27.05 259.00418Q26.596874 258.56668 25.878124 258.56668Q25.1125 258.56668 24.659374 259.0198Q24.20625 259.47293 24.190624 260.28543L23.1125 260.17606Q23.221874 258.9573 23.940624 258.3323Q24.675 257.69168 25.909374 257.69168Q27.14375 257.69168 27.8625 258.37918Q28.58125 259.06668 28.58125 260.0823Q28.58125 260.59793 28.3625 261.09793Q28.159374 261.5823 27.659374 262.1448Q27.175 262.69168 26.05 263.6448Q25.096874 264.44168 24.815624 264.73856Q24.55 265.0198 24.378124 265.30106L28.596874 265.30106ZM30.64375 266.31668L30.64375 265.11356L31.846874 265.11356L31.846874 266.31668L30.64375 266.31668ZM33.05 262.0823Q33.05 260.55106 33.3625 259.62918Q33.675 258.69168 34.284374 258.19168Q34.909374 257.69168 35.846874 257.69168Q36.534374 257.69168 37.05 257.97293Q37.58125 258.25418 37.925 258.78543Q38.26875 259.30106 38.45625 260.05106Q38.64375 260.80106 38.64375 262.0823Q38.64375 263.59793 38.33125 264.5198Q38.034374 265.44168 37.409374 265.9573Q36.8 266.4573 35.846874 266.4573Q34.6125 266.4573 33.89375 265.56668Q33.05 264.50418 33.05 262.0823ZM34.128124 262.0823Q34.128124 264.19168 34.628124 264.8948Q35.128124 265.59793 35.846874 265.59793Q36.58125 265.59793 37.065624 264.8948Q37.565624 264.19168 37.565624 262.0823Q37.565624 259.9573 37.065624 259.2698Q36.58125 258.56668 35.83125 258.56668Q35.1125 258.56668 34.675 259.17606Q34.128124 259.9573 34.128124 262.0823Z" fill-rule="nonzero"/><path fill="#000000" d="M23.05 193.91771L24.1125 193.77708Q24.284374 194.66771 24.721874 195.07396Q25.159374 195.46458 25.784374 195.46458Q26.534374 195.46458 27.05 194.94896Q27.565624 194.43333 27.565624 193.66771Q27.565624 192.94896 27.08125 192.48021Q26.6125 191.99583 25.878124 191.99583Q25.58125 191.99583 25.128124 192.12083L25.253124 191.18333Q25.3625 191.19896 25.425 191.19896Q26.096874 191.19896 26.628124 190.85521Q27.175 190.49583 27.175 189.76146Q27.175 189.18333 26.784374 188.80833Q26.39375 188.41771 25.76875 188.41771Q25.159374 188.41771 24.7375 188.80833Q24.33125 189.19896 24.221874 189.96458L23.159374 189.77708Q23.346874 188.73021 24.034374 188.15208Q24.721874 187.55833 25.7375 187.55833Q26.440624 187.55833 27.034374 187.87083Q27.628124 188.16771 27.940624 188.68333Q28.253124 189.19896 28.253124 189.79271Q28.253124 190.33958 27.95625 190.80833Q27.659374 191.26146 27.08125 191.52708Q27.83125 191.69896 28.253124 192.26146Q28.675 192.80833 28.675 193.65208Q28.675 194.77708 27.846874 195.55833Q27.034374 196.33958 25.784374 196.33958Q24.659374 196.33958 23.909374 195.66771Q23.159374 194.98021 23.05 193.91771ZM30.64375 196.18333L30.64375 194.98021L31.846874 194.98021L31.846874 196.18333L30.64375 196.18333ZM33.05 191.94896Q33.05 190.41771 33.3625 189.49583Q33.675 188.55833 34.284374 188.05833Q34.909374 187.55833 35.846874 187.55833Q36.534374 187.55833 37.05 187.83958Q37.58125 188.12083 37.925 188.65208Q38.26875 189.16771 38.45625 189.91771Q38.64375 190.66771 38.64375 191.94896Q38.64375 193.46458 38.33125 194.38646Q38.034374 195.30833 37.409374 195.82396Q36.8 196.32396 35.846874 196.32396Q34.6125 196.32396 33.89375 195.43333Q33.05 194.37083 33.05 191.94896ZM34.128124 191.94896Q34.128124 194.05833 34.628124 194.76146Q35.128124 195.46458 35.846874 195.46458Q36.58125 195.46458 37.065624 194.76146Q37.565624 194.05833 37.565624 191.94896Q37.565624 189.82396 37.065624 189.13646Q36.58125 188.43333 35.83125 188.43333Q35.1125 188.43333 34.675 189.04271Q34.128124 189.82396 34.128124 191.94896Z" fill-rule="nonzero"/><path fill="#000000" d="M26.425 126.05L26.425 123.9875L22.70625 123.9875L22.70625 123.01875L26.628124 117.45625L27.4875 117.45625L27.4875 123.01875L28.64375 123.01875L28.64375 123.9875L27.4875 123.9875L27.4875 126.05L26.425 126.05ZM26.425 123.01875L26.425 119.15938L23.7375 123.01875L26.425 123.01875ZM30.64375 126.05L30.64375 124.84688L31.846874 124.84688L31.846874 126.05L30.64375 126.05ZM33.05 121.81563Q33.05 120.28438 33.3625 119.3625Q33.675 118.425 34.284374 117.925Q34.909374 117.425 35.846874 117.425Q36.534374 117.425 37.05 117.70625Q37.58125 117.9875 37.925 118.51875Q38.26875 119.03438 38.45625 119.78438Q38.64375 120.53438 38.64375 121.81563Q38.64375 123.33125 38.33125 124.25313Q38.034374 125.175 37.409374 125.69063Q36.8 126.19063 35.846874 126.19063Q34.6125 126.19063 33.89375 125.3Q33.05 124.2375 33.05 121.81563ZM34.128124 121.81563Q34.128124 123.925 34.628124 124.62813Q35.128124 125.33125 35.846874 125.33125Q36.58125 125.33125 37.065624 124.62813Q37.565624 123.925 37.565624 121.81563Q37.565624 119.69063 37.065624 119.00313Q36.58125 118.3 35.83125 118.3Q35.1125 118.3 34.675 118.90938Q34.128124 119.69063 34.128124 121.81563Z" fill-rule="nonzero"/><path fill="#000000" d="M23.05 53.666668L24.159374 53.572918Q24.284374 54.385418 24.721874 54.791668Q25.175 55.197918 25.815624 55.197918Q26.565624 55.197918 27.096874 54.619793Q27.628124 54.041668 27.628124 53.104168Q27.628124 52.197918 27.1125 51.682293Q26.6125 51.151043 25.784374 51.151043Q25.284374 51.151043 24.8625 51.385418Q24.45625 51.619793 24.221874 51.979168L23.2375 51.854168L24.065624 47.447918L28.346874 47.447918L28.346874 48.447918L24.909374 48.447918L24.45625 50.760418Q25.221874 50.213543 26.065624 50.213543Q27.190624 50.213543 27.95625 50.994793Q28.7375 51.776043 28.7375 53.010418Q28.7375 54.166668 28.065624 55.026043Q27.2375 56.057293 25.815624 56.057293Q24.64375 56.057293 23.89375 55.401043Q23.159374 54.744793 23.05 53.666668ZM30.64375 55.916668L30.64375 54.713543L31.846874 54.713543L31.846874 55.916668L30.64375 55.916668ZM33.05 51.682293Q33.05 50.151043 33.3625 49.229168Q33.675 48.291668 34.284374 47.791668Q34.909374 47.291668 35.846874 47.291668Q36.534374 47.291668 37.05 47.572918Q37.58125 47.854168 37.925 48.385418Q38.26875 48.901043 38.45625 49.651043Q38.64375 50.401043 38.64375 51.682293Q38.64375 53.197918 38.33125 54.119793Q38.034374 55.041668 37.409374 55.557293Q36.8 56.057293 35.846874 56.057293Q34.6125 56.057293 33.89375 55.166668Q33.05 54.104168 33.05 51.682293ZM34.128124 51.682293Q34.128124 53.791668 34.628124 54.494793Q35.128124 55.197918 35.846874 55.197918Q36.58125 55.197918 37.065624 54.494793Q37.565624 53.791668 37.565624 51.682293Q37.565624 49.557293 37.065624 48.869793Q36.58125 48.166668 35.83125 48.166668Q35.1125 48.166668 34.675 48.776043Q34.128124 49.557293 34.128124 51.682293Z" fill-rule="nonzero"/><path fill="#000000" d="M28.55 345.21564Q28.55 343.6844 28.8625 342.7625Q29.175 341.825 29.784374 341.325Q30.409374 340.825 31.346874 340.825Q32.034374 340.825 32.55 341.10626Q33.08125 341.3875 33.425 341.91876Q33.76875 342.4344 33.95625 343.1844Q34.14375 343.9344 34.14375 345.21564Q34.14375 346.73126 33.83125 347.65314Q33.534374 348.575 32.909374 349.09064Q32.3 349.59064 31.346874 349.59064Q30.1125 349.59064 29.39375 348.7Q28.55 347.6375 28.55 345.21564ZM29.628124 345.21564Q29.628124 347.325 30.128124 348.02814Q30.628124 348.73126 31.346874 348.73126Q32.08125 348.73126 32.565624 348.02814Q33.065624 347.325 33.065624 345.21564Q33.065624 343.09064 32.565624 342.40314Q32.08125 341.7 31.33125 341.7Q30.6125 341.7 30.175 342.3094Q29.628124 343.09064 29.628124 345.21564ZM36.14375 349.45L36.14375 348.2469L37.346874 348.2469L37.346874 349.45L36.14375 349.45ZM38.55 345.21564Q38.55 343.6844 38.8625 342.7625Q39.175 341.825 39.784374 341.325Q40.409374 340.825 41.346874 340.825Q42.034374 340.825 42.55 341.10626Q43.08125 341.3875 43.425 341.91876Q43.76875 342.4344 43.95625 343.1844Q44.14375 343.9344 44.14375 345.21564Q44.14375 346.73126 43.83125 347.65314Q43.534374 348.575 42.909374 349.09064Q42.3 349.59064 41.346874 349.59064Q40.1125 349.59064 39.39375 348.7Q38.55 347.6375 38.55 345.21564ZM39.628124 345.21564Q39.628124 347.325 40.128124 348.02814Q40.628124 348.73126 41.346874 348.73126Q42.08125 348.73126 42.565624 348.02814Q43.065624 347.325 43.065624 345.21564Q43.065624 343.09064 42.565624 342.40314Q42.08125 341.7 41.33125 341.7Q40.6125 341.7 40.175 342.3094Q39.628124 343.09064 39.628124 345.21564ZM45.55 345.21564Q45.55 343.6844 45.8625 342.7625Q46.175 341.825 46.784374 341.325Q47.409374 340.825 48.346874 340.825Q49.034374 340.825 49.55 341.10626Q50.08125 341.3875 50.425 341.91876Q50.76875 342.4344 50.95625 343.1844Q51.14375 343.9344 51.14375 345.21564Q51.14375 346.73126 50.83125 347.65314Q50.534374 348.575 49.909374 349.09064Q49.3 349.59064 48.346874 349.59064Q47.1125 349.59064 46.39375 348.7Q45.55 347.6375 45.55 345.21564ZM46.628124 345.21564Q46.628124 347.325 47.128124 348.02814Q47.628124 348.73126 48.346874 348.73126Q49.08125 348.73126 49.565624 348.02814Q50.065624 347.325 50.065624 345.21564Q50.065624 343.09064 49.565624 342.40314Q49.08125 341.7 48.33125 341.7Q47.6125 341.7 47.175 342.3094Q46.628124 343.09064 46.628124 345.21564ZM52.753124 342.91876Q52.753124 341.9969 53.20625 341.35626Q53.675 340.71564 54.55 340.71564Q55.3625 340.71564 55.89375 341.29376Q56.425 341.8719 56.425 342.98126Q56.425 344.075 55.878124 344.66876Q55.346874 345.2469 54.565624 345.2469Q53.784374 345.2469 53.26875 344.66876Q52.753124 344.09064 52.753124 342.91876ZM54.58125 341.4344Q54.190624 341.4344 53.925 341.77814Q53.675 342.1219 53.675 343.02814Q53.675 343.85626 53.925 344.2Q54.190624 344.52814 54.58125 344.52814Q54.9875 344.52814 55.2375 344.1844Q55.503124 343.84064 55.503124 342.95Q55.503124 342.10626 55.2375 341.77814Q54.971874 341.4344 54.58125 341.4344ZM54.58125 349.7625L59.284374 340.71564L60.14375 340.71564L55.45625 349.7625L54.58125 349.7625ZM58.3 347.4344Q58.3 346.5125 58.753124 345.8719Q59.221874 345.23126 60.1125 345.23126Q60.925 345.23126 61.45625 345.8094Q61.9875 346.3719 61.9875 347.4969Q61.9875 348.59064 61.440624 349.1844Q60.909374 349.7625 60.1125 349.7625Q59.346874 349.7625 58.815624 349.1844Q58.3 348.60626 58.3 347.4344ZM60.14375 345.95Q59.7375 345.95 59.471874 346.29376Q59.221874 346.6375 59.221874 347.54376Q59.221874 348.35626 59.4875 348.7Q59.753124 349.04376 60.14375 349.04376Q60.534374 349.04376 60.8 348.7Q61.065624 348.35626 61.065624 347.45Q61.065624 346.6219 60.8 346.29376Q60.534374 345.95 60.14375 345.95Z" fill-rule="nonzero"/><path fill="#000000" d="M162.84444 348.4344L162.84444 349.45L157.15694 349.45Q157.15694 349.075 157.28194 348.71564Q157.50069 348.1375 157.96944 347.575Q158.45381 347.0125 159.36006 346.27814Q160.76631 345.1219 161.25069 344.45Q161.75069 343.77814 161.75069 343.1844Q161.75069 342.5594 161.29756 342.1375Q160.84444 341.7 160.12569 341.7Q159.36006 341.7 158.90694 342.15314Q158.45381 342.60626 158.43819 343.41876L157.36006 343.3094Q157.46944 342.09064 158.18819 341.46564Q158.92256 340.825 160.15694 340.825Q161.39131 340.825 162.11006 341.5125Q162.82881 342.2 162.82881 343.21564Q162.82881 343.73126 162.61006 344.23126Q162.40694 344.71564 161.90694 345.27814Q161.42256 345.825 160.29756 346.77814Q159.34444 347.575 159.06319 347.8719Q158.79756 348.15314 158.62569 348.4344L162.84444 348.4344ZM164.29756 347.2L165.40694 347.10626Q165.53194 347.91876 165.96944 348.325Q166.42256 348.73126 167.06319 348.73126Q167.81319 348.73126 168.34444 348.15314Q168.87569 347.575 168.87569 346.6375Q168.87569 345.73126 168.36006 345.21564Q167.86006 344.6844 167.03194 344.6844Q166.53194 344.6844 166.11006 344.91876Q165.70381 345.15314 165.46944 345.5125L164.48506 345.3875L165.31319 340.98126L169.59444 340.98126L169.59444 341.98126L166.15694 341.98126L165.70381 344.29376Q166.46944 343.7469 167.31319 343.7469Q168.43819 343.7469 169.20381 344.52814Q169.98506 345.3094 169.98506 346.54376Q169.98506 347.7 169.31319 348.5594Q168.48506 349.59064 167.06319 349.59064Q165.89131 349.59064 165.14131 348.9344Q164.40694 348.27814 164.29756 347.2ZM171.89131 349.45L171.89131 348.2469L173.09444 348.2469L173.09444 349.45L171.89131 349.45ZM174.29756 345.21564Q174.29756 343.6844 174.61006 342.7625Q174.92256 341.825 175.53194 341.325Q176.15694 340.825 177.09444 340.825Q177.78194 340.825 178.29756 341.10626Q178.82881 341.3875 179.17256 341.91876Q179.51631 342.4344 179.70381 343.1844Q179.89131 343.9344 179.89131 345.21564Q179.89131 346.73126 179.57881 347.65314Q179.28194 348.575 178.65694 349.09064Q178.04756 349.59064 177.09444 349.59064Q175.86006 349.59064 175.14131 348.7Q174.29756 347.6375 174.29756 345.21564ZM175.37569 345.21564Q175.37569 347.325 175.87569 348.02814Q176.37569 348.73126 177.09444 348.73126Q177.82881 348.73126 178.31319 348.02814Q178.81319 347.325 178.81319 345.21564Q178.81319 343.09064 178.31319 342.40314Q177.82881 341.7 177.07881 341.7Q176.36006 341.7 175.92256 342.3094Q175.37569 343.09064 175.37569 345.21564ZM181.29756 345.21564Q181.29756 343.6844 181.61006 342.7625Q181.92256 341.825 182.53194 341.325Q183.15694 340.825 184.09444 340.825Q184.78194 340.825 185.29756 341.10626Q185.82881 341.3875 186.17256 341.91876Q186.51631 342.4344 186.70381 343.1844Q186.89131 343.9344 186.89131 345.21564Q186.89131 346.73126 186.57881 347.65314Q186.28194 348.575 185.65694 349.09064Q185.04756 349.59064 184.09444 349.59064Q182.86006 349.59064 182.14131 348.7Q181.29756 347.6375 181.29756 345.21564ZM182.37569 345.21564Q182.37569 347.325 182.87569 348.02814Q183.37569 348.73126 184.09444 348.73126Q184.82881 348.73126 185.31319 348.02814Q185.81319 347.325 185.81319 345.21564Q185.81319 343.09064 185.31319 342.40314Q184.82881 341.7 184.07881 341.7Q183.36006 341.7 182.92256 342.3094Q182.37569 343.09064 182.37569 345.21564ZM188.50069 342.91876Q188.50069 341.9969 188.95381 341.35626Q189.42256 340.71564 190.29756 340.71564Q191.11006 340.71564 191.64131 341.29376Q192.17256 341.8719 192.17256 342.98126Q192.17256 344.075 191.62569 344.66876Q191.09444 345.2469 190.31319 345.2469Q189.53194 345.2469 189.01631 344.66876Q188.50069 344.09064 188.50069 342.91876ZM190.32881 341.4344Q189.93819 341.4344 189.67256 341.77814Q189.42256 342.1219 189.42256 343.02814Q189.42256 343.85626 189.67256 344.2Q189.93819 344.52814 190.32881 344.52814Q190.73506 344.52814 190.98506 344.1844Q191.25069 343.84064 191.25069 342.95Q191.25069 342.10626 190.98506 341.77814Q190.71944 341.4344 190.32881 341.4344ZM190.32881 349.7625L195.03194 340.71564L195.89131 340.71564L191.20381 349.7625L190.32881 349.7625ZM194.04756 347.4344Q194.04756 346.5125 194.50069 345.8719Q194.96944 345.23126 195.86006 345.23126Q196.67256 345.23126 197.20381 345.8094Q197.73506 346.3719 197.73506 347.4969Q197.73506 348.59064 197.18819 349.1844Q196.65694 349.7625 195.86006 349.7625Q195.09444 349.7625 194.56319 349.1844Q194.04756 348.60626 194.04756 347.4344ZM195.89131 345.95Q195.48506 345.95 195.21944 346.29376Q194.96944 346.6375 194.96944 347.54376Q194.96944 348.35626 195.23506 348.7Q195.50069 349.04376 195.89131 349.04376Q196.28194 349.04376 196.54756 348.7Q196.81319 348.35626 196.81319 347.45Q196.81319 346.6219 196.54756 346.29376Q196.28194 345.95 195.89131 345.95Z" fill-rule="nonzero"/><path fill="#000000" d="M289.54514 347.2L290.6545 347.10626Q290.7795 347.91876 291.217 348.325Q291.67014 348.73126 292.31076 348.73126Q293.06076 348.73126 293.592 348.15314Q294.12326 347.575 294.12326 346.6375Q294.12326 345.73126 293.60764 345.21564Q293.10764 344.6844 292.2795 344.6844Q291.7795 344.6844 291.35764 344.91876Q290.9514 345.15314 290.717 345.5125L289.73264 345.3875L290.56076 340.98126L294.842 340.98126L294.842 341.98126L291.4045 341.98126L290.9514 344.29376Q291.717 343.7469 292.56076 343.7469Q293.68576 343.7469 294.4514 344.52814Q295.23264 345.3094 295.23264 346.54376Q295.23264 347.7 294.56076 348.5594Q293.73264 349.59064 292.31076 349.59064Q291.1389 349.59064 290.3889 348.9344Q289.6545 348.27814 289.54514 347.2ZM296.54514 345.21564Q296.54514 343.6844 296.85764 342.7625Q297.17014 341.825 297.7795 341.325Q298.4045 340.825 299.342 340.825Q300.0295 340.825 300.54514 341.10626Q301.0764 341.3875 301.42014 341.91876Q301.7639 342.4344 301.9514 343.1844Q302.1389 343.9344 302.1389 345.21564Q302.1389 346.73126 301.8264 347.65314Q301.5295 348.575 300.9045 349.09064Q300.29514 349.59064 299.342 349.59064Q298.10764 349.59064 297.3889 348.7Q296.54514 347.6375 296.54514 345.21564ZM297.62326 345.21564Q297.62326 347.325 298.12326 348.02814Q298.62326 348.73126 299.342 348.73126Q300.0764 348.73126 300.56076 348.02814Q301.06076 347.325 301.06076 345.21564Q301.06076 343.09064 300.56076 342.40314Q300.0764 341.7 299.3264 341.7Q298.60764 341.7 298.17014 342.3094Q297.62326 343.09064 297.62326 345.21564ZM304.1389 349.45L304.1389 348.2469L305.342 348.2469L305.342 349.45L304.1389 349.45ZM306.54514 345.21564Q306.54514 343.6844 306.85764 342.7625Q307.17014 341.825 307.7795 341.325Q308.4045 340.825 309.342 340.825Q310.0295 340.825 310.54514 341.10626Q311.0764 341.3875 311.42014 341.91876Q311.7639 342.4344 311.9514 343.1844Q312.1389 343.9344 312.1389 345.21564Q312.1389 346.73126 311.8264 347.65314Q311.5295 348.575 310.9045 349.09064Q310.29514 349.59064 309.342 349.59064Q308.10764 349.59064 307.3889 348.7Q306.54514 347.6375 306.54514 345.21564ZM307.62326 345.21564Q307.62326 347.325 308.12326 348.02814Q308.62326 348.73126 309.342 348.73126Q310.0764 348.73126 310.56076 348.02814Q311.06076 347.325 311.06076 345.21564Q311.06076 343.09064 310.56076 342.40314Q310.0764 341.7 309.3264 341.7Q308.60764 341.7 308.17014 342.3094Q307.62326 343.09064 307.62326 345.21564ZM313.54514 345.21564Q313.54514 343.6844 313.85764 342.7625Q314.17014 341.825 314.7795 341.325Q315.4045 340.825 316.342 340.825Q317.0295 340.825 317.54514 341.10626Q318.0764 341.3875 318.42014 341.91876Q318.7639 342.4344 318.9514 343.1844Q319.1389 343.9344 319.1389 345.21564Q319.1389 346.73126 318.8264 347.65314Q318.5295 348.575 317.9045 349.09064Q317.29514 349.59064 316.342 349.59064Q315.10764 349.59064 314.3889 348.7Q313.54514 347.6375 313.54514 345.21564ZM314.62326 345.21564Q314.62326 347.325 315.12326 348.02814Q315.62326 348.73126 316.342 348.73126Q317.0764 348.73126 317.56076 348.02814Q318.06076 347.325 318.06076 345.21564Q318.06076 343.09064 317.56076 342.40314Q317.0764 341.7 316.3264 341.7Q315.60764 341.7 315.17014 342.3094Q314.62326 343.09064 314.62326 345.21564ZM320.74826 342.91876Q320.74826 341.9969 321.2014 341.35626Q321.67014 340.71564 322.54514 340.71564Q323.35764 340.71564 323.8889 341.29376Q324.42014 341.8719 324.42014 342.98126Q324.42014 344.075 323.87326 344.66876Q323.342 345.2469 322.56076 345.2469Q321.7795 345.2469 321.2639 344.66876Q320.74826 344.09064 320.74826 342.91876ZM322.5764 341.4344Q322.18576 341.4344 321.92014 341.77814Q321.67014 342.1219 321.67014 343.02814Q321.67014 343.85626 321.92014 344.2Q322.18576 344.52814 322.5764 344.52814Q322.98264 344.52814 323.23264 344.1844Q323.49826 343.84064 323.49826 342.95Q323.49826 342.10626 323.23264 341.77814Q322.967 341.4344 322.5764 341.4344ZM322.5764 349.7625L327.2795 340.71564L328.1389 340.71564L323.4514 349.7625L322.5764 349.7625ZM326.29514 347.4344Q326.29514 346.5125 326.74826 345.8719Q327.217 345.23126 328.10764 345.23126Q328.92014 345.23126 329.4514 345.8094Q329.98264 346.3719 329.98264 347.4969Q329.98264 348.59064 329.43576 349.1844Q328.9045 349.7625 328.10764 349.7625Q327.342 349.7625 326.81076 349.1844Q326.29514 348.60626 326.29514 347.4344ZM328.1389 345.95Q327.73264 345.95 327.467 346.29376Q327.217 346.6375 327.217 347.54376Q327.217 348.35626 327.48264 348.7Q327.74826 349.04376 328.1389 349.04376Q328.5295 349.04376 328.79514 348.7Q329.06076 348.35626 329.06076 347.45Q329.06076 346.6219 328.79514 346.29376Q328.5295 345.95 328.1389 345.95Z" fill-rule="nonzero"/><path fill="#000000" d="M421.8552 341.98126L421.8552 340.96564L427.4177 340.96564L427.4177 341.79376Q426.6052 342.66876 425.7927 344.1219Q424.99582 345.5594 424.55832 347.09064Q424.2302 348.16876 424.15207 349.45L423.05832 349.45Q423.07394 348.4344 423.44894 346.9969Q423.83957 345.5594 424.5427 344.23126Q425.26144 342.90314 426.07394 341.98126L421.8552 341.98126ZM428.7927 347.2L429.90207 347.10626Q430.02707 347.91876 430.46457 348.325Q430.9177 348.73126 431.55832 348.73126Q432.30832 348.73126 432.83957 348.15314Q433.37082 347.575 433.37082 346.6375Q433.37082 345.73126 432.8552 345.21564Q432.3552 344.6844 431.52707 344.6844Q431.02707 344.6844 430.6052 344.91876Q430.19894 345.15314 429.96457 345.5125L428.9802 345.3875L429.80832 340.98126L434.08957 340.98126L434.08957 341.98126L430.65207 341.98126L430.19894 344.29376Q430.96457 343.7469 431.80832 343.7469Q432.93332 343.7469 433.69894 344.52814Q434.4802 345.3094 434.4802 346.54376Q434.4802 347.7 433.80832 348.5594Q432.9802 349.59064 431.55832 349.59064Q430.38644 349.59064 429.63644 348.9344Q428.90207 348.27814 428.7927 347.2ZM436.38644 349.45L436.38644 348.2469L437.58957 348.2469L437.58957 349.45L436.38644 349.45ZM438.7927 345.21564Q438.7927 343.6844 439.1052 342.7625Q439.4177 341.825 440.02707 341.325Q440.65207 340.825 441.58957 340.825Q442.27707 340.825 442.7927 341.10626Q443.32394 341.3875 443.6677 341.91876Q444.01144 342.4344 444.19894 343.1844Q444.38644 343.9344 444.38644 345.21564Q444.38644 346.73126 444.07394 347.65314Q443.77707 348.575 443.15207 349.09064Q442.5427 349.59064 441.58957 349.59064Q440.3552 349.59064 439.63644 348.7Q438.7927 347.6375 438.7927 345.21564ZM439.87082 345.21564Q439.87082 347.325 440.37082 348.02814Q440.87082 348.73126 441.58957 348.73126Q442.32394 348.73126 442.80832 348.02814Q443.30832 347.325 443.30832 345.21564Q443.30832 343.09064 442.80832 342.40314Q442.32394 341.7 441.57394 341.7Q440.8552 341.7 440.4177 342.3094Q439.87082 343.09064 439.87082 345.21564ZM445.7927 345.21564Q445.7927 343.6844 446.1052 342.7625Q446.4177 341.825 447.02707 341.325Q447.65207 340.825 448.58957 340.825Q449.27707 340.825 449.7927 341.10626Q450.32394 341.3875 450.6677 341.91876Q451.01144 342.4344 451.19894 343.1844Q451.38644 343.9344 451.38644 345.21564Q451.38644 346.73126 451.07394 347.65314Q450.77707 348.575 450.15207 349.09064Q449.5427 349.59064 448.58957 349.59064Q447.3552 349.59064 446.63644 348.7Q445.7927 347.6375 445.7927 345.21564ZM446.87082 345.21564Q446.87082 347.325 447.37082 348.02814Q447.87082 348.73126 448.58957 348.73126Q449.32394 348.73126 449.80832 348.02814Q450.30832 347.325 450.30832 345.21564Q450.30832 343.09064 449.80832 342.40314Q449.32394 341.7 448.57394 341.7Q447.8552 341.7 447.4177 342.3094Q446.87082 343.09064 446.87082 345.21564ZM452.99582 342.91876Q452.99582 341.9969 453.44894 341.35626Q453.9177 340.71564 454.7927 340.71564Q455.6052 340.71564 456.13644 341.29376Q456.6677 341.8719 456.6677 342.98126Q456.6677 344.075 456.12082 344.66876Q455.58957 345.2469 454.80832 345.2469Q454.02707 345.2469 453.51144 344.66876Q452.99582 344.09064 452.99582 342.91876ZM454.82394 341.4344Q454.43332 341.4344 454.1677 341.77814Q453.9177 342.1219 453.9177 343.02814Q453.9177 343.85626 454.1677 344.2Q454.43332 344.52814 454.82394 344.52814Q455.2302 344.52814 455.4802 344.1844Q455.74582 343.84064 455.74582 342.95Q455.74582 342.10626 455.4802 341.77814Q455.21457 341.4344 454.82394 341.4344ZM454.82394 349.7625L459.52707 340.71564L460.38644 340.71564L455.69894 349.7625L454.82394 349.7625ZM458.5427 347.4344Q458.5427 346.5125 458.99582 345.8719Q459.46457 345.23126 460.3552 345.23126Q461.1677 345.23126 461.69894 345.8094Q462.2302 346.3719 462.2302 347.4969Q462.2302 348.59064 461.68332 349.1844Q461.15207 349.7625 460.3552 349.7625Q459.58957 349.7625 459.05832 349.1844Q458.5427 348.60626 458.5427 347.4344ZM460.38644 345.95Q459.9802 345.95 459.71457 346.29376Q459.46457 346.6375 459.46457 347.54376Q459.46457 348.35626 459.7302 348.7Q459.99582 349.04376 460.38644 349.04376Q460.77707 349.04376 461.0427 348.7Q461.30832 348.35626 461.30832 347.45Q461.30832 346.6219 461.0427 346.29376Q460.77707 345.95 460.38644 345.95Z" fill-rule="nonzero"/><path fill="#000000" d="M554.50903 349.45L553.46216 349.45L553.46216 342.73126Q553.07153 343.09064 552.44653 343.46564Q551.83716 343.825 551.3528 343.9969L551.3528 342.98126Q552.2278 342.5594 552.88403 341.98126Q553.5559 341.3875 553.83716 340.825L554.50903 340.825L554.50903 349.45ZM557.5403 345.21564Q557.5403 343.6844 557.8528 342.7625Q558.1653 341.825 558.77466 341.325Q559.39966 340.825 560.33716 340.825Q561.02466 340.825 561.5403 341.10626Q562.07153 341.3875 562.4153 341.91876Q562.75903 342.4344 562.94653 343.1844Q563.13403 343.9344 563.13403 345.21564Q563.13403 346.73126 562.82153 347.65314Q562.52466 348.575 561.89966 349.09064Q561.2903 349.59064 560.33716 349.59064Q559.1028 349.59064 558.38403 348.7Q557.5403 347.6375 557.5403 345.21564ZM558.6184 345.21564Q558.6184 347.325 559.1184 348.02814Q559.6184 348.73126 560.33716 348.73126Q561.07153 348.73126 561.5559 348.02814Q562.0559 347.325 562.0559 345.21564Q562.0559 343.09064 561.5559 342.40314Q561.07153 341.7 560.32153 341.7Q559.6028 341.7 559.1653 342.3094Q558.6184 343.09064 558.6184 345.21564ZM564.5403 345.21564Q564.5403 343.6844 564.8528 342.7625Q565.1653 341.825 565.77466 341.325Q566.39966 340.825 567.33716 340.825Q568.02466 340.825 568.5403 341.10626Q569.07153 341.3875 569.4153 341.91876Q569.75903 342.4344 569.94653 343.1844Q570.13403 343.9344 570.13403 345.21564Q570.13403 346.73126 569.82153 347.65314Q569.52466 348.575 568.89966 349.09064Q568.2903 349.59064 567.33716 349.59064Q566.1028 349.59064 565.38403 348.7Q564.5403 347.6375 564.5403 345.21564ZM565.6184 345.21564Q565.6184 347.325 566.1184 348.02814Q566.6184 348.73126 567.33716 348.73126Q568.07153 348.73126 568.5559 348.02814Q569.0559 347.325 569.0559 345.21564Q569.0559 343.09064 568.5559 342.40314Q568.07153 341.7 567.32153 341.7Q566.6028 341.7 566.1653 342.3094Q565.6184 343.09064 565.6184 345.21564ZM572.13403 349.45L572.13403 348.2469L573.33716 348.2469L573.33716 349.45L572.13403 349.45ZM574.5403 345.21564Q574.5403 343.6844 574.8528 342.7625Q575.1653 341.825 575.77466 341.325Q576.39966 340.825 577.33716 340.825Q578.02466 340.825 578.5403 341.10626Q579.07153 341.3875 579.4153 341.91876Q579.75903 342.4344 579.94653 343.1844Q580.13403 343.9344 580.13403 345.21564Q580.13403 346.73126 579.82153 347.65314Q579.52466 348.575 578.89966 349.09064Q578.2903 349.59064 577.33716 349.59064Q576.1028 349.59064 575.38403 348.7Q574.5403 347.6375 574.5403 345.21564ZM575.6184 345.21564Q575.6184 347.325 576.1184 348.02814Q576.6184 348.73126 577.33716 348.73126Q578.07153 348.73126 578.5559 348.02814Q579.0559 347.325 579.0559 345.21564Q579.0559 343.09064 578.5559 342.40314Q578.07153 341.7 577.32153 341.7Q576.6028 341.7 576.1653 342.3094Q575.6184 343.09064 575.6184 345.21564ZM581.5403 345.21564Q581.5403 343.6844 581.8528 342.7625Q582.1653 341.825 582.77466 341.325Q583.39966 340.825 584.33716 340.825Q585.02466 340.825 585.5403 341.10626Q586.07153 341.3875 586.4153 341.91876Q586.75903 342.4344 586.94653 343.1844Q587.13403 343.9344 587.13403 345.21564Q587.13403 346.73126 586.82153 347.65314Q586.52466 348.575 585.89966 349.09064Q585.2903 349.59064 584.33716 349.59064Q583.1028 349.59064 582.38403 348.7Q581.5403 347.6375 581.5403 345.21564ZM582.6184 345.21564Q582.6184 347.325 583.1184 348.02814Q583.6184 348.73126 584.33716 348.73126Q585.07153 348.73126 585.5559 348.02814Q586.0559 347.325 586.0559 345.21564Q586.0559 343.09064 585.5559 342.40314Q585.07153 341.7 584.32153 341.7Q583.6028 341.7 583.1653 342.3094Q582.6184 343.09064 582.6184 345.21564ZM588.7434 342.91876Q588.7434 341.9969 589.19653 341.35626Q589.6653 340.71564 590.5403 340.71564Q591.3528 340.71564 591.88403 341.29376Q592.4153 341.8719 592.4153 342.98126Q592.4153 344.075 591.8684 344.66876Q591.33716 345.2469 590.5559 345.2469Q589.77466 345.2469 589.25903 344.66876Q588.7434 344.09064 588.7434 342.91876ZM590.57153 341.4344Q590.1809 341.4344 589.9153 341.77814Q589.6653 342.1219 589.6653 343.02814Q589.6653 343.85626 589.9153 344.2Q590.1809 344.52814 590.57153 344.52814Q590.9778 344.52814 591.2278 344.1844Q591.4934 343.84064 591.4934 342.95Q591.4934 342.10626 591.2278 341.77814Q590.96216 341.4344 590.57153 341.4344ZM590.57153 349.7625L595.27466 340.71564L596.13403 340.71564L591.44653 349.7625L590.57153 349.7625ZM594.2903 347.4344Q594.2903 346.5125 594.7434 345.8719Q595.21216 345.23126 596.1028 345.23126Q596.9153 345.23126 597.44653 345.8094Q597.9778 346.3719 597.9778 347.4969Q597.9778 348.59064 597.4309 349.1844Q596.89966 349.7625 596.1028 349.7625Q595.33716 349.7625 594.8059 349.1844Q594.2903 348.60626 594.2903 347.4344ZM596.13403 345.95Q595.7278 345.95 595.46216 346.29376Q595.21216 346.6375 595.21216 347.54376Q595.21216 348.35626 595.4778 348.7Q595.7434 349.04376 596.13403 349.04376Q596.52466 349.04376 596.7903 348.7Q597.0559 348.35626 597.0559 347.45Q597.0559 346.6219 596.7903 346.29376Q596.52466 345.95 596.13403 345.95Z" fill-rule="nonzero"/><path fill="lightgrey" d="M118.0 25.55C118.0 28.863708 115.313705 31.55 112.0 31.55C108.686295 31.55 106.0 28.863708 106.0 25.55C106.0 22.236292 108.686295 19.55 112.0 19.55C115.313705 19.55 118.0 22.236292 118.0 25.55Z" fill-rule="nonzero"/><path fill="#1a1a1a" d="M129.375 29.55L126.046875 20.95625L127.28125 20.95625L129.51562 27.20625Q129.78125 27.95625 129.96875 28.6125Q130.17188 27.909374 130.4375 27.20625L132.75 20.95625L133.90625 20.95625L130.54688 29.55L129.375 29.55ZM133.79688 22.175L133.79688 20.95625L134.85938 20.95625L134.85938 22.175L133.79688 22.175ZM133.79688 29.55L133.79688 23.33125L134.85938 23.33125L134.85938 29.55L133.79688 29.55ZM136.375 27.690624L137.40625 27.534374Q137.5 28.159374 137.89062 28.4875Q138.29688 28.815624 139.03125 28.815624Q139.75 28.815624 140.09375 28.534374Q140.45312 28.2375 140.45312 27.83125Q140.45312 27.471874 140.14062 27.26875Q139.92188 27.128124 139.0625 26.909374Q137.90625 26.6125 137.45312 26.409374Q137.01562 26.190624 136.78125 25.815624Q136.54688 25.440624 136.54688 24.971874Q136.54688 24.565624 136.73438 24.20625Q136.92188 23.846874 137.25 23.6125Q137.5 23.440624 137.92188 23.315624Q138.34375 23.190624 138.84375 23.190624Q139.5625 23.190624 140.10938 23.409374Q140.67188 23.6125 140.9375 23.971874Q141.20312 24.33125 141.29688 24.925L140.26562 25.065624Q140.20312 24.596874 139.85938 24.33125Q139.53125 24.05 138.90625 24.05Q138.1875 24.05 137.875 24.3Q137.5625 24.534374 137.5625 24.8625Q137.5625 25.065624 137.6875 25.221874Q137.82812 25.39375 138.09375 25.503124Q138.25 25.565624 139.03125 25.76875Q140.15625 26.08125 140.59375 26.26875Q141.03125 26.45625 141.28125 26.815624Q141.53125 27.175 141.53125 27.721874Q141.53125 28.253124 141.21875 28.721874Q140.92188 29.175 140.34375 29.440624Q139.76562 29.690624 139.03125 29.690624Q137.8125 29.690624 137.17188 29.190624Q136.54688 28.675 136.375 27.690624ZM147.875 29.55L147.875 28.628124Q147.14062 29.690624 145.89062 29.690624Q145.34375 29.690624 144.85938 29.4875Q144.39062 29.26875 144.15625 28.95625Q143.92188 28.628124 143.82812 28.159374Q143.76562 27.8625 143.76562 27.175L143.76562 23.33125L144.82812 23.33125L144.82812 26.784374Q144.82812 27.596874 144.89062 27.89375Q144.98438 28.3 145.29688 28.55Q145.625 28.784374 146.10938 28.784374Q146.57812 28.784374 146.98438 28.55Q147.40625 28.3 147.57812 27.878124Q147.76562 27.45625 147.76562 26.659374L147.76562 23.33125L148.8125 23.33125L148.8125 29.55L147.875 29.55ZM154.85938 28.784374Q154.26562 29.284374 153.71875 29.4875Q153.1875 29.690624 152.5625 29.690624Q151.53125 29.690624 150.98438 29.190624Q150.4375 28.690624 150.4375 27.909374Q150.4375 27.45625 150.64062 27.08125Q150.84375 26.690624 151.1875 26.471874Q151.53125 26.2375 151.95312 26.128124Q152.25 26.034374 152.89062 25.95625Q154.15625 25.815624 154.76562 25.596874Q154.76562 25.378124 154.76562 25.33125Q154.76562 24.675 154.46875 24.409374Q154.0625 24.065624 153.26562 24.065624Q152.53125 24.065624 152.17188 24.33125Q151.8125 24.58125 151.64062 25.2375L150.60938 25.096874Q150.75 24.440624 151.07812 24.034374Q151.40625 23.628124 152.01562 23.409374Q152.625 23.190624 153.42188 23.190624Q154.21875 23.190624 154.71875 23.378124Q155.21875 23.565624 155.45312 23.846874Q155.6875 24.128124 155.78125 24.565624Q155.82812 24.83125 155.82812 25.534374L155.82812 26.940624Q155.82812 28.409374 155.89062 28.8Q155.96875 29.190624 156.17188 29.55L155.0625 29.55Q154.90625 29.221874 154.85938 28.784374ZM154.76562 26.425Q154.1875 26.659374 153.04688 26.83125Q152.39062 26.925 152.125 27.05Q151.85938 27.159374 151.70312 27.378124Q151.5625 27.596874 151.5625 27.878124Q151.5625 28.3 151.875 28.58125Q152.20312 28.8625 152.8125 28.8625Q153.42188 28.8625 153.89062 28.596874Q154.375 28.33125 154.59375 27.8625Q154.76562 27.503124 154.76562 26.815624L154.76562 26.425ZM157.76562 29.55L157.76562 20.95625L158.82812 20.95625L158.82812 29.55L157.76562 29.55ZM164.125 29.55L164.125 20.95625L165.25 20.95625L165.25 29.55L164.125 29.55ZM166.79688 29.55L166.79688 23.33125L167.73438 23.33125L167.73438 24.20625Q168.42188 23.190624 169.71875 23.190624Q170.28125 23.190624 170.75 23.39375Q171.23438 23.596874 171.46875 23.925Q171.70312 24.253124 171.79688 24.690624Q171.84375 24.9875 171.84375 25.721874L171.84375 29.55L170.79688 29.55L170.79688 25.76875Q170.79688 25.1125 170.67188 24.8Q170.54688 24.4875 170.23438 24.3Q169.92188 24.096874 169.5 24.096874Q168.82812 24.096874 168.32812 24.534374Q167.84375 24.95625 167.84375 26.14375L167.84375 29.55L166.79688 29.55ZM176.09375 28.6125L176.25 29.534374Q175.79688 29.628124 175.45312 29.628124Q174.875 29.628124 174.5625 29.45625Q174.25 29.26875 174.10938 28.971874Q173.98438 28.675 173.98438 27.721874L173.98438 24.14375L173.21875 24.14375L173.21875 23.33125L173.98438 23.33125L173.98438 21.784374L175.03125 21.159374L175.03125 23.33125L176.09375 23.33125L176.09375 24.14375L175.03125 24.14375L175.03125 27.784374Q175.03125 28.2375 175.07812 28.3625Q175.14062 28.4875 175.26562 28.565624Q175.39062 28.64375 175.625 28.64375Q175.8125 28.64375 176.09375 28.6125ZM181.04688 27.55L182.14062 27.675Q181.89062 28.628124 181.1875 29.159374Q180.48438 29.690624 179.40625 29.690624Q178.04688 29.690624 177.23438 28.846874Q176.4375 28.003124 176.4375 26.4875Q176.4375 24.925 177.25 24.065624Q178.0625 23.190624 179.34375 23.190624Q180.59375 23.190624 181.375 24.034374Q182.17188 24.878124 182.17188 26.425Q182.17188 26.51875 182.17188 26.70625L177.53125 26.70625Q177.59375 27.7375 178.10938 28.284374Q178.625 28.815624 179.40625 28.815624Q179.98438 28.815624 180.39062 28.51875Q180.8125 28.20625 181.04688 27.55ZM177.59375 25.846874L181.0625 25.846874Q181.0 25.05 180.67188 24.659374Q180.15625 24.05 179.35938 24.05Q178.625 24.05 178.125 24.534374Q177.64062 25.01875 177.59375 25.846874ZM183.78125 29.55L183.78125 23.33125L184.73438 23.33125L184.73438 24.26875Q185.09375 23.6125 185.39062 23.409374Q185.70312 23.190624 186.07812 23.190624Q186.60938 23.190624 187.15625 23.51875L186.79688 24.503124Q186.40625 24.26875 186.03125 24.26875Q185.67188 24.26875 185.39062 24.4875Q185.125 24.690624 185.01562 25.065624Q184.82812 25.628124 184.82812 26.284374L184.82812 29.55L183.78125 29.55ZM192.04688 27.55L193.14062 27.675Q192.89062 28.628124 192.1875 29.159374Q191.48438 29.690624 190.40625 29.690624Q189.04688 29.690624 188.23438 28.846874Q187.4375 28.003124 187.4375 26.4875Q187.4375 24.925 188.25 24.065624Q189.0625 23.190624 190.34375 23.190624Q191.59375 23.190624 192.375 24.034374Q193.17188 24.878124 193.17188 26.425Q193.17188 26.51875 193.17188 26.70625L188.53125 26.70625Q188.59375 27.7375 189.10938 28.284374Q189.625 28.815624 190.40625 28.815624Q190.98438 28.815624 191.39062 28.51875Q191.8125 28.20625 192.04688 27.55ZM188.59375 25.846874L192.0625 25.846874Q192.0 25.05 191.67188 24.659374Q191.15625 24.05 190.35938 24.05Q189.625 24.05 189.125 24.534374Q188.64062 25.01875 188.59375 25.846874ZM194.375 27.690624L195.40625 27.534374Q195.5 28.159374 195.89062 28.4875Q196.29688 28.815624 197.03125 28.815624Q197.75 28.815624 198.09375 28.534374Q198.45312 28.2375 198.45312 27.83125Q198.45312 27.471874 198.14062 27.26875Q197.92188 27.128124 197.0625 26.909374Q195.90625 26.6125 195.45312 26.409374Q195.01562 26.190624 194.78125 25.815624Q194.54688 25.440624 194.54688 24.971874Q194.54688 24.565624 194.73438 24.20625Q194.92188 23.846874 195.25 23.6125Q195.5 23.440624 195.92188 23.315624Q196.34375 23.190624 196.84375 23.190624Q197.5625 23.190624 198.10938 23.409374Q198.67188 23.6125 198.9375 23.971874Q199.20312 24.33125 199.29688 24.925L198.26562 25.065624Q198.20312 24.596874 197.85938 24.33125Q197.53125 24.05 196.90625 24.05Q196.1875 24.05 195.875 24.3Q195.5625 24.534374 195.5625 24.8625Q195.5625 25.065624 195.6875 25.221874Q195.82812 25.39375 196.09375 25.503124Q196.25 25.565624 197.03125 25.76875Q198.15625 26.08125 198.59375 26.26875Q199.03125 26.45625 199.28125 26.815624Q199.53125 27.175 199.53125 27.721874Q199.53125 28.253124 199.21875 28.721874Q198.92188 29.175 198.34375 29.440624Q197.76562 29.690624 197.03125 29.690624Q195.8125 29.690624 195.17188 29.190624Q194.54688 28.675 194.375 27.690624ZM204.09375 28.6125L204.25 29.534374Q203.79688 29.628124 203.45312 29.628124Q202.875 29.628124 202.5625 29.45625Q202.25 29.26875 202.10938 28.971874Q201.98438 28.675 201.98438 27.721874L201.98438 24.14375L201.21875 24.14375L201.21875 23.33125L201.98438 23.33125L201.98438 21.784374L203.03125 21.159374L203.03125 23.33125L204.09375 23.33125L204.09375 24.14375L203.03125 24.14375L203.03125 27.784374Q203.03125 28.2375 203.07812 28.3625Q203.14062 28.4875 203.26562 28.565624Q203.39062 28.64375 203.625 28.64375Q203.8125 28.64375 204.09375 28.6125ZM206.98438 29.55L210.28125 20.95625L211.5 20.95625L215.01562 29.55L213.73438 29.55L212.71875 26.940624L209.14062 26.940624L208.1875 29.55L206.98438 29.55ZM209.46875 26.01875L212.375 26.01875L211.48438 23.64375Q211.0625 22.565624 210.875 21.8625Q210.70312 22.690624 210.40625 23.503124L209.46875 26.01875ZM216.51562 29.55L214.15625 23.33125L215.26562 23.33125L216.60938 27.05Q216.8125 27.659374 217.0 28.3Q217.14062 27.815624 217.39062 27.128124L218.78125 23.33125L219.85938 23.33125L217.5 29.55L216.51562 29.55ZM219.59375 30.065624L220.625 30.221874Q220.6875 30.690624 220.98438 30.909374Q221.375 31.20625 222.04688 31.20625Q222.78125 31.20625 223.17188 30.909374Q223.57812 30.6125 223.71875 30.096874Q223.8125 29.76875 223.79688 28.7375Q223.10938 29.55 222.07812 29.55Q220.79688 29.55 220.09375 28.628124Q219.39062 27.690624 219.39062 26.409374Q219.39062 25.51875 219.70312 24.76875Q220.03125 24.003124 220.64062 23.596874Q221.25 23.190624 222.07812 23.190624Q223.1875 23.190624 223.90625 24.08125L223.90625 23.33125L224.875 23.33125L224.875 28.70625Q224.875 30.159374 224.57812 30.76875Q224.28125 31.378124 223.64062 31.721874Q223.0 32.08125 222.0625 32.08125Q220.95312 32.08125 220.26562 31.58125Q219.57812 31.08125 219.59375 30.065624ZM220.46875 26.33125Q220.46875 27.55 220.95312 28.1125Q221.4375 28.675 222.17188 28.675Q222.90625 28.675 223.39062 28.1125Q223.89062 27.55 223.89062 26.3625Q223.89062 25.221874 223.375 24.64375Q222.875 24.065624 222.15625 24.065624Q221.45312 24.065624 220.95312 24.64375Q220.46875 25.20625 220.46875 26.33125Z" fill-rule="nonzero"/><path stroke="#46bdc6" stroke-width="4.0" stroke-linecap="butt" stroke-opacity="0.4" d="M242.0 25.55L254.0 25.55" fill-rule="nonzero"/><path fill="#1a1a1a" d="M265.10938 29.55L265.10938 21.971874L262.28125 21.971874L262.28125 20.95625L269.09375 20.95625L269.09375 21.971874L266.25 21.971874L266.25 29.55L265.10938 29.55ZM269.78125 29.55L269.78125 23.33125L270.73438 23.33125L270.73438 24.26875Q271.09375 23.6125 271.39062 23.409374Q271.70312 23.190624 272.07812 23.190624Q272.60938 23.190624 273.15625 23.51875L272.79688 24.503124Q272.40625 24.26875 272.03125 24.26875Q271.67188 24.26875 271.39062 24.4875Q271.125 24.690624 271.01562 25.065624Q270.82812 25.628124 270.82812 26.284374L270.82812 29.55L269.78125 29.55ZM278.04688 27.55L279.14062 27.675Q278.89062 28.628124 278.1875 29.159374Q277.48438 29.690624 276.40625 29.690624Q275.04688 29.690624 274.23438 28.846874Q273.4375 28.003124 273.4375 26.4875Q273.4375 24.925 274.25 24.065624Q275.0625 23.190624 276.34375 23.190624Q277.59375 23.190624 278.375 24.034374Q279.17188 24.878124 279.17188 26.425Q279.17188 26.51875 279.17188 26.70625L274.53125 26.70625Q274.59375 27.7375 275.10938 28.284374Q275.625 28.815624 276.40625 28.815624Q276.98438 28.815624 277.39062 28.51875Q277.8125 28.20625 278.04688 27.55ZM274.59375 25.846874L278.0625 25.846874Q278.0 25.05 277.67188 24.659374Q277.15625 24.05 276.35938 24.05Q275.625 24.05 275.125 24.534374Q274.64062 25.01875 274.59375 25.846874ZM280.79688 29.55L280.79688 23.33125L281.73438 23.33125L281.73438 24.20625Q282.42188 23.190624 283.71875 23.190624Q284.28125 23.190624 284.75 23.39375Q285.23438 23.596874 285.46875 23.925Q285.70312 24.253124 285.79688 24.690624Q285.84375 24.9875 285.84375 25.721874L285.84375 29.55L284.79688 29.55L284.79688 25.76875Q284.79688 25.1125 284.67188 24.8Q284.54688 24.4875 284.23438 24.3Q283.92188 24.096874 283.5 24.096874Q282.82812 24.096874 282.32812 24.534374Q281.84375 24.95625 281.84375 26.14375L281.84375 29.55L280.79688 29.55ZM291.82812 29.55L291.82812 28.76875Q291.23438 29.690624 290.09375 29.690624Q289.34375 29.690624 288.71875 29.284374Q288.09375 28.8625 287.75 28.128124Q287.40625 27.39375 287.40625 26.440624Q287.40625 25.51875 287.71875 24.753124Q288.03125 23.9875 288.65625 23.596874Q289.28125 23.190624 290.04688 23.190624Q290.60938 23.190624 291.04688 23.425Q291.48438 23.659374 291.76562 24.034374L291.76562 20.95625L292.8125 20.95625L292.8125 29.55L291.82812 29.55ZM288.5 26.440624Q288.5 27.64375 289.0 28.2375Q289.5 28.815624 290.1875 28.815624Q290.875 28.815624 291.35938 28.253124Q291.84375 27.690624 291.84375 26.534374Q291.84375 25.253124 291.34375 24.659374Q290.85938 24.065624 290.14062 24.065624Q289.4375 24.065624 288.96875 24.64375Q288.5 25.20625 288.5 26.440624ZM294.76562 29.55L294.76562 20.95625L295.82812 20.95625L295.82812 29.55L294.76562 29.55ZM297.79688 22.175L297.79688 20.95625L298.85938 20.95625L298.85938 22.175L297.79688 22.175ZM297.79688 29.55L297.79688 23.33125L298.85938 23.33125L298.85938 29.55L297.79688 29.55ZM300.79688 29.55L300.79688 23.33125L301.73438 23.33125L301.73438 24.20625Q302.42188 23.190624 303.71875 23.190624Q304.28125 23.190624 304.75 23.39375Q305.23438 23.596874 305.46875 23.925Q305.70312 24.253124 305.79688 24.690624Q305.84375 24.9875 305.84375 25.721874L305.84375 29.55L304.79688 29.55L304.79688 25.76875Q304.79688 25.1125 304.67188 24.8Q304.54688 24.4875 304.23438 24.3Q303.92188 24.096874 303.5 24.096874Q302.82812 24.096874 302.32812 24.534374Q301.84375 24.95625 301.84375 26.14375L301.84375 29.55L300.79688 29.55ZM312.04688 27.55L313.14062 27.675Q312.89062 28.628124 312.1875 29.159374Q311.48438 29.690624 310.40625 29.690624Q309.04688 29.690624 308.23438 28.846874Q307.4375 28.003124 307.4375 26.4875Q307.4375 24.925 308.25 24.065624Q309.0625 23.190624 310.34375 23.190624Q311.59375 23.190624 312.375 24.034374Q313.17188 24.878124 313.17188 26.425Q313.17188 26.51875 313.17188 26.70625L308.53125 26.70625Q308.59375 27.7375 309.10938 28.284374Q309.625 28.815624 310.40625 28.815624Q310.98438 28.815624 311.39062 28.51875Q311.8125 28.20625 312.04688 27.55ZM308.59375 25.846874L312.0625 25.846874Q312.0 25.05 311.67188 24.659374Q311.15625 24.05 310.35938 24.05Q309.625 24.05 309.125 24.534374Q308.64062 25.01875 308.59375 25.846874ZM318.04688 29.55L318.04688 24.14375L317.10938 24.14375L317.10938 23.33125L318.04688 23.33125L318.04688 22.659374Q318.04688 22.034374 318.15625 21.7375Q318.3125 21.315624 318.6875 21.065624Q319.07812 20.815624 319.76562 20.815624Q320.21875 20.815624 320.75 20.925L320.59375 21.83125Q320.26562 21.784374 319.96875 21.784374Q319.48438 21.784374 319.28125 21.9875Q319.09375 22.190624 319.09375 22.753124L319.09375 23.33125L320.3125 23.33125L320.3125 24.14375L319.09375 24.14375L319.09375 29.55L318.04688 29.55ZM320.40625 26.440624Q320.40625 24.70625 321.35938 23.878124Q322.15625 23.190624 323.3125 23.190624Q324.59375 23.190624 325.40625 24.034374Q326.23438 24.8625 326.23438 26.346874Q326.23438 27.55 325.875 28.2375Q325.51562 28.925 324.8125 29.315624Q324.125 29.690624 323.3125 29.690624Q322.01562 29.690624 321.20312 28.8625Q320.40625 28.01875 320.40625 26.440624ZM321.48438 26.440624Q321.48438 27.628124 322.0 28.221874Q322.53125 28.815624 323.3125 28.815624Q324.10938 28.815624 324.625 28.221874Q325.14062 27.628124 325.14062 26.409374Q325.14062 25.253124 324.60938 24.659374Q324.09375 24.065624 323.3125 24.065624Q322.53125 24.065624 322.0 24.659374Q321.48438 25.2375 321.48438 26.440624ZM327.78125 29.55L327.78125 23.33125L328.73438 23.33125L328.73438 24.26875Q329.09375 23.6125 329.39062 23.409374Q329.70312 23.190624 330.07812 23.190624Q330.60938 23.190624 331.15625 23.51875L330.79688 24.503124Q330.40625 24.26875 330.03125 24.26875Q329.67188 24.26875 329.39062 24.4875Q329.125 24.690624 329.01562 25.065624Q328.82812 25.628124 328.82812 26.284374L328.82812 29.55L327.78125 29.55ZM337.375 29.55L334.04688 20.95625L335.28125 20.95625L337.51562 27.20625Q337.78125 27.95625 337.96875 28.6125Q338.17188 27.909374 338.4375 27.20625L340.75 20.95625L341.90625 20.95625L338.54688 29.55L337.375 29.55ZM341.79688 22.175L341.79688 20.95625L342.85938 20.95625L342.85938 22.175L341.79688 22.175ZM341.79688 29.55L341.79688 23.33125L342.85938 23.33125L342.85938 29.55L341.79688 29.55ZM344.375 27.690624L345.40625 27.534374Q345.5 28.159374 345.89062 28.4875Q346.29688 28.815624 347.03125 28.815624Q347.75 28.815624 348.09375 28.534374Q348.45312 28.2375 348.45312 27.83125Q348.45312 27.471874 348.14062 27.26875Q347.92188 27.128124 347.0625 26.909374Q345.90625 26.6125 345.45312 26.409374Q345.01562 26.190624 344.78125 25.815624Q344.54688 25.440624 344.54688 24.971874Q344.54688 24.565624 344.73438 24.20625Q344.92188 23.846874 345.25 23.6125Q345.5 23.440624 345.92188 23.315624Q346.34375 23.190624 346.84375 23.190624Q347.5625 23.190624 348.10938 23.409374Q348.67188 23.6125 348.9375 23.971874Q349.20312 24.33125 349.29688 24.925L348.26562 25.065624Q348.20312 24.596874 347.85938 24.33125Q347.53125 24.05 346.90625 24.05Q346.1875 24.05 345.875 24.3Q345.5625 24.534374 345.5625 24.8625Q345.5625 25.065624 345.6875 25.221874Q345.82812 25.39375 346.09375 25.503124Q346.25 25.565624 347.03125 25.76875Q348.15625 26.08125 348.59375 26.26875Q349.03125 26.45625 349.28125 26.815624Q349.53125 27.175 349.53125 27.721874Q349.53125 28.253124 349.21875 28.721874Q348.92188 29.175 348.34375 29.440624Q347.76562 29.690624 347.03125 29.690624Q345.8125 29.690624 345.17188 29.190624Q344.54688 28.675 344.375 27.690624ZM355.875 29.55L355.875 28.628124Q355.14062 29.690624 353.89062 29.690624Q353.34375 29.690624 352.85938 29.4875Q352.39062 29.26875 352.15625 28.95625Q351.92188 28.628124 351.82812 28.159374Q351.76562 27.8625 351.76562 27.175L351.76562 23.33125L352.82812 23.33125L352.82812 26.784374Q352.82812 27.596874 352.89062 27.89375Q352.98438 28.3 353.29688 28.55Q353.625 28.784374 354.10938 28.784374Q354.57812 28.784374 354.98438 28.55Q355.40625 28.3 355.57812 27.878124Q355.76562 27.45625 355.76562 26.659374L355.76562 23.33125L356.8125 23.33125L356.8125 29.55L355.875 29.55ZM362.85938 28.784374Q362.26562 29.284374 361.71875 29.4875Q361.1875 29.690624 360.5625 29.690624Q359.53125 29.690624 358.98438 29.190624Q358.4375 28.690624 358.4375 27.909374Q358.4375 27.45625 358.64062 27.08125Q358.84375 26.690624 359.1875 26.471874Q359.53125 26.2375 359.95312 26.128124Q360.25 26.034374 360.89062 25.95625Q362.15625 25.815624 362.76562 25.596874Q362.76562 25.378124 362.76562 25.33125Q362.76562 24.675 362.46875 24.409374Q362.0625 24.065624 361.26562 24.065624Q360.53125 24.065624 360.17188 24.33125Q359.8125 24.58125 359.64062 25.2375L358.60938 25.096874Q358.75 24.440624 359.07812 24.034374Q359.40625 23.628124 360.01562 23.409374Q360.625 23.190624 361.42188 23.190624Q362.21875 23.190624 362.71875 23.378124Q363.21875 23.565624 363.45312 23.846874Q363.6875 24.128124 363.78125 24.565624Q363.82812 24.83125 363.82812 25.534374L363.82812 26.940624Q363.82812 28.409374 363.89062 28.8Q363.96875 29.190624 364.17188 29.55L363.0625 29.55Q362.90625 29.221874 362.85938 28.784374ZM362.76562 26.425Q362.1875 26.659374 361.04688 26.83125Q360.39062 26.925 360.125 27.05Q359.85938 27.159374 359.70312 27.378124Q359.5625 27.596874 359.5625 27.878124Q359.5625 28.3 359.875 28.58125Q360.20312 28.8625 360.8125 28.8625Q361.42188 28.8625 361.89062 28.596874Q362.375 28.33125 362.59375 27.8625Q362.76562 27.503124 362.76562 26.815624L362.76562 26.425ZM365.76562 29.55L365.76562 20.95625L366.82812 20.95625L366.82812 29.55L365.76562 29.55ZM372.125 29.55L372.125 20.95625L373.25 20.95625L373.25 29.55L372.125 29.55ZM374.79688 29.55L374.79688 23.33125L375.73438 23.33125L375.73438 24.20625Q376.42188 23.190624 377.71875 23.190624Q378.28125 23.190624 378.75 23.39375Q379.23438 23.596874 379.46875 23.925Q379.70312 24.253124 379.79688 24.690624Q379.84375 24.9875 379.84375 25.721874L379.84375 29.55L378.79688 29.55L378.79688 25.76875Q378.79688 25.1125 378.67188 24.8Q378.54688 24.4875 378.23438 24.3Q377.92188 24.096874 377.5 24.096874Q376.82812 24.096874 376.32812 24.534374Q375.84375 24.95625 375.84375 26.14375L375.84375 29.55L374.79688 29.55ZM384.09375 28.6125L384.25 29.534374Q383.79688 29.628124 383.45312 29.628124Q382.875 29.628124 382.5625 29.45625Q382.25 29.26875 382.10938 28.971874Q381.98438 28.675 381.98438 27.721874L381.98438 24.14375L381.21875 24.14375L381.21875 23.33125L381.98438 23.33125L381.98438 21.784374L383.03125 21.159374L383.03125 23.33125L384.09375 23.33125L384.09375 24.14375L383.03125 24.14375L383.03125 27.784374Q383.03125 28.2375 383.07812 28.3625Q383.14062 28.4875 383.26562 28.565624Q383.39062 28.64375 383.625 28.64375Q383.8125 28.64375 384.09375 28.6125ZM389.04688 27.55L390.14062 27.675Q389.89062 28.628124 389.1875 29.159374Q388.48438 29.690624 387.40625 29.690624Q386.04688 29.690624 385.23438 28.846874Q384.4375 28.003124 384.4375 26.4875Q384.4375 24.925 385.25 24.065624Q386.0625 23.190624 387.34375 23.190624Q388.59375 23.190624 389.375 24.034374Q390.17188 24.878124 390.17188 26.425Q390.17188 26.51875 390.17188 26.70625L385.53125 26.70625Q385.59375 27.7375 386.10938 28.284374Q386.625 28.815624 387.40625 28.815624Q387.98438 28.815624 388.39062 28.51875Q388.8125 28.20625 389.04688 27.55ZM385.59375 25.846874L389.0625 25.846874Q389.0 25.05 388.67188 24.659374Q388.15625 24.05 387.35938 24.05Q386.625 24.05 386.125 24.534374Q385.64062 25.01875 385.59375 25.846874ZM391.78125 29.55L391.78125 23.33125L392.73438 23.33125L392.73438 24.26875Q393.09375 23.6125 393.39062 23.409374Q393.70312 23.190624 394.07812 23.190624Q394.60938 23.190624 395.15625 23.51875L394.79688 24.503124Q394.40625 24.26875 394.03125 24.26875Q393.67188 24.26875 393.39062 24.4875Q393.125 24.690624 393.01562 25.065624Q392.82812 25.628124 392.82812 26.284374L392.82812 29.55L391.78125 29.55ZM400.04688 27.55L401.14062 27.675Q400.89062 28.628124 400.1875 29.159374Q399.48438 29.690624 398.40625 29.690624Q397.04688 29.690624 396.23438 28.846874Q395.4375 28.003124 395.4375 26.4875Q395.4375 24.925 396.25 24.065624Q397.0625 23.190624 398.34375 23.190624Q399.59375 23.190624 400.375 24.034374Q401.17188 24.878124 401.17188 26.425Q401.17188 26.51875 401.17188 26.70625L396.53125 26.70625Q396.59375 27.7375 397.10938 28.284374Q397.625 28.815624 398.40625 28.815624Q398.98438 28.815624 399.39062 28.51875Q399.8125 28.20625 400.04688 27.55ZM396.59375 25.846874L400.0625 25.846874Q400.0 25.05 399.67188 24.659374Q399.15625 24.05 398.35938 24.05Q397.625 24.05 397.125 24.534374Q396.64062 25.01875 396.59375 25.846874ZM402.375 27.690624L403.40625 27.534374Q403.5 28.159374 403.89062 28.4875Q404.29688 28.815624 405.03125 28.815624Q405.75 28.815624 406.09375 28.534374Q406.45312 28.2375 406.45312 27.83125Q406.45312 27.471874 406.14062 27.26875Q405.92188 27.128124 405.0625 26.909374Q403.90625 26.6125 403.45312 26.409374Q403.01562 26.190624 402.78125 25.815624Q402.54688 25.440624 402.54688 24.971874Q402.54688 24.565624 402.73438 24.20625Q402.92188 23.846874 403.25 23.6125Q403.5 23.440624 403.92188 23.315624Q404.34375 23.190624 404.84375 23.190624Q405.5625 23.190624 406.10938 23.409374Q406.67188 23.6125 406.9375 23.971874Q407.20312 24.33125 407.29688 24.925L406.26562 25.065624Q406.20312 24.596874 405.85938 24.33125Q405.53125 24.05 404.90625 24.05Q404.1875 24.05 403.875 24.3Q403.5625 24.534374 403.5625 24.8625Q403.5625 25.065624 403.6875 25.221874Q403.82812 25.39375 404.09375 25.503124Q404.25 25.565624 405.03125 25.76875Q406.15625 26.08125 406.59375 26.26875Q407.03125 26.45625 407.28125 26.815624Q407.53125 27.175 407.53125 27.721874Q407.53125 28.253124 407.21875 28.721874Q406.92188 29.175 406.34375 29.440624Q405.76562 29.690624 405.03125 29.690624Q403.8125 29.690624 403.17188 29.190624Q402.54688 28.675 402.375 27.690624ZM412.09375 28.6125L412.25 29.534374Q411.79688 29.628124 411.45312 29.628124Q410.875 29.628124 410.5625 29.45625Q410.25 29.26875 410.10938 28.971874Q409.98438 28.675 409.98438 27.721874L409.98438 24.14375L409.21875 24.14375L409.21875 23.33125L409.98438 23.33125L409.98438 21.784374L411.03125 21.159374L411.03125 23.33125L412.09375 23.33125L412.09375 24.14375L411.03125 24.14375L411.03125 27.784374Q411.03125 28.2375 411.07812 28.3625Q411.14062 28.4875 411.26562 28.565624Q411.39062 28.64375 411.625 28.64375Q411.8125 28.64375 412.09375 28.6125ZM414.98438 29.55L418.28125 20.95625L419.5 20.95625L423.01562 29.55L421.73438 29.55L420.71875 26.940624L417.14062 26.940624L416.1875 29.55L414.98438 29.55ZM417.46875 26.01875L420.375 26.01875L419.48438 23.64375Q419.0625 22.565624 418.875 21.8625Q418.70312 22.690624 418.40625 23.503124L417.46875 26.01875ZM424.51562 29.55L422.15625 23.33125L423.26562 23.33125L424.60938 27.05Q424.8125 27.659374 425.0 28.3Q425.14062 27.815624 425.39062 27.128124L426.78125 23.33125L427.85938 23.33125L425.5 29.55L424.51562 29.55ZM427.59375 30.065624L428.625 30.221874Q428.6875 30.690624 428.98438 30.909374Q429.375 31.20625 430.04688 31.20625Q430.78125 31.20625 431.17188 30.909374Q431.57812 30.6125 431.71875 30.096874Q431.8125 29.76875 431.79688 28.7375Q431.10938 29.55 430.07812 29.55Q428.79688 29.55 428.09375 28.628124Q427.39062 27.690624 427.39062 26.409374Q427.39062 25.51875 427.70312 24.76875Q428.03125 24.003124 428.64062 23.596874Q429.25 23.190624 430.07812 23.190624Q431.1875 23.190624 431.90625 24.08125L431.90625 23.33125L432.875 23.33125L432.875 28.70625Q432.875 30.159374 432.57812 30.76875Q432.28125 31.378124 431.64062 31.721874Q431.0 32.08125 430.0625 32.08125Q428.95312 32.08125 428.26562 31.58125Q427.57812 31.08125 427.59375 30.065624ZM428.46875 26.33125Q428.46875 27.55 428.95312 28.1125Q429.4375 28.675 430.17188 28.675Q430.90625 28.675 431.39062 28.1125Q431.89062 27.55 431.89062 26.3625Q431.89062 25.221874 431.375 24.64375Q430.875 24.065624 430.15625 24.065624Q429.45312 24.065624 428.95312 24.64375Q428.46875 25.20625 428.46875 26.33125ZM437.9375 29.55L437.9375 20.95625L441.75 20.95625Q442.90625 20.95625 443.5 21.190624Q444.09375 21.425 444.45312 22.01875Q444.8125 22.596874 444.8125 23.3Q444.8125 24.221874 444.21875 24.846874Q443.625 25.471874 442.39062 25.64375Q442.84375 25.8625 443.07812 26.065624Q443.57812 26.51875 444.01562 27.20625L445.51562 29.55L444.07812 29.55L442.95312 27.76875Q442.45312 26.9875 442.125 26.58125Q441.8125 26.175 441.54688 26.01875Q441.29688 25.846874 441.03125 25.76875Q440.84375 25.7375 440.40625 25.7375L439.07812 25.7375L439.07812 29.55L437.9375 29.55ZM439.07812 24.753124L441.53125 24.753124Q442.29688 24.753124 442.73438 24.596874Q443.1875 24.425 443.40625 24.08125Q443.64062 23.721874 443.64062 23.3Q443.64062 22.690624 443.1875 22.3Q442.75 21.909374 441.79688 21.909374L439.07812 21.909374L439.07812 24.753124ZM446.14062 25.253124Q446.1875 24.925 446.42188 24.58125Q446.79688 24.08125 447.64062 23.471874Q448.48438 22.8625 448.64062 22.675Q448.85938 22.440624 448.85938 22.190624Q448.85938 21.909374 448.64062 21.7375Q448.4375 21.55 448.04688 21.55Q447.65625 21.55 447.46875 21.690624Q447.28125 21.815624 447.15625 22.20625L446.26562 22.1125Q446.4375 21.471874 446.85938 21.159374Q447.28125 20.846874 448.0625 20.846874Q448.95312 20.846874 449.35938 21.20625Q449.78125 21.55 449.78125 22.05Q449.78125 22.534374 449.42188 22.971874Q449.17188 23.3 448.23438 23.971874Q447.73438 24.33125 447.53125 24.55L449.79688 24.55L449.79688 25.253124L446.14062 25.253124ZM459.34375 24.503124L453.67188 24.503124L453.67188 23.51875L459.34375 23.51875L459.34375 24.503124ZM459.34375 27.1125L453.67188 27.1125L453.67188 26.128124L459.34375 26.128124L459.34375 27.1125ZM463.5 25.315624Q463.5 23.784374 463.8125 22.8625Q464.125 21.925 464.73438 21.425Q465.35938 20.925 466.29688 20.925Q466.98438 20.925 467.5 21.20625Q468.03125 21.4875 468.375 22.01875Q468.71875 22.534374 468.90625 23.284374Q469.09375 24.034374 469.09375 25.315624Q469.09375 26.83125 468.78125 27.753124Q468.48438 28.675 467.85938 29.190624Q467.25 29.690624 466.29688 29.690624Q465.0625 29.690624 464.34375 28.8Q463.5 27.7375 463.5 25.315624ZM464.57812 25.315624Q464.57812 27.425 465.07812 28.128124Q465.57812 28.83125 466.29688 28.83125Q467.03125 28.83125 467.51562 28.128124Q468.01562 27.425 468.01562 25.315624Q468.01562 23.190624 467.51562 22.503124Q467.03125 21.8 466.28125 21.8Q465.5625 21.8 465.125 22.409374Q464.57812 23.190624 464.57812 25.315624ZM471.09375 29.55L471.09375 28.346874L472.29688 28.346874L472.29688 29.55L471.09375 29.55ZM473.5 27.284374L474.5625 27.14375Q474.73438 28.034374 475.17188 28.440624Q475.60938 28.83125 476.23438 28.83125Q476.98438 28.83125 477.5 28.315624Q478.01562 27.8 478.01562 27.034374Q478.01562 26.315624 477.53125 25.846874Q477.0625 25.3625 476.32812 25.3625Q476.03125 25.3625 475.57812 25.4875L475.70312 24.55Q475.8125 24.565624 475.875 24.565624Q476.54688 24.565624 477.07812 24.221874Q477.625 23.8625 477.625 23.128124Q477.625 22.55 477.23438 22.175Q476.84375 21.784374 476.21875 21.784374Q475.60938 21.784374 475.1875 22.175Q474.78125 22.565624 474.67188 23.33125L473.60938 23.14375Q473.79688 22.096874 474.48438 21.51875Q475.17188 20.925 476.1875 20.925Q476.89062 20.925 477.48438 21.2375Q478.07812 21.534374 478.39062 22.05Q478.70312 22.565624 478.70312 23.159374Q478.70312 23.70625 478.40625 24.175Q478.10938 24.628124 477.53125 24.89375Q478.28125 25.065624 478.70312 25.628124Q479.125 26.175 479.125 27.01875Q479.125 28.14375 478.29688 28.925Q477.48438 29.70625 476.23438 29.70625Q475.10938 29.70625 474.35938 29.034374Q473.60938 28.346874 473.5 27.284374ZM480.5 25.315624Q480.5 23.784374 480.8125 22.8625Q481.125 21.925 481.73438 21.425Q482.35938 20.925 483.29688 20.925Q483.98438 20.925 484.5 21.20625Q485.03125 21.4875 485.375 22.01875Q485.71875 22.534374 485.90625 23.284374Q486.09375 24.034374 486.09375 25.315624Q486.09375 26.83125 485.78125 27.753124Q485.48438 28.675 484.85938 29.190624Q484.25 29.690624 483.29688 29.690624Q482.0625 29.690624 481.34375 28.8Q480.5 27.7375 480.5 25.315624ZM481.57812 25.315624Q481.57812 27.425 482.07812 28.128124Q482.57812 28.83125 483.29688 28.83125Q484.03125 28.83125 484.51562 28.128124Q485.01562 27.425 485.01562 25.315624Q485.01562 23.190624 484.51562 22.503124Q484.03125 21.8 483.28125 21.8Q482.5625 21.8 482.125 22.409374Q481.57812 23.190624 481.57812 25.315624ZM487.5 27.3L488.60938 27.20625Q488.73438 28.01875 489.17188 28.425Q489.625 28.83125 490.26562 28.83125Q491.01562 28.83125 491.54688 28.253124Q492.07812 27.675 492.07812 26.7375Q492.07812 25.83125 491.5625 25.315624Q491.0625 24.784374 490.23438 24.784374Q489.73438 24.784374 489.3125 25.01875Q488.90625 25.253124 488.67188 25.6125L487.6875 25.4875L488.51562 21.08125L492.79688 21.08125L492.79688 22.08125L489.35938 22.08125L488.90625 24.39375Q489.67188 23.846874 490.51562 23.846874Q491.64062 23.846874 492.40625 24.628124Q493.1875 25.409374 493.1875 26.64375Q493.1875 27.8 492.51562 28.659374Q491.6875 29.690624 490.26562 29.690624Q489.09375 29.690624 488.34375 29.034374Q487.60938 28.378124 487.5 27.3Z" fill-rule="nonzero"/></svg>