<svg version="1.1" viewBox="0.0 0.0 600.0 371.0" fill="none" stroke="none" stroke-linecap="square" stroke-miterlimit="10" width="600" height="371" xmlns:xlink="http://www.w3.org/1999/xlink" xmlns="http://www.w3.org/2000/svg"><path fill="#ffffff" d="M0 0L600.0 0L600.0 371.0L0 371.0L0 0Z" fill-rule="nonzero"/><path stroke="#cccccc" stroke-width="1.0" stroke-linecap="butt" d="M44.5 307.5L581.5 307.5" fill-rule="nonzero"/><path stroke="#cccccc" stroke-width="1.0" stroke-linecap="butt" d="M44.5 236.5L581.5 236.5" fill-rule="nonzero"/><path stroke="#cccccc" stroke-width="1.0" stroke-linecap="butt" d="M44.5 166.5L581.5 166.5" fill-rule="nonzero"/><path stroke="#cccccc" stroke-width="1.0" stroke-linecap="butt" d="M44.5 95.5L581.5 95.5" fill-rule="nonzero"/><path stroke="#cccccc" stroke-width="1.0" stroke-linecap="butt" d="M44.5 24.5L581.5 24.5" fill-rule="nonzero"/><clipPath id="id_0"><path d="M44.571484 24.55L581.5 24.55L581.5 307.76642L44.571484 307.76642L44.571484 24.55Z" clip-rule="nonzero"/></clipPath><path fill="#990000" clip-path="url(#id_0)" d="M54.907665 149.30008C54.907665 151.78537 52.892944 153.80008 50.407665 153.80008C47.922382 153.80008 45.907665 151.78537 45.907665 149.30008C45.907665 146.8148 47.922382 144.80008 50.407665 144.80008C52.892944 144.80008 54.907665 146.8148 54.907665 149.30008Z" fill-rule="nonzero"/><path fill="#990000" clip-path="url(#id_0)" d="M66.580025 179.6447C66.580025 182.12997 64.56531 184.1447 62.080025 184.1447C59.59474 184.1447 57.580025 182.12997 57.580025 179.6447C57.580025 177.15942 59.59474 175.1447 62.080025 175.1447C64.56531 175.1447 66.580025 177.15942 66.580025 179.6447Z" fill-rule="nonzero"/><path fill="#4285f4" clip-path="url(#id_0)" d="M78.25238 193.1312C78.25238 195.61647 76.23766 197.6312 73.75238 197.6312C71.2671 197.6312 69.25238 195.61647 69.25238 193.1312C69.25238 190.64592 71.2671 188.6312 73.75238 188.6312C76.23766 188.6312 78.25238 190.64592 78.25238 193.1312Z" fill-rule="nonzero"/><path fill="#4285f4" clip-path="url(#id_0)" d="M89.92474 169.52983C89.92474 172.0151 87.91002 174.02983 85.42474 174.02983C82.93946 174.02983 80.92474 172.0151 80.92474 169.52983C80.92474 167.04454 82.93946 165.02983 85.42474 165.02983C87.91002 165.02983 89.92474 167.04454 89.92474 169.52983Z" fill-rule="nonzero"/><path fill="#4285f4" clip-path="url(#id_0)" d="M101.5971 183.01633C101.5971 185.5016 99.58238 187.51633 97.0971 187.51633C94.61182 187.51633 92.5971 185.5016 92.5971 183.01633C92.5971 180.53104 94.61182 178.51633 97.0971 178.51633C99.58238 178.51633 101.5971 180.53104 101.5971 183.01633Z" fill-rule="nonzero"/><path fill="#4285f4" clip-path="url(#id_0)" d="M113.26946 186.38794C113.26946 188.87323 111.25474 190.88794 108.76946 190.88794C106.28418 190.88794 104.26946 188.87323 104.26946 186.38794C104.26946 183.90266 106.28418 181.88794 108.76946 181.88794C111.25474 181.88794 113.26946 183.90266 113.26946 186.38794Z" fill-rule="nonzero"/><path fill="#4285f4" clip-path="url(#id_0)" d="M124.94182 139.18521C124.94182 141.67049 122.9271 143.68521 120.44182 143.68521C117.956535 143.68521 115.94182 141.67049 115.94182 139.18521C115.94182 136.69994 117.956535 134.68521 120.44182 134.68521C122.9271 134.68521 124.94182 136.69994 124.94182 139.18521Z" fill-rule="nonzero"/><path fill="#4285f4" clip-path="url(#id_0)" d="M136.61418 152.6717C136.61418 155.15698 134.59946 157.1717 132.11418 157.1717C129.62889 157.1717 127.614174 155.15698 127.614174 152.6717C127.614174 150.18643 129.62889 148.1717 132.11418 148.1717C134.59946 148.1717 136.61418 150.18643 136.61418 152.6717Z" fill-rule="nonzero"/><path fill="#4285f4" clip-path="url(#id_0)" d="M148.28653 152.6717C148.28653 155.15698 146.27182 157.1717 143.78653 157.1717C141.30125 157.1717 139.28653 155.15698 139.28653 152.6717C139.28653 150.18643 141.30125 148.1717 143.78653 148.1717C146.27182 148.1717 148.28653 150.18643 148.28653 152.6717Z" fill-rule="nonzero"/><path fill="#4285f4" clip-path="url(#id_0)" d="M159.9589 142.55684C159.9589 145.04211 157.94418 147.05684 155.4589 147.05684C152.97362 147.05684 150.9589 145.04211 150.9589 142.55684C150.9589 140.07155 152.97362 138.05684 155.4589 138.05684C157.94418 138.05684 159.9589 140.07155 159.9589 142.55684Z" fill-rule="nonzero"/><path fill="#4285f4" clip-path="url(#id_0)" d="M171.63126 186.38794C171.63126 188.87323 169.61653 190.88794 167.13126 190.88794C164.64597 190.88794 162.63126 188.87323 162.63126 186.38794C162.63126 183.90266 164.64597 181.88794 167.13126 181.88794C169.61653 181.88794 171.63126 183.90266 171.63126 186.38794Z" fill-rule="nonzero"/><path fill="#4285f4" clip-path="url(#id_0)" d="M183.30362 125.698715C183.30362 128.18399 181.2889 130.19872 178.80362 130.19872C176.31833 130.19872 174.30362 128.18399 174.30362 125.698715C174.30362 123.21343 176.31833 121.198715 178.80362 121.198715C181.2889 121.198715 183.30362 123.21343 183.30362 125.698715Z" fill-rule="nonzero"/><path fill="#4285f4" clip-path="url(#id_0)" d="M194.97597 135.81358C194.97597 138.29887 192.96126 140.31358 190.47597 140.31358C187.99069 140.31358 185.97597 138.29887 185.97597 135.81358C185.97597 133.32831 187.99069 131.31358 190.47597 131.31358C192.96126 131.31358 194.97597 133.32831 194.97597 135.81358Z" fill-rule="nonzero"/><path fill="#4285f4" clip-path="url(#id_0)" d="M206.64833 145.92847C206.64833 148.41374 204.6336 150.42847 202.14833 150.42847C199.66306 150.42847 197.64833 148.41374 197.64833 145.92847C197.64833 143.44318 199.66306 141.42847 202.14833 141.42847C204.6336 141.42847 206.64833 143.44318 206.64833 145.92847Z" fill-rule="nonzero"/><path fill="#4285f4" clip-path="url(#id_0)" d="M218.3207 233.59068C218.3207 236.07596 216.30597 238.09068 213.8207 238.09068C211.3354 238.09068 209.3207 236.07596 209.3207 233.59068C209.3207 231.1054 211.3354 229.09068 213.8207 229.09068C216.30597 229.09068 218.3207 231.1054 218.3207 233.59068Z" fill-rule="nonzero"/><path fill="#4285f4" clip-path="url(#id_0)" d="M229.99304 152.6717C229.99304 155.15698 227.97833 157.1717 225.49304 157.1717C223.00777 157.1717 220.99304 155.15698 220.99304 152.6717C220.99304 150.18643 223.00777 148.1717 225.49304 148.1717C227.97833 148.1717 229.99304 150.18643 229.99304 152.6717Z" fill-rule="nonzero"/><path fill="#4285f4" clip-path="url(#id_0)" d="M241.6654 108.8406C241.6654 111.32588 239.6507 113.3406 237.1654 113.3406C234.68013 113.3406 232.6654 111.32588 232.6654 108.8406C232.6654 106.355316 234.68013 104.3406 237.1654 104.3406C239.6507 104.3406 241.6654 106.355316 241.6654 108.8406Z" fill-rule="nonzero"/><path fill="#4285f4" clip-path="url(#id_0)" d="M253.33777 176.27307C253.33777 178.75836 251.32304 180.77307 248.83777 180.77307C246.3525 180.77307 244.33777 178.75836 244.33777 176.27307C244.33777 173.7878 246.3525 171.77307 248.83777 171.77307C251.32304 171.77307 253.33777 173.7878 253.33777 176.27307Z" fill-rule="nonzero"/><path fill="#4285f4" clip-path="url(#id_0)" d="M265.01013 189.75957C265.01013 192.24486 262.99542 194.25957 260.51013 194.25957C258.02484 194.25957 256.01013 192.24486 256.01013 189.75957C256.01013 187.27429 258.02484 185.25957 260.51013 185.25957C262.99542 185.25957 265.01013 187.27429 265.01013 189.75957Z" fill-rule="nonzero"/><path fill="#4285f4" clip-path="url(#id_0)" d="M276.6825 169.52983C276.6825 172.0151 274.66776 174.02983 272.1825 174.02983C269.6972 174.02983 267.6825 172.0151 267.6825 169.52983C267.6825 167.04454 269.6972 165.02983 272.1825 165.02983C274.66776 165.02983 276.6825 167.04454 276.6825 169.52983Z" fill-rule="nonzero"/><path fill="#4285f4" clip-path="url(#id_0)" d="M288.35486 176.27307C288.35486 178.75836 286.34012 180.77307 283.85486 180.77307C281.36957 180.77307 279.35486 178.75836 279.35486 176.27307C279.35486 173.7878 281.36957 171.77307 283.85486 171.77307C286.34012 171.77307 288.35486 173.7878 288.35486 176.27307Z" fill-rule="nonzero"/><path fill="#990000" clip-path="url(#id_0)" d="M300.0272 166.1582C300.0272 168.64348 298.01248 170.6582 295.5272 170.6582C293.04193 170.6582 291.0272 168.64348 291.0272 166.1582C291.0272 163.67293 293.04193 161.6582 295.5272 161.6582C298.01248 161.6582 300.0272 163.67293 300.0272 166.1582Z" fill-rule="nonzero"/><path fill="#990000" clip-path="url(#id_0)" d="M311.69955 152.6717C311.69955 155.15698 309.68484 157.1717 307.19955 157.1717C304.7143 157.1717 302.69955 155.15698 302.69955 152.6717C302.69955 150.18643 304.7143 148.1717 307.19955 148.1717C309.68484 148.1717 311.69955 150.18643 311.69955 152.6717Z" fill-rule="nonzero"/><path fill="#990000" clip-path="url(#id_0)" d="M323.37192 189.75957C323.37192 192.24486 321.3572 194.25957 318.87192 194.25957C316.38663 194.25957 314.37192 192.24486 314.37192 189.75957C314.37192 187.27429 316.38663 185.25957 318.87192 185.25957C321.3572 185.25957 323.37192 187.27429 323.37192 189.75957Z" fill-rule="nonzero"/><path fill="#990000" clip-path="url(#id_0)" d="M335.04428 196.50282C335.04428 198.9881 333.02957 201.00282 330.54428 201.00282C328.059 201.00282 326.04428 198.9881 326.04428 196.50282C326.04428 194.01753 328.059 192.00282 330.54428 192.00282C333.02957 192.00282 335.04428 194.01753 335.04428 196.50282Z" fill-rule="nonzero"/><path fill="#990000" clip-path="url(#id_0)" d="M346.71664 166.1582C346.71664 168.64348 344.70193 170.6582 342.21664 170.6582C339.73135 170.6582 337.71664 168.64348 337.71664 166.1582C337.71664 163.67293 339.73135 161.6582 342.21664 161.6582C344.70193 161.6582 346.71664 163.67293 346.71664 166.1582Z" fill-rule="nonzero"/><path fill="#4285f4" clip-path="url(#id_0)" d="M358.389 223.47581C358.389 225.96109 356.37427 227.97581 353.889 227.97581C351.40372 227.97581 349.389 225.96109 349.389 223.47581C349.389 220.99052 351.40372 218.97581 353.889 218.97581C356.37427 218.97581 358.389 220.99052 358.389 223.47581Z" fill-rule="nonzero"/><path fill="#990000" clip-path="url(#id_0)" d="M370.06137 132.44197C370.06137 134.92725 368.04663 136.94197 365.56137 136.94197C363.07608 136.94197 361.06137 134.92725 361.06137 132.44197C361.06137 129.95668 363.07608 127.94196 365.56137 127.94196C368.04663 127.94196 370.06137 129.95668 370.06137 132.44197Z" fill-rule="nonzero"/><path fill="#990000" clip-path="url(#id_0)" d="M381.7337 203.24606C381.7337 205.73135 379.719 207.74606 377.2337 207.74606C374.74844 207.74606 372.7337 205.73135 372.7337 203.24606C372.7337 200.76079 374.74844 198.74606 377.2337 198.74606C379.719 198.74606 381.7337 200.76079 381.7337 203.24606Z" fill-rule="nonzero"/><path fill="#990000" clip-path="url(#id_0)" d="M393.40607 199.87444C393.40607 202.35973 391.39136 204.37444 388.90607 204.37444C386.4208 204.37444 384.40607 202.35973 384.40607 199.87444C384.40607 197.38916 386.4208 195.37444 388.90607 195.37444C391.39136 195.37444 393.40607 197.38916 393.40607 199.87444Z" fill-rule="nonzero"/><path fill="#4285f4" clip-path="url(#id_0)" d="M405.07843 176.27307C405.07843 178.75836 403.06372 180.77307 400.57843 180.77307C398.09314 180.77307 396.07843 178.75836 396.07843 176.27307C396.07843 173.7878 398.09314 171.77307 400.57843 171.77307C403.06372 171.77307 405.07843 173.7878 405.07843 176.27307Z" fill-rule="nonzero"/><path fill="#990000" clip-path="url(#id_0)" d="M416.7508 152.6717C416.7508 155.15698 414.73608 157.1717 412.2508 157.1717C409.7655 157.1717 407.7508 155.15698 407.7508 152.6717C407.7508 150.18643 409.7655 148.1717 412.2508 148.1717C414.73608 148.1717 416.7508 150.18643 416.7508 152.6717Z" fill-rule="nonzero"/><path fill="#990000" clip-path="url(#id_0)" d="M428.42316 196.50282C428.42316 198.9881 426.40845 201.00282 423.92316 201.00282C421.43787 201.00282 419.42316 198.9881 419.42316 196.50282C419.42316 194.01753 421.43787 192.00282 423.92316 192.00282C426.40845 192.00282 428.42316 194.01753 428.42316 196.50282Z" fill-rule="nonzero"/><path fill="#990000" clip-path="url(#id_0)" d="M440.09552 193.1312C440.09552 195.61647 438.08078 197.6312 435.59552 197.6312C433.11023 197.6312 431.09552 195.61647 431.09552 193.1312C431.09552 190.64592 433.11023 188.6312 435.59552 188.6312C438.08078 188.6312 440.09552 190.64592 440.09552 193.1312Z" fill-rule="nonzero"/><path fill="#990000" clip-path="url(#id_0)" d="M451.76788 179.6447C451.76788 182.12997 449.75314 184.1447 447.26788 184.1447C444.7826 184.1447 442.76788 182.12997 442.76788 179.6447C442.76788 177.15942 444.7826 175.1447 447.26788 175.1447C449.75314 175.1447 451.76788 177.15942 451.76788 179.6447Z" fill-rule="nonzero"/><path fill="#990000" clip-path="url(#id_0)" d="M463.44022 176.27307C463.44022 178.75836 461.4255 180.77307 458.94022 180.77307C456.45496 180.77307 454.44022 178.75836 454.44022 176.27307C454.44022 173.7878 456.45496 171.77307 458.94022 171.77307C461.4255 171.77307 463.44022 173.7878 463.44022 176.27307Z" fill-rule="nonzero"/><path fill="#990000" clip-path="url(#id_0)" d="M475.11258 193.1312C475.11258 195.61647 473.09787 197.6312 470.61258 197.6312C468.12732 197.6312 466.11258 195.61647 466.11258 193.1312C466.11258 190.64592 468.12732 188.6312 470.61258 188.6312C473.09787 188.6312 475.11258 190.64592 475.11258 193.1312Z" fill-rule="nonzero"/><path fill="#990000" clip-path="url(#id_0)" d="M486.78494 122.327095C486.78494 124.81237 484.77023 126.827095 482.28494 126.827095C479.79965 126.827095 477.78494 124.81237 477.78494 122.327095C477.78494 119.84181 479.79965 117.827095 482.28494 117.827095C484.77023 117.827095 486.78494 119.84181 486.78494 122.327095Z" fill-rule="nonzero"/><path fill="#990000" clip-path="url(#id_0)" d="M498.4573 169.52983C498.4573 172.0151 496.4426 174.02983 493.9573 174.02983C491.47202 174.02983 489.4573 172.0151 489.4573 169.52983C489.4573 167.04454 491.47202 165.02983 493.9573 165.02983C496.4426 165.02983 498.4573 167.04454 498.4573 169.52983Z" fill-rule="nonzero"/><path fill="#990000" clip-path="url(#id_0)" d="M510.12967 149.30008C510.12967 151.78537 508.11496 153.80008 505.62967 153.80008C503.14438 153.80008 501.12967 151.78537 501.12967 149.30008C501.12967 146.8148 503.14438 144.80008 505.62967 144.80008C508.11496 144.80008 510.12967 146.8148 510.12967 149.30008Z" fill-rule="nonzero"/><path fill="#4285f4" clip-path="url(#id_0)" d="M521.802 176.27307C521.802 178.75836 519.7873 180.77307 517.302 180.77307C514.8168 180.77307 512.802 178.75836 512.802 176.27307C512.802 173.7878 514.8168 171.77307 517.302 171.77307C519.7873 171.77307 521.802 173.7878 521.802 176.27307Z" fill-rule="nonzero"/><path fill="#990000" clip-path="url(#id_0)" d="M533.47437 149.30008C533.47437 151.78537 531.45966 153.80008 528.97437 153.80008C526.4891 153.80008 524.47437 151.78537 524.47437 149.30008C524.47437 146.8148 526.4891 144.80008 528.97437 144.80008C531.45966 144.80008 533.47437 146.8148 533.47437 149.30008Z" fill-rule="nonzero"/><path fill="#990000" clip-path="url(#id_0)" d="M545.1467 169.52983C545.1467 172.0151 543.132 174.02983 540.6467 174.02983C538.16144 174.02983 536.1467 172.0151 536.1467 169.52983C536.1467 167.04454 538.16144 165.02983 540.6467 165.02983C543.132 165.02983 545.1467 167.04454 545.1467 169.52983Z" fill-rule="nonzero"/><path fill="#990000" clip-path="url(#id_0)" d="M556.8191 162.78658C556.8191 165.27187 554.8044 167.28658 552.3191 167.28658C549.8338 167.28658 547.8191 165.27187 547.8191 162.78658C547.8191 160.3013 549.8338 158.28658 552.3191 158.28658C554.8044 158.28658 556.8191 160.3013 556.8191 162.78658Z" fill-rule="nonzero"/><path fill="#4285f4" clip-path="url(#id_0)" d="M568.49146 213.36093C568.49146 215.84622 566.47675 217.86093 563.99146 217.86093C561.50616 217.86093 559.49146 215.84622 559.49146 213.36093C559.49146 210.87566 561.50616 208.86093 563.99146 208.86093C566.47675 208.86093 568.49146 210.87566 568.49146 213.36093Z" fill-rule="nonzero"/><path fill="#4285f4" clip-path="url(#id_0)" d="M580.1638 169.52983C580.1638 172.0151 578.1491 174.02983 575.6638 174.02983C573.1785 174.02983 571.1638 172.0151 571.1638 169.52983C571.1638 167.04454 573.1785 165.02983 575.6638 165.02983C578.1491 165.02983 580.1638 167.04454 580.1638 169.52983Z" fill-rule="nonzero"/><path fill="#000000" d="M26.040234 311.76642L24.993359 311.76642L24.993359 305.04767Q24.602734 305.40704 23.977734 305.78204Q23.368359 306.14142 22.883984 306.3133L22.883984 305.29767Q23.758984 304.8758 24.415234 304.29767Q25.087109 303.70392 25.368359 303.14142L26.040234 303.14142L26.040234 311.76642ZM29.665234 311.76642L29.665234 310.5633L30.868359 310.5633L30.868359 311.76642L29.665234 311.76642ZM32.071484 307.53204Q32.071484 306.0008 32.383984 305.07892Q32.696484 304.14142 33.30586 303.64142Q33.93086 303.14142 34.86836 303.14142Q35.55586 303.14142 36.071484 303.42267Q36.602734 303.70392 36.946484 304.23517Q37.290234 304.7508 37.477734 305.5008Q37.665234 306.2508 37.665234 307.53204Q37.665234 309.04767 37.352734 309.96954Q37.05586 310.89142 36.43086 311.40704Q35.821484 311.90704 34.86836 311.90704Q33.633984 311.90704 32.915234 311.01642Q32.071484 309.95392 32.071484 307.53204ZM33.14961 307.53204Q33.14961 309.64142 33.64961 310.34454Q34.14961 311.04767 34.86836 311.04767Q35.602734 311.04767 36.08711 310.34454Q36.58711 309.64142 36.58711 307.53204Q36.58711 305.40704 36.08711 304.71954Q35.602734 304.01642 34.852734 304.01642Q34.133984 304.01642 33.696484 304.6258Q33.14961 305.40704 33.14961 307.53204Z" fill-rule="nonzero"/><path fill="#000000" d="M27.618359 239.94669L27.618359 240.96231L21.930859 240.96231Q21.930859 240.58731 22.055859 240.22794Q22.274609 239.64981 22.743359 239.08731Q23.227734 238.52481 24.133984 237.79044Q25.540234 236.63419 26.024609 235.96231Q26.524609 235.29044 26.524609 234.69669Q26.524609 234.07169 26.071484 233.64981Q25.618359 233.21231 24.899609 233.21231Q24.133984 233.21231 23.680859 233.66544Q23.227734 234.11856 23.212109 234.93106L22.133984 234.82169Q22.243359 233.60294 22.962109 232.97794Q23.696484 232.33731 24.930859 232.33731Q26.165234 232.33731 26.883984 233.02481Q27.602734 233.71231 27.602734 234.72794Q27.602734 235.24356 27.383984 235.74356Q27.180859 236.22794 26.680859 236.79044Q26.196484 237.33731 25.071484 238.29044Q24.118359 239.08731 23.837109 239.38419Q23.571484 239.66544 23.399609 239.94669L27.618359 239.94669ZM29.665234 240.96231L29.665234 239.75919L30.868359 239.75919L30.868359 240.96231L29.665234 240.96231ZM32.071484 236.72794Q32.071484 235.19669 32.383984 234.27481Q32.696484 233.33731 33.30586 232.83731Q33.93086 232.33731 34.86836 232.33731Q35.55586 232.33731 36.071484 232.61856Q36.602734 232.89981 36.946484 233.43106Q37.290234 233.94669 37.477734 234.69669Q37.665234 235.44669 37.665234 236.72794Q37.665234 238.24356 37.352734 239.16544Q37.05586 240.08731 36.43086 240.60294Q35.821484 241.10294 34.86836 241.10294Q33.633984 241.10294 32.915234 240.21231Q32.071484 239.14981 32.071484 236.72794ZM33.14961 236.72794Q33.14961 238.83731 33.64961 239.54044Q34.14961 240.24356 34.86836 240.24356Q35.602734 240.24356 36.08711 239.54044Q36.58711 238.83731 36.58711 236.72794Q36.58711 234.60294 36.08711 233.91544Q35.602734 233.21231 34.852734 233.21231Q34.133984 233.21231 33.696484 233.82169Q33.14961 234.60294 33.14961 236.72794Z" fill-rule="nonzero"/><path fill="#000000" d="M22.071484 167.89258L23.133984 167.75195Q23.305859 168.64258 23.743359 169.04883Q24.180859 169.43945 24.805859 169.43945Q25.555859 169.43945 26.071484 168.92383Q26.587109 168.4082 26.587109 167.64258Q26.587109 166.92383 26.102734 166.45508Q25.633984 165.9707 24.899609 165.9707Q24.602734 165.9707 24.149609 166.0957L24.274609 165.1582Q24.383984 165.17383 24.446484 165.17383Q25.118359 165.17383 25.649609 164.83008Q26.196484 164.4707 26.196484 163.73633Q26.196484 163.1582 25.805859 162.7832Q25.415234 162.39258 24.790234 162.39258Q24.180859 162.39258 23.758984 162.7832Q23.352734 163.17383 23.243359 163.93945L22.180859 163.75195Q22.368359 162.70508 23.055859 162.12695Q23.743359 161.5332 24.758984 161.5332Q25.462109 161.5332 26.055859 161.8457Q26.649609 162.14258 26.962109 162.6582Q27.274609 163.17383 27.274609 163.76758Q27.274609 164.31445 26.977734 164.7832Q26.680859 165.23633 26.102734 165.50195Q26.852734 165.67383 27.274609 166.23633Q27.696484 166.7832 27.696484 167.62695Q27.696484 168.75195 26.868359 169.5332Q26.055859 170.31445 24.805859 170.31445Q23.680859 170.31445 22.930859 169.64258Q22.180859 168.95508 22.071484 167.89258ZM29.665234 170.1582L29.665234 168.95508L30.868359 168.95508L30.868359 170.1582L29.665234 170.1582ZM32.071484 165.92383Q32.071484 164.39258 32.383984 163.4707Q32.696484 162.5332 33.30586 162.0332Q33.93086 161.5332 34.86836 161.5332Q35.55586 161.5332 36.071484 161.81445Q36.602734 162.0957 36.946484 162.62695Q37.290234 163.14258 37.477734 163.89258Q37.665234 164.64258 37.665234 165.92383Q37.665234 167.43945 37.352734 168.36133Q37.05586 169.2832 36.43086 169.79883Q35.821484 170.29883 34.86836 170.29883Q33.633984 170.29883 32.915234 169.4082Q32.071484 168.3457 32.071484 165.92383ZM33.14961 165.92383Q33.14961 168.0332 33.64961 168.73633Q34.14961 169.43945 34.86836 169.43945Q35.602734 169.43945 36.08711 168.73633Q36.58711 168.0332 36.58711 165.92383Q36.58711 163.79883 36.08711 163.11133Q35.602734 162.4082 34.852734 162.4082Q34.133984 162.4082 33.696484 163.01758Q33.14961 163.79883 33.14961 165.92383Z" fill-rule="nonzero"/><path fill="#000000" d="M25.446484 99.3541L25.446484 97.2916L21.727734 97.2916L21.727734 96.32285L25.649609 90.76035L26.508984 90.76035L26.508984 96.32285L27.665234 96.32285L27.665234 97.2916L26.508984 97.2916L26.508984 99.3541L25.446484 99.3541ZM25.446484 96.32285L25.446484 92.46348L22.758984 96.32285L25.446484 96.32285ZM29.665234 99.3541L29.665234 98.15098L30.868359 98.15098L30.868359 99.3541L29.665234 99.3541ZM32.071484 95.11973Q32.071484 93.58848 32.383984 92.6666Q32.696484 91.7291 33.30586 91.2291Q33.93086 90.7291 34.86836 90.7291Q35.55586 90.7291 36.071484 91.01035Q36.602734 91.2916 36.946484 91.82285Q37.290234 92.33848 37.477734 93.08848Q37.665234 93.83848 37.665234 95.11973Q37.665234 96.63535 37.352734 97.55723Q37.05586 98.4791 36.43086 98.99473Q35.821484 99.49473 34.86836 99.49473Q33.633984 99.49473 32.915234 98.6041Q32.071484 97.5416 32.071484 95.11973ZM33.14961 95.11973Q33.14961 97.2291 33.64961 97.93223Q34.14961 98.63535 34.86836 98.63535Q35.602734 98.63535 36.08711 97.93223Q36.58711 97.2291 36.58711 95.11973Q36.58711 92.99473 36.08711 92.30723Q35.602734 91.6041 34.852734 91.6041Q34.133984 91.6041 33.696484 92.21348Q33.14961 92.99473 33.14961 95.11973Z" fill-rule="nonzero"/><path fill="#000000" d="M22.071484 26.3L23.180859 26.20625Q23.305859 27.01875 23.743359 27.425Q24.196484 27.83125 24.837109 27.83125Q25.587109 27.83125 26.118359 27.253124Q26.649609 26.675 26.649609 25.7375Q26.649609 24.83125 26.133984 24.315624Q25.633984 23.784374 24.805859 23.784374Q24.305859 23.784374 23.883984 24.01875Q23.477734 24.253124 23.243359 24.6125L22.258984 24.4875L23.087109 20.08125L27.368359 20.08125L27.368359 21.08125L23.930859 21.08125L23.477734 23.39375Q24.243359 22.846874 25.087109 22.846874Q26.212109 22.846874 26.977734 23.628124Q27.758984 24.409374 27.758984 25.64375Q27.758984 26.8 27.087109 27.659374Q26.258984 28.690624 24.837109 28.690624Q23.665234 28.690624 22.915234 28.034374Q22.180859 27.378124 22.071484 26.3ZM29.665234 28.55L29.665234 27.346874L30.868359 27.346874L30.868359 28.55L29.665234 28.55ZM32.071484 24.315624Q32.071484 22.784374 32.383984 21.8625Q32.696484 20.925 33.30586 20.425Q33.93086 19.925 34.86836 19.925Q35.55586 19.925 36.071484 20.20625Q36.602734 20.4875 36.946484 21.01875Q37.290234 21.534374 37.477734 22.284374Q37.665234 23.034374 37.665234 24.315624Q37.665234 25.83125 37.352734 26.753124Q37.05586 27.675 36.43086 28.190624Q35.821484 28.690624 34.86836 28.690624Q33.633984 28.690624 32.915234 27.8Q32.071484 26.7375 32.071484 24.315624ZM33.14961 24.315624Q33.14961 26.425 33.64961 27.128124Q34.14961 27.83125 34.86836 27.83125Q35.602734 27.83125 36.08711 27.128124Q36.58711 26.425 36.58711 24.315624Q36.58711 22.190624 36.08711 21.503124Q35.602734 20.8 34.852734 20.8Q34.133984 20.8 33.696484 21.409374Q33.14961 22.190624 33.14961 24.315624Z" fill-rule="nonzero"/><path fill="#000000" d="M54.407673 323.78204L45.813923 320.48517L45.813923 319.26642L54.407673 315.7508L54.407673 317.03204L51.798298 318.04767L51.798298 321.6258L54.407673 322.57892L54.407673 323.78204ZM50.876423 321.29767L50.876423 318.39142L48.501423 319.28204Q47.423298 319.70392 46.720173 319.89142Q47.548298 320.0633 48.360798 320.36017L50.876423 321.29767ZM54.407673 315.64142L45.813923 315.64142L45.813923 314.51642L54.407673 314.51642L54.407673 315.64142Z" fill-rule="nonzero"/><path fill="#000000" d="M77.75239 346.79764L69.15864 346.79764L69.15864 345.67264L72.68989 345.67264L72.68989 341.2039L69.15864 341.2039L69.15864 340.06326L77.75239 340.06326L77.75239 341.2039L73.70551 341.2039L73.70551 345.67264L77.75239 345.67264L77.75239 346.79764ZM77.75239 333.8914L76.83051 333.8914Q77.89301 334.62576 77.89301 335.87576Q77.89301 336.42264 77.68989 336.907Q77.47114 337.37576 77.15864 337.61014Q76.83051 337.8445 76.36176 337.93826Q76.06489 338.00076 75.37739 338.00076L71.53364 338.00076L71.53364 336.93826L74.98676 336.93826Q75.79926 336.93826 76.09614 336.87576Q76.50239 336.782 76.75239 336.4695Q76.98676 336.1414 76.98676 335.657Q76.98676 335.18826 76.75239 334.782Q76.50239 334.36014 76.08051 334.18826Q75.65864 334.00076 74.86176 334.00076L71.53364 334.00076L71.53364 332.9539L77.75239 332.9539L77.75239 333.8914ZM77.75239 330.9695L71.53364 330.9695L71.53364 330.032L72.40864 330.032Q71.93989 329.73514 71.67426 329.25076Q71.39301 328.7664 71.39301 328.1414Q71.39301 327.4539 71.67426 327.0164Q71.95551 326.56326 72.47114 326.3914Q71.39301 325.6414 71.39301 324.4695Q71.39301 323.532 71.90864 323.04764Q72.40864 322.54764 73.48676 322.54764L77.75239 322.54764L77.75239 323.5945L73.83051 323.5945Q73.20551 323.5945 72.92426 323.7039Q72.64301 323.79764 72.47114 324.06326Q72.29926 324.3289 72.29926 324.7039Q72.29926 325.36014 72.73676 325.79764Q73.17426 326.2195 74.14301 326.2195L77.75239 326.2195L77.75239 327.282L73.70551 327.282Q73.00239 327.282 72.65864 327.54764Q72.29926 327.79764 72.29926 328.37576Q72.29926 328.8289 72.53364 329.2039Q72.76801 329.5789 73.22114 329.75076Q73.67426 329.92264 74.51801 329.92264L77.75239 329.92264L77.75239 330.9695ZM76.98676 315.907Q77.48676 316.50076 77.68989 317.04764Q77.89301 317.5789 77.89301 318.2039Q77.89301 319.23514 77.39301 319.782Q76.89301 320.3289 76.11176 320.3289Q75.65864 320.3289 75.28364 320.12576Q74.89301 319.92264 74.67426 319.5789Q74.43989 319.23514 74.33051 318.81326Q74.23676 318.5164 74.15864 317.87576Q74.01801 316.61014 73.79926 316.00076Q73.58051 316.00076 73.53364 316.00076Q72.87739 316.00076 72.61176 316.29764Q72.26801 316.7039 72.26801 317.50076Q72.26801 318.23514 72.53364 318.5945Q72.78364 318.9539 73.43989 319.12576L73.29926 320.157Q72.64301 320.0164 72.23676 319.68826Q71.83051 319.36014 71.61176 318.75076Q71.39301 318.1414 71.39301 317.3445Q71.39301 316.54764 71.58051 316.04764Q71.76801 315.54764 72.04926 315.31326Q72.33051 315.0789 72.76801 314.98514Q73.03364 314.93826 73.73676 314.93826L75.14301 314.93826Q76.61176 314.93826 77.00239 314.87576Q77.39301 314.79764 77.75239 314.5945L77.75239 315.7039Q77.42426 315.86014 76.98676 315.907ZM74.62739 316.00076Q74.86176 316.5789 75.03364 317.7195Q75.12739 318.37576 75.25239 318.6414Q75.36176 318.907 75.58051 319.06326Q75.79926 319.2039 76.08051 319.2039Q76.50239 319.2039 76.78364 318.8914Q77.06489 318.56326 77.06489 317.9539Q77.06489 317.3445 76.79926 316.87576Q76.53364 316.3914 76.06489 316.17264Q75.70551 316.00076 75.01801 316.00076L74.62739 316.00076Z" fill-rule="nonzero"/><path fill="#000000" d="M101.09711 346.79767L92.50336 346.79767L92.50336 345.67267L96.03461 345.67267L96.03461 341.20392L92.50336 341.20392L92.50336 340.0633L101.09711 340.0633L101.09711 341.20392L97.05023 341.20392L97.05023 345.67267L101.09711 345.67267L101.09711 346.79767ZM101.09711 333.89142L100.17523 333.89142Q101.23773 334.6258 101.23773 335.8758Q101.23773 336.42267 101.03461 336.90704Q100.81586 337.3758 100.50336 337.61017Q100.17523 337.84454 99.70648 337.9383Q99.40961 338.0008 98.72211 338.0008L94.87836 338.0008L94.87836 336.9383L98.33148 336.9383Q99.14398 336.9383 99.44086 336.8758Q99.84711 336.78204 100.09711 336.46954Q100.33148 336.14142 100.33148 335.65704Q100.33148 335.1883 100.09711 334.78204Q99.84711 334.36017 99.42523 334.1883Q99.00336 334.0008 98.20648 334.0008L94.87836 334.0008L94.87836 332.95392L101.09711 332.95392L101.09711 333.89142ZM101.09711 330.96954L94.87836 330.96954L94.87836 330.03204L95.75336 330.03204Q95.28461 329.73517 95.01898 329.2508Q94.73773 328.76642 94.73773 328.14142Q94.73773 327.45392 95.01898 327.01642Q95.30023 326.5633 95.81586 326.39142Q94.73773 325.64142 94.73773 324.46954Q94.73773 323.53204 95.25336 323.04767Q95.75336 322.54767 96.83148 322.54767L101.09711 322.54767L101.09711 323.59454L97.17523 323.59454Q96.55023 323.59454 96.26898 323.70392Q95.98773 323.79767 95.81586 324.0633Q95.64398 324.32892 95.64398 324.70392Q95.64398 325.36017 96.08148 325.79767Q96.51898 326.21954 97.48773 326.21954L101.09711 326.21954L101.09711 327.28204L97.05023 327.28204Q96.34711 327.28204 96.00336 327.54767Q95.64398 327.79767 95.64398 328.3758Q95.64398 328.82892 95.87836 329.20392Q96.11273 329.57892 96.56586 329.7508Q97.01898 329.92267 97.86273 329.92267L101.09711 329.92267L101.09711 330.96954ZM100.33148 315.90704Q100.83148 316.5008 101.03461 317.04767Q101.23773 317.57892 101.23773 318.20392Q101.23773 319.23517 100.73773 319.78204Q100.23773 320.32892 99.45648 320.32892Q99.00336 320.32892 98.62836 320.1258Q98.23773 319.92267 98.01898 319.57892Q97.78461 319.23517 97.67523 318.8133Q97.58148 318.51642 97.50336 317.8758Q97.36273 316.61017 97.14398 316.0008Q96.92523 316.0008 96.87836 316.0008Q96.22211 316.0008 95.95648 316.29767Q95.61273 316.70392 95.61273 317.5008Q95.61273 318.23517 95.87836 318.59454Q96.12836 318.95392 96.78461 319.1258L96.64398 320.15704Q95.98773 320.01642 95.58148 319.6883Q95.17523 319.36017 94.95648 318.7508Q94.73773 318.14142 94.73773 317.34454Q94.73773 316.54767 94.92523 316.04767Q95.11273 315.54767 95.39398 315.3133Q95.67523 315.0789 96.11273 314.98514Q96.37836 314.93826 97.08148 314.93826L98.48773 314.93826Q99.95648 314.93826 100.34711 314.87576Q100.73773 314.79764 101.09711 314.5945L101.09711 315.70392Q100.76898 315.86017 100.33148 315.90704ZM97.97211 316.0008Q98.20648 316.57892 98.37836 317.71954Q98.47211 318.3758 98.59711 318.64142Q98.70648 318.90704 98.92523 319.0633Q99.14398 319.20392 99.42523 319.20392Q99.84711 319.20392 100.12836 318.89142Q100.40961 318.5633 100.40961 317.95392Q100.40961 317.34454 100.14398 316.8758Q99.87836 316.39142 99.40961 316.17267Q99.05023 316.0008 98.36273 316.0008L97.97211 316.0008Z" fill-rule="nonzero"/><path fill="#000000" d="M124.441826 346.79767L115.848076 346.79767L115.848076 345.67267L119.379326 345.67267L119.379326 341.20392L115.848076 341.20392L115.848076 340.0633L124.441826 340.0633L124.441826 341.20392L120.39495 341.20392L120.39495 345.67267L124.441826 345.67267L124.441826 346.79767ZM124.441826 333.89142L123.51995 333.89142Q124.58245 334.6258 124.58245 335.8758Q124.58245 336.42267 124.379326 336.90704Q124.160576 337.3758 123.848076 337.61017Q123.51995 337.84454 123.0512 337.9383Q122.754326 338.0008 122.066826 338.0008L118.223076 338.0008L118.223076 336.9383L121.6762 336.9383Q122.4887 336.9383 122.785576 336.8758Q123.191826 336.78204 123.441826 336.46954Q123.6762 336.14142 123.6762 335.65704Q123.6762 335.1883 123.441826 334.78204Q123.191826 334.36017 122.76995 334.1883Q122.348076 334.0008 121.5512 334.0008L118.223076 334.0008L118.223076 332.95392L124.441826 332.95392L124.441826 333.89142ZM124.441826 330.96954L118.223076 330.96954L118.223076 330.03204L119.098076 330.03204Q118.629326 329.73517 118.3637 329.2508Q118.08245 328.76642 118.08245 328.14142Q118.08245 327.45392 118.3637 327.01642Q118.64495 326.5633 119.160576 326.39142Q118.08245 325.64142 118.08245 324.46954Q118.08245 323.53204 118.598076 323.04767Q119.098076 322.54767 120.1762 322.54767L124.441826 322.54767L124.441826 323.59454L120.51995 323.59454Q119.89495 323.59454 119.6137 323.70392Q119.33245 323.79767 119.160576 324.0633Q118.9887 324.32892 118.9887 324.70392Q118.9887 325.36017 119.4262 325.79767Q119.8637 326.21954 120.83245 326.21954L124.441826 326.21954L124.441826 327.28204L120.39495 327.28204Q119.691826 327.28204 119.348076 327.54767Q118.9887 327.79767 118.9887 328.3758Q118.9887 328.82892 119.223076 329.20392Q119.45745 329.57892 119.910576 329.7508Q120.3637 329.92267 121.20745 329.92267L124.441826 329.92267L124.441826 330.96954ZM123.6762 315.90704Q124.1762 316.5008 124.379326 317.04767Q124.58245 317.57892 124.58245 318.20392Q124.58245 319.23517 124.08245 319.78204Q123.58245 320.32892 122.8012 320.32892Q122.348076 320.32892 121.973076 320.1258Q121.58245 319.92267 121.3637 319.57892Q121.129326 319.23517 121.01995 318.8133Q120.9262 318.51642 120.848076 317.8758Q120.70745 316.61017 120.4887 316.0008Q120.26995 316.0008 120.223076 316.0008Q119.566826 316.0008 119.3012 316.29767Q118.95745 316.70392 118.95745 317.5008Q118.95745 318.23517 119.223076 318.59454Q119.473076 318.95392 120.129326 319.1258L119.9887 320.15704Q119.33245 320.01642 118.9262 319.6883Q118.51995 319.36017 118.3012 318.7508Q118.08245 318.14142 118.08245 317.34454Q118.08245 316.54767 118.26995 316.04767Q118.45745 315.54767 118.7387 315.3133Q119.01995 315.07892 119.45745 314.98517Q119.723076 314.9383 120.4262 314.9383L121.83245 314.9383Q123.3012 314.9383 123.691826 314.8758Q124.08245 314.79767 124.441826 314.59454L124.441826 315.70392Q124.1137 315.86017 123.6762 315.90704ZM121.316826 316.0008Q121.5512 316.57892 121.723076 317.71954Q121.816826 318.3758 121.941826 318.64142Q122.0512 318.90704 122.26995 319.0633Q122.4887 319.20392 122.76995 319.20392Q123.191826 319.20392 123.473076 318.89142Q123.754326 318.5633 123.754326 317.95392Q123.754326 317.34454 123.4887 316.8758Q123.223076 316.39142 122.754326 316.17267Q122.39495 316.0008 121.70745 316.0008L121.316826 316.0008Z" fill-rule="nonzero"/><path fill="#000000" d="M147.78654 346.79764L139.1928 346.79764L139.1928 345.67264L142.72404 345.67264L142.72404 341.2039L139.1928 341.2039L139.1928 340.06326L147.78654 340.06326L147.78654 341.2039L143.73967 341.2039L143.73967 345.67264L147.78654 345.67264L147.78654 346.79764ZM147.78654 333.8914L146.86467 333.8914Q147.92717 334.62576 147.92717 335.87576Q147.92717 336.42264 147.72404 336.907Q147.5053 337.37576 147.1928 337.61014Q146.86467 337.8445 146.39592 337.93826Q146.09904 338.00076 145.41154 338.00076L141.5678 338.00076L141.5678 336.93826L145.02092 336.93826Q145.83342 336.93826 146.1303 336.87576Q146.53654 336.782 146.78654 336.4695Q147.02092 336.1414 147.02092 335.657Q147.02092 335.18826 146.78654 334.782Q146.53654 334.36014 146.11467 334.18826Q145.6928 334.00076 144.89592 334.00076L141.5678 334.00076L141.5678 332.9539L147.78654 332.9539L147.78654 333.8914ZM147.78654 330.9695L141.5678 330.9695L141.5678 330.032L142.4428 330.032Q141.97404 329.73514 141.70842 329.25076Q141.42717 328.7664 141.42717 328.1414Q141.42717 327.4539 141.70842 327.0164Q141.98967 326.56326 142.5053 326.3914Q141.42717 325.6414 141.42717 324.4695Q141.42717 323.532 141.9428 323.04764Q142.4428 322.54764 143.52092 322.54764L147.78654 322.54764L147.78654 323.5945L143.86467 323.5945Q143.23967 323.5945 142.95842 323.7039Q142.67717 323.79764 142.5053 324.06326Q142.33342 324.3289 142.33342 324.7039Q142.33342 325.36014 142.77092 325.79764Q143.20842 326.2195 144.17717 326.2195L147.78654 326.2195L147.78654 327.282L143.73967 327.282Q143.03654 327.282 142.6928 327.54764Q142.33342 327.79764 142.33342 328.37576Q142.33342 328.8289 142.5678 329.2039Q142.80217 329.5789 143.2553 329.75076Q143.70842 329.92264 144.55217 329.92264L147.78654 329.92264L147.78654 330.9695ZM147.02092 315.907Q147.52092 316.50076 147.72404 317.04764Q147.92717 317.5789 147.92717 318.2039Q147.92717 319.23514 147.42717 319.782Q146.92717 320.3289 146.14592 320.3289Q145.6928 320.3289 145.3178 320.12576Q144.92717 319.92264 144.70842 319.5789Q144.47404 319.23514 144.36467 318.81326Q144.27092 318.5164 144.1928 317.87576Q144.05217 316.61014 143.83342 316.00076Q143.61467 316.00076 143.5678 316.00076Q142.91154 316.00076 142.64592 316.29764Q142.30217 316.7039 142.30217 317.50076Q142.30217 318.23514 142.5678 318.5945Q142.8178 318.9539 143.47404 319.12576L143.33342 320.157Q142.67717 320.0164 142.27092 319.68826Q141.86467 319.36014 141.64592 318.75076Q141.42717 318.1414 141.42717 317.3445Q141.42717 316.54764 141.61467 316.04764Q141.80217 315.54764 142.08342 315.31326Q142.36467 315.0789 142.80217 314.98514Q143.0678 314.93826 143.77092 314.93826L145.17717 314.93826Q146.64592 314.93826 147.03654 314.87576Q147.42717 314.79764 147.78654 314.5945L147.78654 315.7039Q147.45842 315.86014 147.02092 315.907ZM144.66154 316.00076Q144.89592 316.5789 145.0678 317.7195Q145.16154 318.37576 145.28654 318.6414Q145.39592 318.907 145.61467 319.06326Q145.83342 319.2039 146.11467 319.2039Q146.53654 319.2039 146.8178 318.8914Q147.09904 318.56326 147.09904 317.9539Q147.09904 317.3445 146.83342 316.87576Q146.5678 316.3914 146.09904 316.17264Q145.73967 316.00076 145.05217 316.00076L144.66154 316.00076Z" fill-rule="nonzero"/><path fill="#000000" d="M171.13127 346.79767L162.53752 346.79767L162.53752 345.67267L166.06877 345.67267L166.06877 341.20392L162.53752 341.20392L162.53752 340.0633L171.13127 340.0633L171.13127 341.20392L167.0844 341.20392L167.0844 345.67267L171.13127 345.67267L171.13127 346.79767ZM171.13127 333.89142L170.2094 333.89142Q171.2719 334.6258 171.2719 335.8758Q171.2719 336.42267 171.06877 336.90704Q170.85002 337.3758 170.53752 337.61017Q170.2094 337.84454 169.74065 337.9383Q169.44377 338.0008 168.75627 338.0008L164.91252 338.0008L164.91252 336.9383L168.36565 336.9383Q169.17815 336.9383 169.47502 336.8758Q169.88127 336.78204 170.13127 336.46954Q170.36565 336.14142 170.36565 335.65704Q170.36565 335.1883 170.13127 334.78204Q169.88127 334.36017 169.4594 334.1883Q169.03752 334.0008 168.24065 334.0008L164.91252 334.0008L164.91252 332.95392L171.13127 332.95392L171.13127 333.89142ZM171.13127 330.96954L164.91252 330.96954L164.91252 330.03204L165.78752 330.03204Q165.31877 329.73517 165.05315 329.2508Q164.7719 328.76642 164.7719 328.14142Q164.7719 327.45392 165.05315 327.01642Q165.3344 326.5633 165.85002 326.39142Q164.7719 325.64142 164.7719 324.46954Q164.7719 323.53204 165.28752 323.04767Q165.78752 322.54767 166.86565 322.54767L171.13127 322.54767L171.13127 323.59454L167.2094 323.59454Q166.5844 323.59454 166.30315 323.70392Q166.0219 323.79767 165.85002 324.0633Q165.67815 324.32892 165.67815 324.70392Q165.67815 325.36017 166.11565 325.79767Q166.55315 326.21954 167.5219 326.21954L171.13127 326.21954L171.13127 327.28204L167.0844 327.28204Q166.38127 327.28204 166.03752 327.54767Q165.67815 327.79767 165.67815 328.3758Q165.67815 328.82892 165.91252 329.20392Q166.1469 329.57892 166.60002 329.7508Q167.05315 329.92267 167.8969 329.92267L171.13127 329.92267L171.13127 330.96954ZM170.36565 315.90704Q170.86565 316.5008 171.06877 317.04767Q171.2719 317.57892 171.2719 318.20392Q171.2719 319.23517 170.7719 319.78204Q170.2719 320.32892 169.49065 320.32892Q169.03752 320.32892 168.66252 320.1258Q168.2719 319.92267 168.05315 319.57892Q167.81877 319.23517 167.7094 318.8133Q167.61565 318.51642 167.53752 317.8758Q167.3969 316.61017 167.17815 316.0008Q166.9594 316.0008 166.91252 316.0008Q166.25627 316.0008 165.99065 316.29767Q165.6469 316.70392 165.6469 317.5008Q165.6469 318.23517 165.91252 318.59454Q166.16252 318.95392 166.81877 319.1258L166.67815 320.15704Q166.0219 320.01642 165.61565 319.6883Q165.2094 319.36017 164.99065 318.7508Q164.7719 318.14142 164.7719 317.34454Q164.7719 316.54767 164.9594 316.04767Q165.1469 315.54767 165.42815 315.3133Q165.7094 315.07892 166.1469 314.98517Q166.41252 314.9383 167.11565 314.9383L168.5219 314.9383Q169.99065 314.9383 170.38127 314.8758Q170.7719 314.79767 171.13127 314.59454L171.13127 315.70392Q170.80315 315.86017 170.36565 315.90704ZM168.00627 316.0008Q168.24065 316.57892 168.41252 317.71954Q168.50627 318.3758 168.63127 318.64142Q168.74065 318.90704 168.9594 319.0633Q169.17815 319.20392 169.4594 319.20392Q169.88127 319.20392 170.16252 318.89142Q170.44377 318.5633 170.44377 317.95392Q170.44377 317.34454 170.17815 316.8758Q169.91252 316.39142 169.44377 316.17267Q169.0844 316.0008 168.3969 316.0008L168.00627 316.0008Z" fill-rule="nonzero"/><path fill="#000000" d="M194.47598 346.79767L185.88223 346.79767L185.88223 345.67267L189.41348 345.67267L189.41348 341.20392L185.88223 341.20392L185.88223 340.0633L194.47598 340.0633L194.47598 341.20392L190.42911 341.20392L190.42911 345.67267L194.47598 345.67267L194.47598 346.79767ZM194.47598 333.89142L193.55411 333.89142Q194.61661 334.6258 194.61661 335.8758Q194.61661 336.42267 194.41348 336.90704Q194.19473 337.3758 193.88223 337.61017Q193.55411 337.84454 193.08536 337.9383Q192.78848 338.0008 192.10098 338.0008L188.25723 338.0008L188.25723 336.9383L191.71036 336.9383Q192.52286 336.9383 192.81973 336.8758Q193.22598 336.78204 193.47598 336.46954Q193.71036 336.14142 193.71036 335.65704Q193.71036 335.1883 193.47598 334.78204Q193.22598 334.36017 192.80411 334.1883Q192.38223 334.0008 191.58536 334.0008L188.25723 334.0008L188.25723 332.95392L194.47598 332.95392L194.47598 333.89142ZM194.47598 330.96954L188.25723 330.96954L188.25723 330.03204L189.13223 330.03204Q188.66348 329.73517 188.39786 329.2508Q188.11661 328.76642 188.11661 328.14142Q188.11661 327.45392 188.39786 327.01642Q188.67911 326.5633 189.19473 326.39142Q188.11661 325.64142 188.11661 324.46954Q188.11661 323.53204 188.63223 323.04767Q189.13223 322.54767 190.21036 322.54767L194.47598 322.54767L194.47598 323.59454L190.55411 323.59454Q189.92911 323.59454 189.64786 323.70392Q189.36661 323.79767 189.19473 324.0633Q189.02286 324.32892 189.02286 324.70392Q189.02286 325.36017 189.46036 325.79767Q189.89786 326.21954 190.86661 326.21954L194.47598 326.21954L194.47598 327.28204L190.42911 327.28204Q189.72598 327.28204 189.38223 327.54767Q189.02286 327.79767 189.02286 328.3758Q189.02286 328.82892 189.25723 329.20392Q189.49161 329.57892 189.94473 329.7508Q190.39786 329.92267 191.24161 329.92267L194.47598 329.92267L194.47598 330.96954ZM193.71036 315.90704Q194.21036 316.5008 194.41348 317.04767Q194.61661 317.57892 194.61661 318.20392Q194.61661 319.23517 194.11661 319.78204Q193.61661 320.32892 192.83536 320.32892Q192.38223 320.32892 192.00723 320.1258Q191.61661 319.92267 191.39786 319.57892Q191.16348 319.23517 191.05411 318.8133Q190.96036 318.51642 190.88223 317.8758Q190.74161 316.61017 190.52286 316.0008Q190.30411 316.0008 190.25723 316.0008Q189.60098 316.0008 189.33536 316.29767Q188.99161 316.70392 188.99161 317.5008Q188.99161 318.23517 189.25723 318.59454Q189.50723 318.95392 190.16348 319.1258L190.02286 320.15704Q189.36661 320.01642 188.96036 319.6883Q188.55411 319.36017 188.33536 318.7508Q188.11661 318.14142 188.11661 317.34454Q188.11661 316.54767 188.30411 316.04767Q188.49161 315.54767 188.77286 315.3133Q189.05411 315.07892 189.49161 314.98517Q189.75723 314.9383 190.46036 314.9383L191.86661 314.9383Q193.33536 314.9383 193.72598 314.8758Q194.11661 314.79767 194.47598 314.59454L194.47598 315.70392Q194.14786 315.86017 193.71036 315.90704ZM191.35098 316.0008Q191.58536 316.57892 191.75723 317.71954Q191.85098 318.3758 191.97598 318.64142Q192.08536 318.90704 192.30411 319.0633Q192.52286 319.20392 192.80411 319.20392Q193.22598 319.20392 193.50723 318.89142Q193.78848 318.5633 193.78848 317.95392Q193.78848 317.34454 193.52286 316.8758Q193.25723 316.39142 192.78848 316.17267Q192.42911 316.0008 191.74161 316.0008L191.35098 316.0008Z" fill-rule="nonzero"/><path fill="#000000" d="M217.8207 346.79767L209.22694 346.79767L209.22694 345.67267L212.7582 345.67267L212.7582 341.20392L209.22694 341.20392L209.22694 340.0633L217.8207 340.0633L217.8207 341.20392L213.77382 341.20392L213.77382 345.67267L217.8207 345.67267L217.8207 346.79767ZM217.8207 333.89142L216.89882 333.89142Q217.96132 334.6258 217.96132 335.8758Q217.96132 336.42267 217.7582 336.90704Q217.53944 337.3758 217.22694 337.61017Q216.89882 337.84454 216.43007 337.9383Q216.1332 338.0008 215.4457 338.0008L211.60194 338.0008L211.60194 336.9383L215.05507 336.9383Q215.86757 336.9383 216.16444 336.8758Q216.5707 336.78204 216.8207 336.46954Q217.05507 336.14142 217.05507 335.65704Q217.05507 335.1883 216.8207 334.78204Q216.5707 334.36017 216.14882 334.1883Q215.72694 334.0008 214.93007 334.0008L211.60194 334.0008L211.60194 332.95392L217.8207 332.95392L217.8207 333.89142ZM217.8207 330.96954L211.60194 330.96954L211.60194 330.03204L212.47694 330.03204Q212.0082 329.73517 211.74257 329.2508Q211.46132 328.76642 211.46132 328.14142Q211.46132 327.45392 211.74257 327.01642Q212.02382 326.5633 212.53944 326.39142Q211.46132 325.64142 211.46132 324.46954Q211.46132 323.53204 211.97694 323.04767Q212.47694 322.54767 213.55507 322.54767L217.8207 322.54767L217.8207 323.59454L213.89882 323.59454Q213.27382 323.59454 212.99257 323.70392Q212.71132 323.79767 212.53944 324.0633Q212.36757 324.32892 212.36757 324.70392Q212.36757 325.36017 212.80507 325.79767Q213.24257 326.21954 214.21132 326.21954L217.8207 326.21954L217.8207 327.28204L213.77382 327.28204Q213.0707 327.28204 212.72694 327.54767Q212.36757 327.79767 212.36757 328.3758Q212.36757 328.82892 212.60194 329.20392Q212.83632 329.57892 213.28944 329.7508Q213.74257 329.92267 214.58632 329.92267L217.8207 329.92267L217.8207 330.96954ZM217.05507 315.90704Q217.55507 316.5008 217.7582 317.04767Q217.96132 317.57892 217.96132 318.20392Q217.96132 319.23517 217.46132 319.78204Q216.96132 320.32892 216.18007 320.32892Q215.72694 320.32892 215.35194 320.1258Q214.96132 319.92267 214.74257 319.57892Q214.5082 319.23517 214.39882 318.8133Q214.30507 318.51642 214.22694 317.8758Q214.08632 316.61017 213.86757 316.0008Q213.64882 316.0008 213.60194 316.0008Q212.9457 316.0008 212.68007 316.29767Q212.33632 316.70392 212.33632 317.5008Q212.33632 318.23517 212.60194 318.59454Q212.85194 318.95392 213.5082 319.1258L213.36757 320.15704Q212.71132 320.01642 212.30507 319.6883Q211.89882 319.36017 211.68007 318.7508Q211.46132 318.14142 211.46132 317.34454Q211.46132 316.54767 211.64882 316.04767Q211.83632 315.54767 212.11757 315.3133Q212.39882 315.07892 212.83632 314.98517Q213.10194 314.9383 213.80507 314.9383L215.21132 314.9383Q216.68007 314.9383 217.0707 314.8758Q217.46132 314.79767 217.8207 314.59454L217.8207 315.70392Q217.49257 315.86017 217.05507 315.90704ZM214.6957 316.0008Q214.93007 316.57892 215.10194 317.71954Q215.1957 318.3758 215.3207 318.64142Q215.43007 318.90704 215.64882 319.0633Q215.86757 319.20392 216.14882 319.20392Q216.5707 319.20392 216.85194 318.89142Q217.1332 318.5633 217.1332 317.95392Q217.1332 317.34454 216.86757 316.8758Q216.60194 316.39142 216.1332 316.17267Q215.77382 316.0008 215.08632 316.0008L214.6957 316.0008Z" fill-rule="nonzero"/><path fill="#000000" d="M241.16542 346.79767L232.57167 346.79767L232.57167 345.67267L236.10292 345.67267L236.10292 341.20392L232.57167 341.20392L232.57167 340.0633L241.16542 340.0633L241.16542 341.20392L237.11855 341.20392L237.11855 345.67267L241.16542 345.67267L241.16542 346.79767ZM241.16542 333.89142L240.24355 333.89142Q241.30605 334.6258 241.30605 335.8758Q241.30605 336.42267 241.10292 336.90704Q240.88417 337.3758 240.57167 337.61017Q240.24355 337.84454 239.7748 337.9383Q239.47792 338.0008 238.79042 338.0008L234.94667 338.0008L234.94667 336.9383L238.3998 336.9383Q239.2123 336.9383 239.50917 336.8758Q239.91542 336.78204 240.16542 336.46954Q240.3998 336.14142 240.3998 335.65704Q240.3998 335.1883 240.16542 334.78204Q239.91542 334.36017 239.49355 334.1883Q239.07167 334.0008 238.2748 334.0008L234.94667 334.0008L234.94667 332.95392L241.16542 332.95392L241.16542 333.89142ZM241.16542 330.96954L234.94667 330.96954L234.94667 330.03204L235.82167 330.03204Q235.35292 329.73517 235.0873 329.2508Q234.80605 328.76642 234.80605 328.14142Q234.80605 327.45392 235.0873 327.01642Q235.36855 326.5633 235.88417 326.39142Q234.80605 325.64142 234.80605 324.46954Q234.80605 323.53204 235.32167 323.04767Q235.82167 322.54767 236.8998 322.54767L241.16542 322.54767L241.16542 323.59454L237.24355 323.59454Q236.61855 323.59454 236.3373 323.70392Q236.05605 323.79767 235.88417 324.0633Q235.7123 324.32892 235.7123 324.70392Q235.7123 325.36017 236.1498 325.79767Q236.5873 326.21954 237.55605 326.21954L241.16542 326.21954L241.16542 327.28204L237.11855 327.28204Q236.41542 327.28204 236.07167 327.54767Q235.7123 327.79767 235.7123 328.3758Q235.7123 328.82892 235.94667 329.20392Q236.18105 329.57892 236.63417 329.7508Q237.0873 329.92267 237.93105 329.92267L241.16542 329.92267L241.16542 330.96954ZM240.3998 315.90704Q240.8998 316.5008 241.10292 317.04767Q241.30605 317.57892 241.30605 318.20392Q241.30605 319.23517 240.80605 319.78204Q240.30605 320.32892 239.5248 320.32892Q239.07167 320.32892 238.69667 320.1258Q238.30605 319.92267 238.0873 319.57892Q237.85292 319.23517 237.74355 318.8133Q237.6498 318.51642 237.57167 317.8758Q237.43105 316.61017 237.2123 316.0008Q236.99355 316.0008 236.94667 316.0008Q236.29042 316.0008 236.0248 316.29767Q235.68105 316.70392 235.68105 317.5008Q235.68105 318.23517 235.94667 318.59454Q236.19667 318.95392 236.85292 319.1258L236.7123 320.15704Q236.05605 320.01642 235.6498 319.6883Q235.24355 319.36017 235.0248 318.7508Q234.80605 318.14142 234.80605 317.34454Q234.80605 316.54767 234.99355 316.04767Q235.18105 315.54767 235.4623 315.3133Q235.74355 315.07892 236.18105 314.98517Q236.44667 314.9383 237.1498 314.9383L238.55605 314.9383Q240.0248 314.9383 240.41542 314.8758Q240.80605 314.79767 241.16542 314.59454L241.16542 315.70392Q240.8373 315.86017 240.3998 315.90704ZM238.04042 316.0008Q238.2748 316.57892 238.44667 317.71954Q238.54042 318.3758 238.66542 318.64142Q238.7748 318.90704 238.99355 319.0633Q239.2123 319.20392 239.49355 319.20392Q239.91542 319.20392 240.19667 318.89142Q240.47792 318.5633 240.47792 317.95392Q240.47792 317.34454 240.2123 316.8758Q239.94667 316.39142 239.47792 316.17267Q239.11855 316.0008 238.43105 316.0008L238.04042 316.0008Z" fill-rule="nonzero"/><path fill="#000000" d="M264.51013 346.79767L255.91638 346.79767L255.91638 345.67267L259.44763 345.67267L259.44763 341.20392L255.91638 341.20392L255.91638 340.0633L264.51013 340.0633L264.51013 341.20392L260.46326 341.20392L260.46326 345.67267L264.51013 345.67267L264.51013 346.79767ZM264.51013 333.89142L263.58826 333.89142Q264.65076 334.6258 264.65076 335.8758Q264.65076 336.42267 264.44763 336.90704Q264.22888 337.3758 263.91638 337.61017Q263.58826 337.84454 263.1195 337.9383Q262.82263 338.0008 262.13513 338.0008L258.29138 338.0008L258.29138 336.9383L261.7445 336.9383Q262.557 336.9383 262.85388 336.8758Q263.26013 336.78204 263.51013 336.46954Q263.7445 336.14142 263.7445 335.65704Q263.7445 335.1883 263.51013 334.78204Q263.26013 334.36017 262.83826 334.1883Q262.41638 334.0008 261.6195 334.0008L258.29138 334.0008L258.29138 332.95392L264.51013 332.95392L264.51013 333.89142ZM264.51013 330.96954L258.29138 330.96954L258.29138 330.03204L259.16638 330.03204Q258.69763 329.73517 258.432 329.2508Q258.15076 328.76642 258.15076 328.14142Q258.15076 327.45392 258.432 327.01642Q258.71326 326.5633 259.22888 326.39142Q258.15076 325.64142 258.15076 324.46954Q258.15076 323.53204 258.66638 323.04767Q259.16638 322.54767 260.2445 322.54767L264.51013 322.54767L264.51013 323.59454L260.58826 323.59454Q259.96326 323.59454 259.682 323.70392Q259.40076 323.79767 259.22888 324.0633Q259.057 324.32892 259.057 324.70392Q259.057 325.36017 259.4945 325.79767Q259.932 326.21954 260.90076 326.21954L264.51013 326.21954L264.51013 327.28204L260.46326 327.28204Q259.76013 327.28204 259.41638 327.54767Q259.057 327.79767 259.057 328.3758Q259.057 328.82892 259.29138 329.20392Q259.52576 329.57892 259.97888 329.7508Q260.432 329.92267 261.27576 329.92267L264.51013 329.92267L264.51013 330.96954ZM263.7445 315.90704Q264.2445 316.5008 264.44763 317.04767Q264.65076 317.57892 264.65076 318.20392Q264.65076 319.23517 264.15076 319.78204Q263.65076 320.32892 262.8695 320.32892Q262.41638 320.32892 262.04138 320.1258Q261.65076 319.92267 261.432 319.57892Q261.19763 319.23517 261.08826 318.8133Q260.9945 318.51642 260.91638 317.8758Q260.77576 316.61017 260.557 316.0008Q260.33826 316.0008 260.29138 316.0008Q259.63513 316.0008 259.3695 316.29767Q259.02576 316.70392 259.02576 317.5008Q259.02576 318.23517 259.29138 318.59454Q259.54138 318.95392 260.19763 319.1258L260.057 320.15704Q259.40076 320.01642 258.9945 319.6883Q258.58826 319.36017 258.3695 318.7508Q258.15076 318.14142 258.15076 317.34454Q258.15076 316.54767 258.33826 316.04767Q258.52576 315.54767 258.807 315.3133Q259.08826 315.07892 259.52576 314.98517Q259.79138 314.9383 260.4945 314.9383L261.90076 314.9383Q263.3695 314.9383 263.76013 314.8758Q264.15076 314.79767 264.51013 314.59454L264.51013 315.70392Q264.182 315.86017 263.7445 315.90704ZM261.38513 316.0008Q261.6195 316.57892 261.79138 317.71954Q261.88513 318.3758 262.01013 318.64142Q262.1195 318.90704 262.33826 319.0633Q262.557 319.20392 262.83826 319.20392Q263.26013 319.20392 263.54138 318.89142Q263.82263 318.5633 263.82263 317.95392Q263.82263 317.34454 263.557 316.8758Q263.29138 316.39142 262.82263 316.17267Q262.46326 316.0008 261.77576 316.0008L261.38513 316.0008Z" fill-rule="nonzero"/><path fill="#000000" d="M287.85486 346.79764L279.2611 346.79764L279.2611 345.67264L282.79236 345.67264L282.79236 341.2039L279.2611 341.2039L279.2611 340.06326L287.85486 340.06326L287.85486 341.2039L283.80798 341.2039L283.80798 345.67264L287.85486 345.67264L287.85486 346.79764ZM287.85486 333.8914L286.93298 333.8914Q287.99548 334.62576 287.99548 335.87576Q287.99548 336.42264 287.79236 336.907Q287.5736 337.37576 287.2611 337.61014Q286.93298 337.8445 286.46423 337.93826Q286.16736 338.00076 285.47986 338.00076L281.6361 338.00076L281.6361 336.93826L285.08923 336.93826Q285.90173 336.93826 286.1986 336.87576Q286.60486 336.782 286.85486 336.4695Q287.08923 336.1414 287.08923 335.657Q287.08923 335.18826 286.85486 334.782Q286.60486 334.36014 286.18298 334.18826Q285.7611 334.00076 284.96423 334.00076L281.6361 334.00076L281.6361 332.9539L287.85486 332.9539L287.85486 333.8914ZM287.85486 330.9695L281.6361 330.9695L281.6361 330.032L282.5111 330.032Q282.04236 329.73514 281.77673 329.25076Q281.49548 328.7664 281.49548 328.1414Q281.49548 327.4539 281.77673 327.0164Q282.05798 326.56326 282.5736 326.3914Q281.49548 325.6414 281.49548 324.4695Q281.49548 323.532 282.0111 323.04764Q282.5111 322.54764 283.58923 322.54764L287.85486 322.54764L287.85486 323.5945L283.93298 323.5945Q283.30798 323.5945 283.02673 323.7039Q282.74548 323.79764 282.5736 324.06326Q282.40173 324.3289 282.40173 324.7039Q282.40173 325.36014 282.83923 325.79764Q283.27673 326.2195 284.24548 326.2195L287.85486 326.2195L287.85486 327.282L283.80798 327.282Q283.10486 327.282 282.7611 327.54764Q282.40173 327.79764 282.40173 328.37576Q282.40173 328.8289 282.6361 329.2039Q282.87048 329.5789 283.3236 329.75076Q283.77673 329.92264 284.62048 329.92264L287.85486 329.92264L287.85486 330.9695ZM287.08923 315.907Q287.58923 316.50076 287.79236 317.04764Q287.99548 317.5789 287.99548 318.2039Q287.99548 319.23514 287.49548 319.782Q286.99548 320.3289 286.21423 320.3289Q285.7611 320.3289 285.3861 320.12576Q284.99548 319.92264 284.77673 319.5789Q284.54236 319.23514 284.43298 318.81326Q284.33923 318.5164 284.2611 317.87576Q284.12048 316.61014 283.90173 316.00076Q283.68298 316.00076 283.6361 316.00076Q282.97986 316.00076 282.71423 316.29764Q282.37048 316.7039 282.37048 317.50076Q282.37048 318.23514 282.6361 318.5945Q282.8861 318.9539 283.54236 319.12576L283.40173 320.157Q282.74548 320.0164 282.33923 319.68826Q281.93298 319.36014 281.71423 318.75076Q281.49548 318.1414 281.49548 317.3445Q281.49548 316.54764 281.68298 316.04764Q281.87048 315.54764 282.15173 315.31326Q282.43298 315.0789 282.87048 314.98514Q283.1361 314.93826 283.83923 314.93826L285.24548 314.93826Q286.71423 314.93826 287.10486 314.87576Q287.49548 314.79764 287.85486 314.5945L287.85486 315.7039Q287.52673 315.86014 287.08923 315.907ZM284.72986 316.00076Q284.96423 316.5789 285.1361 317.7195Q285.22986 318.37576 285.35486 318.6414Q285.46423 318.907 285.68298 319.06326Q285.90173 319.2039 286.18298 319.2039Q286.60486 319.2039 286.8861 318.8914Q287.16736 318.56326 287.16736 317.9539Q287.16736 317.3445 286.90173 316.87576Q286.6361 316.3914 286.16736 316.17264Q285.80798 316.00076 285.12048 316.00076L284.72986 316.00076Z" fill-rule="nonzero"/><path fill="#000000" d="M311.1996 323.78204L302.60583 320.48517L302.60583 319.26642L311.1996 315.7508L311.1996 317.03204L308.5902 318.04767L308.5902 321.6258L311.1996 322.57892L311.1996 323.78204ZM307.66833 321.29767L307.66833 318.39142L305.29333 319.28204Q304.2152 319.70392 303.5121 319.89142Q304.3402 320.0633 305.1527 320.36017L307.66833 321.29767ZM311.1996 315.64142L302.60583 315.64142L302.60583 314.51642L311.1996 314.51642L311.1996 315.64142Z" fill-rule="nonzero"/><path fill="#000000" d="M334.54428 323.78204L325.95053 320.48517L325.95053 319.26642L334.54428 315.7508L334.54428 317.03204L331.9349 318.04767L331.9349 321.6258L334.54428 322.57892L334.54428 323.78204ZM331.01303 321.29767L331.01303 318.39142L328.63803 319.28204Q327.5599 319.70392 326.85678 319.89142Q327.6849 320.0633 328.4974 320.36017L331.01303 321.29767ZM334.54428 315.64142L325.95053 315.64142L325.95053 314.51642L334.54428 314.51642L334.54428 315.64142Z" fill-rule="nonzero"/><path fill="#000000" d="M357.889 346.79764L349.29526 346.79764L349.29526 345.67264L352.8265 345.67264L352.8265 341.2039L349.29526 341.2039L349.29526 340.06326L357.889 340.06326L357.889 341.2039L353.84213 341.2039L353.84213 345.67264L357.889 345.67264L357.889 346.79764ZM357.889 333.8914L356.96713 333.8914Q358.02963 334.62576 358.02963 335.87576Q358.02963 336.42264 357.8265 336.907Q357.60776 337.37576 357.29526 337.61014Q356.96713 337.8445 356.49838 337.93826Q356.2015 338.00076 355.514 338.00076L351.67026 338.00076L351.67026 336.93826L355.12338 336.93826Q355.93588 336.93826 356.23276 336.87576Q356.639 336.782 356.889 336.4695Q357.12338 336.1414 357.12338 335.657Q357.12338 335.18826 356.889 334.782Q356.639 334.36014 356.21713 334.18826Q355.79526 334.00076 354.99838 334.00076L351.67026 334.00076L351.67026 332.9539L357.889 332.9539L357.889 333.8914ZM357.889 330.9695L351.67026 330.9695L351.67026 330.032L352.54526 330.032Q352.0765 329.73514 351.81088 329.25076Q351.52963 328.7664 351.52963 328.1414Q351.52963 327.4539 351.81088 327.0164Q352.09213 326.56326 352.60776 326.3914Q351.52963 325.6414 351.52963 324.4695Q351.52963 323.532 352.04526 323.04764Q352.54526 322.54764 353.62338 322.54764L357.889 322.54764L357.889 323.5945L353.96713 323.5945Q353.34213 323.5945 353.06088 323.7039Q352.77963 323.79764 352.60776 324.06326Q352.43588 324.3289 352.43588 324.7039Q352.43588 325.36014 352.87338 325.79764Q353.31088 326.2195 354.27963 326.2195L357.889 326.2195L357.889 327.282L353.84213 327.282Q353.139 327.282 352.79526 327.54764Q352.43588 327.79764 352.43588 328.37576Q352.43588 328.8289 352.67026 329.2039Q352.90463 329.5789 353.35776 329.75076Q353.81088 329.92264 354.65463 329.92264L357.889 329.92264L357.889 330.9695ZM357.12338 315.907Q357.62338 316.50076 357.8265 317.04764Q358.02963 317.5789 358.02963 318.2039Q358.02963 319.23514 357.52963 319.782Q357.02963 320.3289 356.24838 320.3289Q355.79526 320.3289 355.42026 320.12576Q355.02963 319.92264 354.81088 319.5789Q354.5765 319.23514 354.46713 318.81326Q354.37338 318.5164 354.29526 317.87576Q354.15463 316.61014 353.93588 316.00076Q353.71713 316.00076 353.67026 316.00076Q353.014 316.00076 352.74838 316.29764Q352.40463 316.7039 352.40463 317.50076Q352.40463 318.23514 352.67026 318.5945Q352.92026 318.9539 353.5765 319.12576L353.43588 320.157Q352.77963 320.0164 352.37338 319.68826Q351.96713 319.36014 351.74838 318.75076Q351.52963 318.1414 351.52963 317.3445Q351.52963 316.54764 351.71713 316.04764Q351.90463 315.54764 352.18588 315.31326Q352.46713 315.0789 352.90463 314.98514Q353.17026 314.93826 353.87338 314.93826L355.27963 314.93826Q356.74838 314.93826 357.139 314.87576Q357.52963 314.79764 357.889 314.5945L357.889 315.7039Q357.56088 315.86014 357.12338 315.907ZM354.764 316.00076Q354.99838 316.5789 355.17026 317.7195Q355.264 318.37576 355.389 318.6414Q355.49838 318.907 355.71713 319.06326Q355.93588 319.2039 356.21713 319.2039Q356.639 319.2039 356.92026 318.8914Q357.2015 318.56326 357.2015 317.9539Q357.2015 317.3445 356.93588 316.87576Q356.67026 316.3914 356.2015 316.17264Q355.84213 316.00076 355.15463 316.00076L354.764 316.00076Z" fill-rule="nonzero"/><path fill="#000000" d="M381.23373 323.782L372.63998 320.48514L372.63998 319.2664L381.23373 315.75076L381.23373 317.032L378.62436 318.04764L378.62436 321.62576L381.23373 322.5789L381.23373 323.782ZM377.70248 321.29764L377.70248 318.3914L375.32748 319.282Q374.24936 319.7039 373.54623 319.8914Q374.37436 320.06326 375.18686 320.36014L377.70248 321.29764ZM381.23373 315.6414L372.63998 315.6414L372.63998 314.5164L381.23373 314.5164L381.23373 315.6414Z" fill-rule="nonzero"/><path fill="#000000" d="M404.57843 346.79767L395.98468 346.79767L395.98468 345.67267L399.51593 345.67267L399.51593 341.20392L395.98468 341.20392L395.98468 340.0633L404.57843 340.0633L404.57843 341.20392L400.53156 341.20392L400.53156 345.67267L404.57843 345.67267L404.57843 346.79767ZM404.57843 333.89142L403.65656 333.89142Q404.71906 334.6258 404.71906 335.8758Q404.71906 336.42267 404.51593 336.90704Q404.29718 337.3758 403.98468 337.61017Q403.65656 337.84454 403.1878 337.9383Q402.89093 338.0008 402.20343 338.0008L398.35968 338.0008L398.35968 336.9383L401.8128 336.9383Q402.6253 336.9383 402.92218 336.8758Q403.32843 336.78204 403.57843 336.46954Q403.8128 336.14142 403.8128 335.65704Q403.8128 335.1883 403.57843 334.78204Q403.32843 334.36017 402.90656 334.1883Q402.48468 334.0008 401.6878 334.0008L398.35968 334.0008L398.35968 332.95392L404.57843 332.95392L404.57843 333.89142ZM404.57843 330.96954L398.35968 330.96954L398.35968 330.03204L399.23468 330.03204Q398.76593 329.73517 398.5003 329.2508Q398.21906 328.76642 398.21906 328.14142Q398.21906 327.45392 398.5003 327.01642Q398.78156 326.5633 399.29718 326.39142Q398.21906 325.64142 398.21906 324.46954Q398.21906 323.53204 398.73468 323.04767Q399.23468 322.54767 400.3128 322.54767L404.57843 322.54767L404.57843 323.59454L400.65656 323.59454Q400.03156 323.59454 399.7503 323.70392Q399.46906 323.79767 399.29718 324.0633Q399.1253 324.32892 399.1253 324.70392Q399.1253 325.36017 399.5628 325.79767Q400.0003 326.21954 400.96906 326.21954L404.57843 326.21954L404.57843 327.28204L400.53156 327.28204Q399.82843 327.28204 399.48468 327.54767Q399.1253 327.79767 399.1253 328.3758Q399.1253 328.82892 399.35968 329.20392Q399.59406 329.57892 400.04718 329.7508Q400.5003 329.92267 401.34406 329.92267L404.57843 329.92267L404.57843 330.96954ZM403.8128 315.90704Q404.3128 316.5008 404.51593 317.04767Q404.71906 317.57892 404.71906 318.20392Q404.71906 319.23517 404.21906 319.78204Q403.71906 320.32892 402.9378 320.32892Q402.48468 320.32892 402.10968 320.1258Q401.71906 319.92267 401.5003 319.57892Q401.26593 319.23517 401.15656 318.8133Q401.0628 318.51642 400.98468 317.8758Q400.84406 316.61017 400.6253 316.0008Q400.40656 316.0008 400.35968 316.0008Q399.70343 316.0008 399.4378 316.29767Q399.09406 316.70392 399.09406 317.5008Q399.09406 318.23517 399.35968 318.59454Q399.60968 318.95392 400.26593 319.1258L400.1253 320.15704Q399.46906 320.01642 399.0628 319.6883Q398.65656 319.36017 398.4378 318.7508Q398.21906 318.14142 398.21906 317.34454Q398.21906 316.54767 398.40656 316.04767Q398.59406 315.54767 398.8753 315.3133Q399.15656 315.07892 399.59406 314.98517Q399.85968 314.9383 400.5628 314.9383L401.96906 314.9383Q403.4378 314.9383 403.82843 314.8758Q404.21906 314.79767 404.57843 314.59454L404.57843 315.70392Q404.2503 315.86017 403.8128 315.90704ZM401.45343 316.0008Q401.6878 316.57892 401.85968 317.71954Q401.95343 318.3758 402.07843 318.64142Q402.1878 318.90704 402.40656 319.0633Q402.6253 319.20392 402.90656 319.20392Q403.32843 319.20392 403.60968 318.89142Q403.89093 318.5633 403.89093 317.95392Q403.89093 317.34454 403.6253 316.8758Q403.35968 316.39142 402.89093 316.17267Q402.53156 316.0008 401.84406 316.0008L401.45343 316.0008Z" fill-rule="nonzero"/><path fill="#000000" d="M427.92316 323.78204L419.3294 320.48517L419.3294 319.26642L427.92316 315.7508L427.92316 317.03204L425.31378 318.04767L425.31378 321.6258L427.92316 322.57892L427.92316 323.78204ZM424.3919 321.29767L424.3919 318.39142L422.0169 319.28204Q420.93878 319.70392 420.23566 319.89142Q421.06378 320.0633 421.87628 320.36017L424.3919 321.29767ZM427.92316 315.64142L419.3294 315.64142L419.3294 314.51642L427.92316 314.51642L427.92316 315.64142Z" fill-rule="nonzero"/><path fill="#000000" d="M451.26788 323.782L442.67413 320.48514L442.67413 319.2664L451.26788 315.75076L451.26788 317.032L448.6585 318.04764L448.6585 321.62576L451.26788 322.5789L451.26788 323.782ZM447.73663 321.29764L447.73663 318.3914L445.36163 319.282Q444.2835 319.7039 443.58038 319.8914Q444.4085 320.06326 445.221 320.36014L447.73663 321.29764ZM451.26788 315.6414L442.67413 315.6414L442.67413 314.5164L451.26788 314.5164L451.26788 315.6414Z" fill-rule="nonzero"/><path fill="#000000" d="M474.6126 323.78204L466.01886 320.48517L466.01886 319.26642L474.6126 315.7508L474.6126 317.03204L472.00323 318.04767L472.00323 321.6258L474.6126 322.57892L474.6126 323.78204ZM471.08136 321.29767L471.08136 318.39142L468.70636 319.28204Q467.62823 319.70392 466.9251 319.89142Q467.75323 320.0633 468.56573 320.36017L471.08136 321.29767ZM474.6126 315.64142L466.01886 315.64142L466.01886 314.51642L474.6126 314.51642L474.6126 315.64142Z" fill-rule="nonzero"/><path fill="#000000" d="M497.9573 323.782L489.36356 320.48514L489.36356 319.2664L497.9573 315.75076L497.9573 317.032L495.34793 318.04764L495.34793 321.62576L497.9573 322.5789L497.9573 323.782ZM494.42606 321.29764L494.42606 318.3914L492.05106 319.282Q490.97293 319.7039 490.2698 319.8914Q491.09793 320.06326 491.91043 320.36014L494.42606 321.29764ZM497.9573 315.6414L489.36356 315.6414L489.36356 314.5164L497.9573 314.5164L497.9573 315.6414Z" fill-rule="nonzero"/><path fill="#000000" d="M521.30206 346.79767L512.7083 346.79767L512.7083 345.67267L516.23956 345.67267L516.23956 341.20392L512.7083 341.20392L512.7083 340.0633L521.30206 340.0633L521.30206 341.20392L517.2552 341.20392L517.2552 345.67267L521.30206 345.67267L521.30206 346.79767ZM521.30206 333.89142L520.3802 333.89142Q521.4427 334.6258 521.4427 335.8758Q521.4427 336.42267 521.23956 336.90704Q521.0208 337.3758 520.7083 337.61017Q520.3802 337.84454 519.91144 337.9383Q519.61456 338.0008 518.92706 338.0008L515.0833 338.0008L515.0833 336.9383L518.53644 336.9383Q519.34894 336.9383 519.6458 336.8758Q520.05206 336.78204 520.30206 336.46954Q520.53644 336.14142 520.53644 335.65704Q520.53644 335.1883 520.30206 334.78204Q520.05206 334.36017 519.6302 334.1883Q519.2083 334.0008 518.41144 334.0008L515.0833 334.0008L515.0833 332.95392L521.30206 332.95392L521.30206 333.89142ZM521.30206 330.96954L515.0833 330.96954L515.0833 330.03204L515.9583 330.03204Q515.48956 329.73517 515.22394 329.2508Q514.9427 328.76642 514.9427 328.14142Q514.9427 327.45392 515.22394 327.01642Q515.5052 326.5633 516.0208 326.39142Q514.9427 325.64142 514.9427 324.46954Q514.9427 323.53204 515.4583 323.04767Q515.9583 322.54767 517.03644 322.54767L521.30206 322.54767L521.30206 323.59454L517.3802 323.59454Q516.7552 323.59454 516.47394 323.70392Q516.1927 323.79767 516.0208 324.0633Q515.84894 324.32892 515.84894 324.70392Q515.84894 325.36017 516.28644 325.79767Q516.72394 326.21954 517.6927 326.21954L521.30206 326.21954L521.30206 327.28204L517.2552 327.28204Q516.55206 327.28204 516.2083 327.54767Q515.84894 327.79767 515.84894 328.3758Q515.84894 328.82892 516.0833 329.20392Q516.3177 329.57892 516.7708 329.7508Q517.22394 329.92267 518.0677 329.92267L521.30206 329.92267L521.30206 330.96954ZM520.53644 315.90704Q521.03644 316.5008 521.23956 317.04767Q521.4427 317.57892 521.4427 318.20392Q521.4427 319.23517 520.9427 319.78204Q520.4427 320.32892 519.66144 320.32892Q519.2083 320.32892 518.8333 320.1258Q518.4427 319.92267 518.22394 319.57892Q517.98956 319.23517 517.8802 318.8133Q517.78644 318.51642 517.7083 317.8758Q517.5677 316.61017 517.34894 316.0008Q517.1302 316.0008 517.0833 316.0008Q516.42706 316.0008 516.16144 316.29767Q515.8177 316.70392 515.8177 317.5008Q515.8177 318.23517 516.0833 318.59454Q516.3333 318.95392 516.98956 319.1258L516.84894 320.15704Q516.1927 320.01642 515.78644 319.6883Q515.3802 319.36017 515.16144 318.7508Q514.9427 318.14142 514.9427 317.34454Q514.9427 316.54767 515.1302 316.04767Q515.3177 315.54767 515.59894 315.3133Q515.8802 315.07892 516.3177 314.98517Q516.5833 314.9383 517.28644 314.9383L518.6927 314.9383Q520.16144 314.9383 520.55206 314.8758Q520.9427 314.79767 521.30206 314.59454L521.30206 315.70392Q520.97394 315.86017 520.53644 315.90704ZM518.17706 316.0008Q518.41144 316.57892 518.5833 317.71954Q518.67706 318.3758 518.80206 318.64142Q518.91144 318.90704 519.1302 319.0633Q519.34894 319.20392 519.6302 319.20392Q520.05206 319.20392 520.3333 318.89142Q520.61456 318.5633 520.61456 317.95392Q520.61456 317.34454 520.34894 316.8758Q520.0833 316.39142 519.61456 316.17267Q519.2552 316.0008 518.5677 316.0008L518.17706 316.0008Z" fill-rule="nonzero"/><path fill="#000000" d="M544.6467 323.78204L536.053 320.48517L536.053 319.26642L544.6467 315.7508L544.6467 317.03204L542.03735 318.04767L542.03735 321.6258L544.6467 322.57892L544.6467 323.78204ZM541.1155 321.29767L541.1155 318.39142L538.7405 319.28204Q537.66235 319.70392 536.9592 319.89142Q537.78735 320.0633 538.59985 320.36017L541.1155 321.29767ZM544.6467 315.64142L536.053 315.64142L536.053 314.51642L544.6467 314.51642L544.6467 315.64142Z" fill-rule="nonzero"/><path fill="#000000" d="M567.99146 346.79767L559.3977 346.79767L559.3977 345.67267L562.92896 345.67267L562.92896 341.20392L559.3977 341.20392L559.3977 340.0633L567.99146 340.0633L567.99146 341.20392L563.9446 341.20392L563.9446 345.67267L567.99146 345.67267L567.99146 346.79767ZM567.99146 333.89142L567.0696 333.89142Q568.1321 334.6258 568.1321 335.8758Q568.1321 336.42267 567.92896 336.90704Q567.7102 337.3758 567.3977 337.61017Q567.0696 337.84454 566.6008 337.9383Q566.30396 338.0008 565.61646 338.0008L561.7727 338.0008L561.7727 336.9383L565.2258 336.9383Q566.0383 336.9383 566.3352 336.8758Q566.74146 336.78204 566.99146 336.46954Q567.2258 336.14142 567.2258 335.65704Q567.2258 335.1883 566.99146 334.78204Q566.74146 334.36017 566.3196 334.1883Q565.8977 334.0008 565.1008 334.0008L561.7727 334.0008L561.7727 332.95392L567.99146 332.95392L567.99146 333.89142ZM567.99146 330.96954L561.7727 330.96954L561.7727 330.03204L562.6477 330.03204Q562.17896 329.73517 561.9133 329.2508Q561.6321 328.76642 561.6321 328.14142Q561.6321 327.45392 561.9133 327.01642Q562.1946 326.5633 562.7102 326.39142Q561.6321 325.64142 561.6321 324.46954Q561.6321 323.53204 562.1477 323.04767Q562.6477 322.54767 563.7258 322.54767L567.99146 322.54767L567.99146 323.59454L564.0696 323.59454Q563.4446 323.59454 563.1633 323.70392Q562.8821 323.79767 562.7102 324.0633Q562.5383 324.32892 562.5383 324.70392Q562.5383 325.36017 562.9758 325.79767Q563.4133 326.21954 564.3821 326.21954L567.99146 326.21954L567.99146 327.28204L563.9446 327.28204Q563.24146 327.28204 562.8977 327.54767Q562.5383 327.79767 562.5383 328.3758Q562.5383 328.82892 562.7727 329.20392Q563.0071 329.57892 563.4602 329.7508Q563.9133 329.92267 564.7571 329.92267L567.99146 329.92267L567.99146 330.96954ZM567.2258 315.90704Q567.7258 316.5008 567.92896 317.04767Q568.1321 317.57892 568.1321 318.20392Q568.1321 319.23517 567.6321 319.78204Q567.1321 320.32892 566.3508 320.32892Q565.8977 320.32892 565.5227 320.1258Q565.1321 319.92267 564.9133 319.57892Q564.67896 319.23517 564.5696 318.8133Q564.4758 318.51642 564.3977 317.8758Q564.2571 316.61017 564.0383 316.0008Q563.8196 316.0008 563.7727 316.0008Q563.11646 316.0008 562.8508 316.29767Q562.5071 316.70392 562.5071 317.5008Q562.5071 318.23517 562.7727 318.59454Q563.0227 318.95392 563.67896 319.1258L563.5383 320.15704Q562.8821 320.01642 562.4758 319.6883Q562.0696 319.36017 561.8508 318.7508Q561.6321 318.14142 561.6321 317.34454Q561.6321 316.54767 561.8196 316.04767Q562.0071 315.54767 562.2883 315.3133Q562.5696 315.07892 563.0071 314.98517Q563.2727 314.9383 563.9758 314.9383L565.3821 314.9383Q566.8508 314.9383 567.24146 314.8758Q567.6321 314.79767 567.99146 314.59454L567.99146 315.70392Q567.6633 315.86017 567.2258 315.90704ZM564.86646 316.0008Q565.1008 316.57892 565.2727 317.71954Q565.36646 318.3758 565.49146 318.64142Q565.6008 318.90704 565.8196 319.0633Q566.0383 319.20392 566.3196 319.20392Q566.74146 319.20392 567.0227 318.89142Q567.30396 318.5633 567.30396 317.95392Q567.30396 317.34454 567.0383 316.8758Q566.7727 316.39142 566.30396 316.17267Q565.9446 316.0008 565.2571 316.0008L564.86646 316.0008Z" fill-rule="nonzero"/></svg>